<svg width="200" height="200" viewBox="0 0 200 200" fill="none" xmlns="http://www.w3.org/2000/svg">
<path fill-rule="evenodd" clip-rule="evenodd" d="M96.8668 46.9091H103.134V40.6061H109.4V34.303H103.134V28H96.8668V34.303H90.6335V40.6061H96.8668V46.9091ZM137.5 45.3332C131.467 45.3332 126.567 50.2617 126.567 56.3635C126.567 62.4654 131.467 67.3939 137.5 67.3939C143.533 67.3939 148.433 62.4654 148.433 56.3635C148.433 50.2617 143.533 45.3332 137.5 45.3332ZM137.5 83.1516H62.5V70.5456H137.5V83.1516ZM73.4332 56.3635C73.4332 50.2617 68.5332 45.3332 62.4999 45.3332C56.4666 45.3332 51.5666 50.2617 51.5666 56.3635C51.5666 62.4654 56.4666 67.3939 62.4999 67.3939C68.5332 67.3939 73.4332 62.4654 73.4332 56.3635ZM112.5 67.3939C106.467 67.3939 101.567 62.4654 101.567 56.3635C101.567 50.2617 106.467 45.3332 112.5 45.3332C118.533 45.3332 123.433 50.2617 123.433 56.3635C123.433 62.4654 118.533 67.3939 112.5 67.3939ZM87.4999 67.3939C93.5332 67.3939 98.4332 62.4654 98.4332 56.3635C98.4332 50.2617 93.5332 45.3332 87.4999 45.3332C81.4666 45.3332 76.5666 50.2617 76.5666 56.3635C76.5666 62.4654 81.4666 67.3939 87.4999 67.3939ZM159.367 124.122L168.733 95.7579H200V146.182H181.267V108.364L168.7 146.149H149.967L137.467 108.33V146.149H118.733V95.7579H150L159.367 124.122ZM81.2667 95.7579H62.5V146.149H112.5V133.442H81.2667V95.7579ZM37.5 95.7579H56.2333L34.3333 117.785L62.4667 146.149H37.4667L18.7333 127.24V146.149H0V95.7579H18.7667V114.667L37.5 95.7579Z" fill="#00A1DF"/>
</svg>
