<svg width="200" height="200" viewBox="0 0 200 200" fill="none" xmlns="http://www.w3.org/2000/svg">
<path d="M60.3361 67.3579L18.1035 76.8702H18.0559L17.9448 76.9654L18.0559 77.0277L18.1035 77.0594L43.1513 80.8169C57.9104 73.9367 67.8182 71.6062 74.508 71.6062H75.6335L75.3015 70.9714L75.2539 70.8933L75.1904 70.8615V70.7822L75.1587 70.7346L74.2394 69.5456C72.4791 67.469 68.7215 66.9771 65.5671 66.9771C62.7129 66.9771 60.3361 67.3579 60.3361 67.3579" fill="url(#paint0_linear_52_3358)"/>
<path d="M67.898 65.8991C67.898 65.8991 63.3323 66.7878 60.3366 67.3579C60.3366 67.3579 62.7134 66.9771 65.5676 66.9771C68.722 66.9771 72.4796 67.469 74.2387 69.5456L75.634 71.6062C78.3124 76.9483 77.3138 88.9656 41.1216 120.718C27.2818 132.83 11.8256 143.657 0 151.379L27.4734 146.924C40.2183 134.78 73.953 107.306 103.916 91.6122C154.645 65.0116 194.563 50.8226 199.746 49.2698L200 49C200 49 127.06 54.3104 67.898 65.8991" fill="url(#paint1_linear_52_3358)"/>
<defs>
<linearGradient id="paint0_linear_52_3358" x1="74.3051" y1="74.4846" x2="21.515" y2="74.4846" gradientUnits="userSpaceOnUse">
<stop stop-color="#78171B"/>
<stop offset="1" stop-color="#D41718"/>
</linearGradient>
<linearGradient id="paint1_linear_52_3358" x1="0" y1="49" x2="0" y2="151.379" gradientUnits="userSpaceOnUse">
<stop stop-color="#D71718"/>
<stop offset="1" stop-color="#AB1F24"/>
</linearGradient>
</defs>
</svg>
