<svg width="200" height="200" viewBox="0 0 200 200" fill="none" xmlns="http://www.w3.org/2000/svg">
<path d="M123.496 143.605L106.483 169.574C106.428 169.64 106.373 169.707 106.318 169.775C104.81 171.608 103.067 173.727 101.266 172.482C99.4605 171.189 102.037 167.766 102.037 167.766L124.846 132.106C128.199 126.551 134.256 115.569 134.256 105.878C134.256 96.1891 126.651 83.6563 126.651 83.6563L74.8463 0L64.9251 14.9232C60.9956 20.9956 64.408 27.5212 64.408 27.5212L109.899 102.972C120.402 121.06 105.452 140.763 105.452 140.763L78.0048 183.462H100.749C112.283 183.462 117.504 174.031 117.504 174.031L131.872 151.745C137.089 143.605 143.92 143.347 143.92 143.347H157C148.881 146.77 145.208 155.168 145.208 155.168L129.035 180.103C122.722 189.535 115.377 188.179 115.377 188.179H50.2971L81.1632 139.922C88.4431 128.941 81.1632 119.767 81.1632 119.767L40.0539 52.9717L31.4177 66.0881C23.8808 78.1676 31.1607 85.2086 31.1607 85.2086L60.7355 132.882C67.3063 142.83 62.6058 148.837 62.6058 148.837L29.3585 200H116.73C132.903 200 138.96 186.886 138.96 186.886L157.514 158.851C161.961 151.745 171.885 152.778 171.885 152.778L159.319 132.882H141.279C128.456 132.882 123.496 143.605 123.496 143.605Z" fill="#F99F1C"/>
<path d="M59.1903 183.14H73.0441L103.133 136.305C115.956 116.861 104.164 101.164 104.164 101.164L58.4162 26.2266L46.8817 43.5403C43.4693 49.2898 46.8817 55.3 46.8817 55.3L85.8637 120.027C91.3414 129.716 87.155 138.889 87.155 138.889L59.1903 183.14Z" fill="#F99F1C"/>
</svg>
