<svg width="200" height="200" viewBox="0 0 200 200" fill="none" xmlns="http://www.w3.org/2000/svg">
<path d="M200 99.9999C200 155.215 155.215 200 100 200C44.7853 200 0 155.215 0 99.9999C0 44.7852 44.7853 0 100 0C155.215 0 200 44.7852 200 99.9999Z" fill="white"/>
<path d="M100.205 164.416C135.788 164.416 164.827 135.582 164.827 99.7945C164.827 64.2117 135.992 35.1729 100.205 35.1729C64.6223 35.1729 35.5835 64.0072 35.5835 99.7945C35.5835 135.582 64.4178 164.416 100.205 164.416Z" fill="#FFE900"/>
<path d="M161.554 96.5223L167.689 94.8863L172.597 114.927L182.004 112.678L181.8 107.156L179.141 107.77L175.46 93.0458L182.004 91.4098L180.368 84.0479L173.824 85.6839L171.779 77.5039L164.622 82.4119L165.849 87.5243L159.714 89.1604L161.35 96.5223" fill="#1D1D1B"/>
<path d="M160.532 89.7736C158.078 87.3196 154.601 85.6836 150.102 85.6836C140.286 85.6836 135.583 93.4546 135.583 99.9985C135.583 106.542 140.286 114.313 150.102 114.313C159.918 114.313 164.622 106.542 164.622 99.9985C164.622 97.1355 163.804 94.2725 162.168 91.8186L160.532 89.7736ZM156.442 99.9985C156.442 103.884 153.579 106.747 149.898 106.747C146.421 106.747 143.354 103.884 143.354 99.9985C143.354 96.113 146.217 93.2501 149.898 93.2501C153.579 93.2501 156.442 96.113 156.442 99.9985ZM135.379 99.9985C135.379 93.4546 130.675 85.6836 120.859 85.6836C111.043 85.6836 106.34 93.4546 106.34 99.9985C106.34 106.542 111.043 114.313 120.859 114.313C130.675 114.313 135.379 106.542 135.379 99.9985ZM127.403 99.9985C127.403 103.884 124.54 106.747 120.859 106.747C117.382 106.747 114.315 103.884 114.315 99.9985C114.315 96.113 117.178 93.2501 120.859 93.2501C124.335 93.2501 127.403 96.113 127.403 99.9985ZM98.364 96.931H106.544C105.112 90.3871 99.3865 85.6836 92.2291 85.6836C84.2536 85.6836 78.1188 92.0231 78.1188 99.9985C78.1188 107.974 84.4583 114.313 92.4338 114.313C99.7957 114.313 105.112 109.405 106.544 103.271H98.364C97.546 104.907 95.9102 106.951 92.6382 106.951C88.7527 106.951 86.2988 104.089 86.2988 100.203C86.2988 98.3625 86.9121 96.5221 88.1391 95.2951C89.3661 94.0681 91.0022 93.25 92.8427 93.4545C95.7056 93.0455 97.3415 95.0905 98.364 96.931ZM69.5297 94.0681H77.5052C76.8917 86.9106 70.7568 85.6836 67.0758 85.6836C61.5544 85.6836 56.6465 89.1601 56.6465 94.886C56.6465 98.567 59.5094 100.816 62.9859 101.839C68.0983 103.884 70.1433 104.088 70.1433 105.929C70.1433 107.156 68.7118 107.974 67.2803 107.974C66.8713 107.974 64.6218 107.974 64.2128 105.52H56.2373C57.0553 112.677 63.1903 114.518 67.2803 114.518C73.2108 114.518 78.3233 111.041 78.3233 105.111C78.3233 99.385 73.4154 97.9535 68.9164 96.7265C66.8714 96.113 64.8264 95.2951 64.8264 94.0681C64.8264 93.2501 65.4399 92.2276 67.0758 92.2276C69.3253 92.0231 69.5297 93.4546 69.5297 94.0681Z" fill="#1D1D1B"/>
</svg>
