<svg width="400" height="300" viewBox="0 0 400 300" fill="none" xmlns="http://www.w3.org/2000/svg">
<rect width="400" height="300" fill="#FAFAFA"/>
<g clip-path="url(#clip0_150_3624)">
<path d="M330.46 156.852L335.971 166.009C337.679 168.753 340.493 169.999 343.999 169.999H358.177L341.579 149.886L339.225 148.545L333.011 150.573L329.862 155.129L330.46 156.852Z" fill="url(#paint0_linear_150_3624)"/>
<path d="M341.579 149.886L338.115 145.686L328.957 150.612L329.928 155.583L330.46 156.852C330.252 153.482 336.037 149.57 341.579 149.886Z" fill="url(#paint1_linear_150_3624)"/>
<path d="M330.46 156.852L325.505 148.659C324.909 147.73 324.745 146.917 324.745 145.97C324.745 144.928 325.189 144.356 326.895 143.451C328.883 142.5 332.884 142.086 337.009 142.086C343.712 142.086 345.318 144.237 346.003 146.558C346.003 146.558 345.056 146.182 342.83 146.182C335.769 146.182 330.125 149.61 330.125 154.8C330.125 155.889 330.46 156.852 330.46 156.852Z" fill="url(#paint2_linear_150_3624)"/>
<path d="M309.179 122H315.844C318.654 122 319.807 123.15 320.944 124.278C322.245 125.461 326.192 130.803 334.536 141.228H325.505C321.813 141.228 320.645 140.599 319.217 138.421L309.179 122Z" fill="url(#paint3_linear_150_3624)"/>
<path d="M362.325 167.83L362.808 169.563H362.817L363.307 167.83H363.717L364.035 170H363.706L363.481 168.23H363.474L362.968 170H362.616L362.124 168.237H362.119L361.893 170H361.581L361.897 167.83H362.325ZM361.304 167.83V168.109H360.665V170H360.349V168.109H359.709V167.83H361.304Z" fill="#334357"/>
<path d="M204.912 141.242H204.837L201.044 151.963H208.713L204.912 141.242ZM211.7 160.41L209.843 155.143H199.913L198.052 160.41H193.814L202.708 136.968H207.431L216.189 160.41H211.7ZM247.676 136.029H251.822V139.948H247.676V136.029ZM247.722 142.554H251.774V160.41H247.722V142.554ZM217.803 136.027H221.951V139.948H217.803V136.027ZM217.851 142.554H221.903V160.41H217.851V142.554ZM243.299 136.05H239.247V160.41H243.299V136.05ZM230.383 151.702V160.41H226.319V147.142C226.319 145.868 226.173 143.44 226.123 142.558H229.396C229.749 142.558 229.85 142.707 229.861 143.055C229.868 143.582 229.896 145.267 229.896 145.267H229.989C230.308 144.495 231.461 142.183 234.827 142.183C235.955 142.183 236.789 142.547 236.926 142.602C236.926 143.371 236.846 145.058 236.805 145.504C236.78 145.797 236.653 145.892 236.507 145.892C236.369 145.892 236.305 145.86 236.228 145.83C235.976 145.724 235.387 145.544 234.568 145.544C232.405 145.544 230.383 147.105 230.383 151.702ZM267.287 160.41V148.879C267.287 146.677 266.282 145.335 264.397 145.335C261.904 145.335 260.249 147.988 260.249 151.567V160.41H256.195V147.293C256.195 145.85 256.064 143.746 255.996 142.558H259.253C259.62 142.558 259.725 142.709 259.729 143.039C259.739 143.421 259.771 145.267 259.771 145.267H259.864C260.352 144.428 261.6 142.181 265.336 142.181C269.187 142.181 271.339 144.815 271.339 147.771V160.41H267.287ZM278.502 149.648H286.002C286.157 146.77 284.646 145.157 282.366 145.157C279.98 145.157 278.611 146.883 278.502 149.648ZM288.501 156.489C288.726 156.489 288.792 156.686 288.81 156.889C288.879 157.651 288.945 159.373 288.934 159.812C288.501 159.95 286.322 160.751 283.396 160.751C277.712 160.751 274.292 157.81 274.292 151.48C274.292 146.045 277.208 142.183 282.449 142.183C287.595 142.183 290.042 145.624 290.042 149.896C290.042 150.399 289.987 151.248 289.898 152.375H278.451C278.451 155.424 280.393 157.612 283.984 157.612C285.962 157.612 287.535 156.903 288.16 156.601C288.284 156.541 288.357 156.489 288.501 156.489ZM297.993 160.751C303.269 160.751 305.794 158.593 305.794 155.387C305.794 152.23 303.551 150.901 301.175 150.117C300.493 149.896 299.826 149.673 299.202 149.463C297.576 148.925 296.733 148.219 296.733 147.164C296.733 146.05 297.748 145.271 299.858 145.271C301.733 145.271 303.265 146.036 303.872 146.329C303.974 146.375 304.064 146.441 304.226 146.441C304.354 146.441 304.512 146.361 304.533 146.045C304.574 145.447 304.645 144.362 304.645 143.32C304.153 143.094 302.379 142.183 299.526 142.183C295.166 142.183 292.487 144.451 292.487 147.443C292.487 150.344 294.47 151.669 296.653 152.391C297.155 152.562 298.087 152.867 298.632 153.052C300.911 153.808 301.56 154.495 301.56 155.561C301.56 156.951 300.08 157.638 297.532 157.638C295.442 157.638 294.005 156.871 293.428 156.601C293.311 156.55 293.242 156.489 293.08 156.489C292.78 156.489 292.775 156.889 292.771 156.955C292.759 157.146 292.663 158.997 292.663 159.613C293.141 159.819 295.211 160.751 297.993 160.751ZM59.0976 141.242H59.0231L55.2286 151.963H62.8921L59.0976 141.242ZM65.8841 160.41L64.025 155.143H54.0957L52.2366 160.41H48L56.8941 136.966H61.6137L70.371 160.41H65.8841ZM132.113 136.027H136.257V139.946H132.113V136.027ZM132.161 142.554H136.209V160.41H132.161V142.554ZM123.46 151.702V160.41H119.403V147.142C119.403 145.866 119.257 143.439 119.204 142.554H122.478C122.832 142.554 122.937 142.707 122.938 143.053C122.949 143.579 122.981 145.267 122.981 145.267H123.071C123.393 144.495 124.542 142.183 127.91 142.183C129.034 142.183 129.876 142.545 130.014 142.6C130.014 143.369 129.931 145.056 129.892 145.504C129.865 145.795 129.735 145.889 129.592 145.889C129.455 145.889 129.386 145.86 129.311 145.83C129.055 145.722 128.468 145.543 127.656 145.543C125.492 145.543 123.46 147.105 123.46 151.702ZM93.5287 160.41V148.986C93.5287 146.928 92.6587 145.331 90.5581 145.331C88.193 145.331 86.8293 147.92 86.8293 151.546V160.41H82.7791V148.95C82.7791 147.079 81.9978 145.331 79.8245 145.331C77.4256 145.331 76.0832 147.915 76.0832 151.674V160.41H72.0242V147.405C72.0242 145.726 71.875 143.35 71.8271 142.554H75.0711C75.4369 142.554 75.5576 142.675 75.5647 143.053C75.5736 143.527 75.602 145.267 75.602 145.267H75.6944C75.9412 144.758 77.2747 142.181 80.9964 142.181C84.4642 142.181 85.7906 144.669 86.119 145.436C86.4387 144.761 87.9781 142.181 91.4708 142.181C95.1037 142.181 97.5825 144.131 97.5825 148.048V160.41H93.5287ZM104.74 149.644H112.242C112.396 146.771 110.891 145.156 108.606 145.156C106.219 145.156 104.854 146.883 104.74 149.644ZM114.744 156.489C114.966 156.489 115.033 156.686 115.051 156.889C115.12 157.651 115.186 159.375 115.175 159.812C114.744 159.95 112.565 160.751 109.639 160.751C103.953 160.751 100.534 157.807 100.534 151.477C100.534 146.049 103.447 142.183 108.694 142.183C113.835 142.183 116.287 145.623 116.287 149.896C116.287 150.399 116.23 151.248 116.139 152.372H104.692C104.692 155.424 106.636 157.612 110.221 157.612C112.201 157.612 113.778 156.903 114.401 156.598C114.525 156.537 114.596 156.489 114.744 156.489ZM165.583 151.351H164.894C159.802 151.351 158.801 153.121 158.801 154.92C158.801 156.39 159.77 157.782 161.674 157.782C164.202 157.782 165.583 155.341 165.583 152.771V151.351ZM166.56 160.41C166.233 160.41 165.962 160.302 165.926 159.828C165.887 159.245 165.807 158.118 165.807 158.118H165.752C165.512 158.446 164.035 160.751 160.326 160.751C156.773 160.751 154.734 158.013 154.734 155.007C154.734 150.839 158.781 148.746 164.784 148.746H165.583V148.091C165.583 146.221 164.253 145.219 161.768 145.219C159.53 145.219 157.673 146.004 156.95 146.372C156.902 146.395 156.771 146.471 156.65 146.471C156.458 146.471 156.35 146.352 156.34 146.141C156.308 145.47 156.238 144.179 156.228 143.36C156.959 143.082 159.385 142.181 162.053 142.181C167.359 142.181 169.637 144.644 169.637 148.577V155.539C169.637 158.079 169.873 159.741 169.957 160.41H166.56ZM152.552 156.489C152.659 156.489 152.81 156.56 152.845 156.873C152.923 157.723 152.955 159.116 152.959 159.552C152.149 159.952 150.395 160.751 148.243 160.751C142.834 160.751 139.517 157.612 139.517 151.47C139.517 145.715 142.467 142.183 148.243 142.183C150.159 142.183 151.922 142.851 152.959 143.384C152.959 144.019 152.897 145.459 152.845 146.065C152.82 146.319 152.698 146.441 152.552 146.441C152.391 146.441 152.336 146.399 152.24 146.356C150.935 145.717 149.708 145.408 148.603 145.408C145.16 145.408 143.743 147.661 143.743 151.47C143.743 154.865 144.876 157.526 148.603 157.526C150.027 157.526 151.325 157.018 152.13 156.631C152.346 156.53 152.383 156.489 152.552 156.489ZM184.238 160.41V148.879C184.238 146.676 183.233 145.333 181.351 145.333C178.856 145.333 177.198 147.984 177.198 151.567V160.41H173.148V147.293C173.148 145.85 173.016 143.746 172.952 142.554H176.203C176.575 142.554 176.681 142.709 176.683 143.039C176.692 143.417 176.722 145.267 176.722 145.267H176.811C177.304 144.426 178.551 142.18 182.287 142.18C186.143 142.18 188.295 144.815 188.295 147.768V160.41H184.238Z" fill="#334357"/>
</g>
<defs>
<linearGradient id="paint0_linear_150_3624" x1="329.851" y1="150.062" x2="329.851" y2="169.948" gradientUnits="userSpaceOnUse">
<stop stop-color="#EB2023"/>
<stop offset="0.096269" stop-color="#E92026"/>
<stop offset="0.203864" stop-color="#E31E27"/>
<stop offset="0.298638" stop-color="#E01E26"/>
<stop offset="0.404297" stop-color="#D81F27"/>
<stop offset="0.5" stop-color="#CF2027"/>
<stop offset="0.6" stop-color="#C62127"/>
<stop offset="0.7" stop-color="#B92025"/>
<stop offset="0.8" stop-color="#AE1F23"/>
<stop offset="0.9" stop-color="#A01D22"/>
<stop offset="1" stop-color="#901C1C"/>
</linearGradient>
<linearGradient id="paint1_linear_150_3624" x1="330.402" y1="156.819" x2="341.452" y2="149.743" gradientUnits="userSpaceOnUse">
<stop stop-color="#6C221F"/>
<stop offset="0.249132" stop-color="#7F2620"/>
<stop offset="0.498264" stop-color="#982B24"/>
<stop offset="0.749132" stop-color="#B53125"/>
<stop offset="1" stop-color="#CB3327"/>
</linearGradient>
<linearGradient id="paint2_linear_150_3624" x1="329.535" y1="154.913" x2="345.723" y2="145.547" gradientUnits="userSpaceOnUse">
<stop stop-color="#E7EBEE"/>
<stop offset="0.249132" stop-color="#DFE4E8"/>
<stop offset="0.498264" stop-color="#CAD1D7"/>
<stop offset="0.749132" stop-color="#A8B5BD"/>
<stop offset="1" stop-color="#93A6AD"/>
</linearGradient>
<linearGradient id="paint3_linear_150_3624" x1="320.354" y1="122.006" x2="320.354" y2="141.218" gradientUnits="userSpaceOnUse">
<stop stop-color="#05AEE9"/>
<stop offset="0.096269" stop-color="#00A9E0"/>
<stop offset="0.203864" stop-color="#07A3DC"/>
<stop offset="0.298638" stop-color="#089DD5"/>
<stop offset="0.404297" stop-color="#0A92CC"/>
<stop offset="0.5" stop-color="#0F87C3"/>
<stop offset="0.6" stop-color="#127CB8"/>
<stop offset="0.7" stop-color="#0E70AD"/>
<stop offset="0.8" stop-color="#0F63A3"/>
<stop offset="0.9" stop-color="#135393"/>
<stop offset="1" stop-color="#184485"/>
</linearGradient>
<clipPath id="clip0_150_3624">
<rect width="316" height="60" fill="white" transform="translate(48 116)"/>
</clipPath>
</defs>
</svg>
