<svg width="400" height="300" viewBox="0 0 400 300" fill="none" xmlns="http://www.w3.org/2000/svg">
<rect width="400" height="300" fill="#FAFAFA"/>
<path d="M199.149 130.638L183.318 157.225C181.677 159.922 180.808 162.716 180.519 165.413H174.341C174.727 162.041 176.079 158.862 178.781 154.238L189.882 135.647C192.102 131.986 194.322 130.638 198.28 130.638H199.149Z" fill="#00274A"/>
<path d="M197.893 158.573C196.735 159.633 194.515 161.27 192.584 161.367C191.233 161.27 191.233 160.114 192.102 158.381C195.48 151.926 198.955 148.555 203.299 148.555H204.071L197.893 158.573ZM203.782 144.991C195.77 144.991 190.75 149.711 186.407 159.922C185.345 162.523 184.669 165.702 188.434 165.605C190.557 165.605 194.129 164.449 196.542 162.715C196.349 163.582 196.252 164.738 196.349 165.413H201.948C202.141 163.197 203.009 160.5 204.843 157.128L211.986 145.376C209.284 145.087 206.581 144.991 203.782 144.991Z" fill="#00274A"/>
<path d="M256.003 158.573C254.845 159.633 252.624 161.27 250.695 161.367C249.343 161.27 249.343 160.114 250.211 158.381C253.59 151.926 257.065 148.555 261.408 148.555H262.181L256.003 158.573ZM261.795 144.991C253.783 144.991 248.764 149.711 244.42 159.922C243.358 162.523 242.683 165.702 246.447 165.605C248.57 165.605 252.142 164.449 254.555 162.715C254.362 163.582 254.266 164.738 254.362 165.413H259.961C260.154 163.197 261.022 160.5 262.857 157.128L270 145.376C267.297 145.087 264.594 144.991 261.795 144.991Z" fill="#00274A"/>
<path d="M243.454 171H241.621C239.207 171 237.084 169.362 236.504 167.05L233.705 156.454L228.492 165.22H222.508L239.304 136.899C241.427 133.239 243.744 131.89 247.702 131.89H248.28L237.084 150.674L245.482 144.895H252.238L238.145 154.72L243.454 171Z" fill="#00274A"/>
<path d="M188.048 129C182.353 129 179.457 130.541 173.858 134.491L155.132 148.073H143.066C139.591 148.073 136.792 148.17 134.572 150.289L131.483 153.179C131.483 153.179 140.556 152.794 148.954 152.505L131 165.413H138.819L157.159 152.119C160.73 152.023 163.24 151.927 163.24 151.927C167.487 151.83 169.901 148.073 169.901 148.073H162.854L177.719 137.284L166.715 155.202C164.302 159.344 163.24 162.234 162.854 165.413H169.225C169.515 162.716 170.383 160.018 172.024 157.225L187.083 132.179C188.144 130.445 189.013 129 189.013 129H188.048Z" fill="#00274A"/>
<path d="M218.068 150.675C217.971 151.252 218.164 151.542 219.323 152.216L221.06 153.372C222.894 154.624 223.666 156.454 223.473 157.996C222.894 162.234 219.709 165.606 213.145 165.606C210.249 165.606 208.994 165.509 205.519 164.931L208.029 160.597C210.442 160.982 211.793 161.271 213.531 161.175C216.041 161.175 217.006 160.019 217.102 159.152C217.199 158.574 216.909 157.996 215.751 157.129L214.4 156.165C212.18 154.624 211.6 153.372 211.89 151.445C212.469 147.688 216.716 144.895 222.701 144.895C224.535 144.895 226.659 144.991 228.879 145.28L226.562 149.326C225.114 149.23 222.701 149.133 220.964 149.133C219.323 149.23 218.164 149.808 218.068 150.675Z" fill="#00274A"/>
</svg>
