<svg width="400" height="300" viewBox="0 0 400 300" fill="none" xmlns="http://www.w3.org/2000/svg">
<rect width="400" height="300" fill="#FAFAFA"/>
<path fill-rule="evenodd" clip-rule="evenodd" d="M123.821 162C123.821 162 129.062 162 130.558 162C132.221 162 133.382 161.308 133.999 160.021C134.731 158.493 144.556 138 144.556 138C144.556 138 139.317 138 137.821 138C136.157 138 134.996 138.692 134.379 139.98C133.646 141.507 123.821 162 123.821 162Z" fill="#0C0243"/>
<path fill-rule="evenodd" clip-rule="evenodd" d="M252.338 162C252.338 162 257.577 162 259.074 162C260.737 162 261.897 161.308 262.516 160.021C263.247 158.493 273.073 138 273.073 138C273.073 138 267.832 138 266.336 138C264.673 138 263.513 138.692 262.897 139.98C262.163 141.507 252.338 162 252.338 162Z" fill="#0C0243"/>
<path fill-rule="evenodd" clip-rule="evenodd" d="M115.317 138C113.682 138 112.751 138.2 111.558 138.828C111.165 139.035 106.858 141.292 103.744 142.946C101.28 144.254 99.5636 146.101 98.482 148.36C95.3656 154.873 92 162 92 162C92 162 97.229 162 98.7215 162C100.381 162 101.539 161.308 102.155 160.021C102.427 159.453 103.941 156.289 105.467 153.101C109.667 153.101 115.472 153.101 116.408 153.101C117.907 153.101 118.484 152.829 119.061 151.623L119.624 150.415C119.624 150.415 111.994 150.415 106.455 150.415C107.65 147.917 109.433 144.162 109.433 144.162C110.184 142.591 111.071 141.958 113.067 141.958H120.515C120.515 141.958 125.743 141.958 127.236 141.958C128.896 141.958 130.054 141.267 130.671 139.979L131.623 138C131.623 138 120.175 138 115.317 138Z" fill="#0C0243"/>
<path fill-rule="evenodd" clip-rule="evenodd" d="M218.053 138.004C218.053 138.004 216.463 138.004 214.976 138.004C213.323 138.004 212.17 138.695 211.556 139.983C211.138 140.864 206.716 150.181 204.451 154.95C204.358 154.45 204.014 153.795 203.71 153.376C199.577 147.688 194.708 140.964 193.081 138.682C192.529 137.907 191.601 137.814 190.695 138.294C189.932 138.697 189.576 138.888 188.778 139.313C186.457 140.549 185.112 142.129 183.993 144.476C180.89 150.991 175.762 162 175.762 162C175.762 162 177.332 162 178.818 162C180.472 162 181.625 161.308 182.238 160.02C182.571 159.32 186.325 151.378 188.508 146.778C188.555 147.182 188.775 147.603 188.981 147.88C192.371 152.444 197.574 159.45 198.094 160.143C198.983 161.331 199.903 162 201.556 162C202.274 162 204.889 162 206.599 162L218.053 138.004Z" fill="#0C0243"/>
<path fill-rule="evenodd" clip-rule="evenodd" d="M180.689 138.004C180.689 138.004 179.099 138.004 177.612 138.004C175.959 138.004 174.806 138.695 174.192 139.983C173.773 140.864 169.352 150.181 167.087 154.95C166.993 154.45 166.65 153.795 166.346 153.376C162.213 147.688 157.343 140.964 155.715 138.682C155.164 137.907 154.236 137.814 153.331 138.294C152.568 138.697 152.211 138.888 151.414 139.313C149.093 140.549 147.748 142.129 146.629 144.476C143.525 150.991 138.397 162 138.397 162C138.397 162 139.967 162 141.454 162C143.107 162 144.259 161.308 144.873 160.02C145.207 159.32 148.96 151.378 151.143 146.778C151.191 147.182 151.41 147.603 151.616 147.88C155.006 152.444 160.21 159.45 160.729 160.143C161.618 161.331 162.538 162 164.192 162C164.909 162 167.525 162 169.235 162L180.689 138.004Z" fill="#0C0243"/>
<path fill-rule="evenodd" clip-rule="evenodd" d="M227.261 150.415C229.008 146.768 230.182 144.289 230.182 144.289C231.005 142.568 231.784 141.958 233.908 141.958H240.283C240.283 141.958 242.863 141.958 244.914 141.958C246.035 141.958 246.383 142.571 245.989 143.397C245.045 145.371 243.845 147.885 242.637 150.415C238.304 150.415 231.936 150.415 227.261 150.415ZM253.271 143.514C252.931 143.269 248.264 139.72 247.979 139.506C246.653 138.503 244.969 138 243.198 138C239.926 138 238.042 138 235.802 138C234.169 138 233.238 138.2 232.047 138.828C231.655 139.035 227.453 141.244 224.342 142.899C221.736 144.283 220.088 146.076 218.949 148.46C215.836 154.972 212.51 162 212.51 162C212.51 162 217.733 162 219.225 162C220.882 162 222.038 161.308 222.654 160.021C222.899 159.51 224.365 156.451 225.971 153.101C230.38 153.101 237.661 153.101 241.354 153.101C240.224 155.469 239.165 157.685 238.399 159.289C237.723 160.704 238.458 162 240.258 162C241.416 162 246.292 162 246.292 162C246.292 162 253.396 147.121 253.77 146.358C254.422 145.034 254.343 144.29 253.271 143.514Z" fill="#0C0243"/>
<path fill-rule="evenodd" clip-rule="evenodd" d="M300.822 143.397C300.121 144.866 299.543 146.141 298.66 147.991C298.021 149.334 296.856 149.922 294.101 149.922C289.687 149.922 285.74 149.922 282.396 149.922C283.587 147.424 285.251 143.951 285.251 143.951C285.911 142.565 286.901 141.958 288.632 141.958H295.128C295.128 141.958 297.703 141.958 299.749 141.958C300.867 141.958 301.216 142.571 300.822 143.397ZM308.088 143.514C307.748 143.269 303.425 139.944 303.144 139.729C301.739 138.666 299.885 138 297.93 138C294.667 138 293.21 138 290.976 138C289.346 138 288.418 138.2 287.23 138.828C286.838 139.035 283 141.054 279.896 142.709C276.825 144.344 275.367 145.907 274.068 148.63C270.961 155.142 267.735 162 267.735 162C267.735 162 272.948 162 274.435 162C276.091 162 277.243 161.308 277.857 160.021C278.129 159.453 279.902 155.797 281.422 152.608C281.422 152.608 282.492 152.609 285.323 152.61C287.181 152.61 287.824 153.186 288.572 154.458C289.98 156.859 291.579 159.563 291.849 160.021C292.732 161.52 293.511 162 295.493 162C296.981 162 303.141 162 303.141 162C303.141 162 301.156 158.777 298.883 154.902C298.527 154.295 298.118 153.873 296.978 153.683C296.63 153.625 295.199 153.387 293.705 153.138L293.775 152.612C296.672 152.613 299.126 152.613 299.969 152.613C304.158 152.613 306.022 151.694 306.929 149.922C307.357 149.084 308.466 146.6 308.585 146.358C309.237 145.034 309.157 144.29 308.088 143.514Z" fill="#0C0243"/>
</svg>
