<svg width="400" height="300" viewBox="0 0 400 300" fill="none" xmlns="http://www.w3.org/2000/svg">
<rect width="400" height="300" fill="#FAFAFA"/>
<path d="M183.573 143.467L179.467 147.573C182.267 150.373 183.2 151.68 183.387 152.987C183.573 152.8 187.307 149.627 187.307 148.507C187.307 146.827 186.187 146.267 183.573 143.467ZM142.133 168.667H128.133C128.133 168.667 130.56 170.72 130.56 175.013V191.813C130.56 196.107 132.24 196.107 132.24 196.107H145.867C149.04 196.107 149.973 193.867 149.973 192.747V191.067C149.973 191.067 149.04 193.12 144.933 193.12H138.4C136.347 193.12 136.533 191.44 136.347 189.947V180.613H141.013C142.507 180.613 144 180.8 145.493 181.547C145.493 181.547 144 177.813 139.333 177.813H136.347V174.827C136.347 174.827 136.347 172.213 135.787 171.467H140.08C143.813 171.467 146.613 171.467 149.6 173.333C149.787 173.707 149.227 168.667 142.133 168.667ZM163.787 174.08C159.307 174.08 158.187 178.373 158.187 178.373C158.187 178.373 158 174.267 154.453 174.267H150.907C150.907 174.267 152.96 175.013 152.96 178.56V191.627C152.96 195.92 154.64 196.107 154.64 196.107H160.427C160.24 196.107 158.187 194.427 158.187 191.627V180.053C158.187 179.493 159.12 177.813 161.547 177.813C163.04 177.813 164.533 179.307 164.533 180.987V191.813C164.533 196.293 166.213 196.293 166.213 196.293H172C172 196.293 169.76 194.8 169.76 191.813V180.24C169.947 179.68 170.693 178 172.933 178C174.613 178 176.107 179.493 176.107 181.173V192C176.107 196.293 177.787 196.293 177.787 196.293H183.573C183.573 196.293 181.333 194.8 181.333 191.813V180.053C181.333 175.387 177.6 174.267 174.8 174.267C171.067 174.267 169.947 177.44 169.573 178.373C169.013 175.387 166.213 174.08 163.787 174.08ZM188.053 174.267H184.507C184.507 174.267 186.56 175.2 186.56 178.56V191.627C186.56 195.92 188.24 195.92 188.24 195.92H194.027C194.027 195.92 191.787 194.427 191.787 191.44V178.933C191.787 174.267 189.173 174.267 188.053 174.267ZM198.32 174.267H194.773C194.773 174.267 196.827 175.013 196.827 178.56V191.627C196.827 195.92 198.507 196.107 198.507 196.107H204.293C204.107 196.107 202.053 194.427 202.053 191.627V180.8C202.24 179.867 202.8 179.12 203.547 178.56C204.293 178 205.227 177.813 206.16 177.813C207.467 177.813 208.773 178.373 209.707 179.493V175.76C209.707 175.76 209.147 174.267 206.72 174.267C203.173 174.267 202.24 178.56 202.24 178.56C201.867 175.2 200.933 174.267 198.32 174.267ZM235.093 169.227C235.093 169.227 233.787 171.467 231.173 173.52C229.493 174.827 226.133 176.507 226.133 176.507H229.867V191.813C229.867 196.107 231.547 196.107 231.547 196.107H237.333C237.333 196.107 235.093 194.613 235.093 191.813V176.693H236.587C238.453 176.693 239.947 177.627 239.947 177.627V174.267H235.093V169.227ZM249.467 174.267C243.493 174.267 240.32 179.867 240.32 185.84C240.32 191.813 244.24 196.293 249.84 196.293C254.507 196.293 256 194.613 256 194.613V191.067C254.693 193.307 253.013 193.867 251.52 193.867C250.679 193.865 249.85 193.673 249.093 193.307C246.48 192.187 246.107 188.827 246.107 188.827C248.16 186.4 250.773 186.96 253.947 183.413C258.427 178.933 255.253 174.267 249.467 174.267ZM245.92 186.4C245.92 186.4 245.173 176.32 248.907 175.947H249.093C252.08 175.947 251.333 180.24 250.4 181.92C249.093 184.72 247.227 184.907 245.92 186.4ZM189.173 167.173C187.68 167.173 186.56 168.293 186.56 169.787C186.56 171.28 187.68 172.4 189.173 172.4C190.667 172.4 191.787 171.28 191.787 169.787C191.787 168.293 190.667 167.173 189.173 167.173ZM217.547 174.267C214.187 174.267 212.133 175.947 212.133 175.947V179.68C212.133 179.68 213.253 176.693 216.427 176.693C219.413 176.693 219.6 178.187 219.6 178.933C219.6 178.933 219.973 179.867 219.227 181.173C217.92 183.6 207.467 183.973 208.96 192.187C209.52 195.36 211.76 196.293 214.373 196.293C216.987 196.293 218.48 194.987 219.227 193.68C219.6 196.107 220.907 196.293 220.907 196.293H226.693C226.693 196.293 224.453 194.8 224.453 192V179.68C224.267 176.507 221.093 174.267 217.547 174.267ZM215.68 193.68C214.373 193.68 213.44 192.373 213.44 190.88C213.44 185.467 217.92 184.72 219.04 183.227V192.373C218.48 192.933 217.92 193.68 215.68 193.68ZM264.96 174.08C261.413 174.08 258.427 176.32 258.427 179.307C258.427 181.92 259.547 183.6 261.6 185.093L264.587 186.96C266.267 187.893 266.827 189.013 266.827 190.133C266.827 191.627 265.52 193.68 262.533 193.68C259.547 193.68 258.24 190.507 258.24 190.507V194.427C258.24 194.427 260.48 195.92 263.653 195.92C267.573 195.92 271.68 192.933 271.493 188.827C271.493 187.333 270.933 186.027 270.187 185.093C268.88 183.227 266.453 182.107 264.587 180.8C263.467 180.053 262.907 178.933 262.907 178.56C262.907 177.813 263.28 176.32 266.267 176.32C269.067 176.32 270.373 179.307 270.373 179.307V175.573C270.373 175.947 268.32 174.08 264.96 174.08ZM174.24 136.187H172C172 136.187 174.24 137.493 174.24 140.48V150.56C174.24 157.093 179.653 163.253 186.187 163.253H191.6C194.96 163.253 196.08 162.507 197.947 160.64L200 158.587C201.12 157.28 202.427 156.347 202.427 152.8V149.44C202.427 146.64 200.747 145.333 200 144.587L198.133 142.72V149.44C198.133 149.44 199.44 150.933 200.187 151.307C202.987 153.547 200.747 157.467 198.133 157.467H186.187H186C180.4 157.28 175.92 152.613 175.733 147.013V141.6C175.733 136.187 174.24 136.187 174.24 136.187ZM191.787 143.467L187.68 147.573C190.48 150.373 191.413 151.68 191.6 152.987C191.787 152.8 195.52 149.627 195.52 148.507C195.52 146.827 194.4 146.08 191.787 143.467ZM200.187 97.36L197.387 100.16C196.267 101.28 196.64 103.52 198.88 105.76V111.36C198.88 111.92 198.32 112.48 198.32 112.48C198.32 112.48 194.96 109.493 191.973 109.493H187.493C184.693 109.493 182.453 112.107 182.08 112.293C180.587 113.787 180.587 116.587 181.707 117.893L184.88 121.067C184.88 121.067 184.133 116.027 184.88 112.667C185.067 111.92 186 110.987 186.933 110.987L194.213 116.587L185.813 125.36C185.44 125.733 184.32 126.48 183.2 126.48C181.893 126.48 181.333 125.733 180.773 124.987V129.093C180.773 130.4 182.64 131.893 184.32 131.893H195.52C196.267 131.893 197.2 131.707 197.947 130.96L201.68 127.227C202.24 126.667 202.427 125.92 202.427 124.987V120.693C202.427 116.587 199.253 113.413 199.253 113.413C199.253 113.413 200 112.853 200 111.173V106.88C200 106.88 201.307 108.187 201.493 108.747L203.92 106.32C205.04 105.2 203.173 103.147 202.427 102.213C200.187 99.7867 200.187 97.36 200.187 97.36ZM186.187 126.853C187.307 126.293 187.493 125.92 188.427 124.8L195.52 117.333C195.52 117.333 199.44 121.44 200.747 123.68C201.307 124.8 202.053 126.853 198.693 126.853H186.187ZM176.667 118.267H174.613C175.92 119.013 176.853 121.253 176.853 122.56V130.773C176.853 133.013 178.533 141.04 185.813 141.04H206.907V154.48C206.907 156.72 206.16 158.027 205.6 158.587L202.427 161.573H203.92L209.707 156.347C210.827 155.04 212.133 153.733 212.133 149.627V141.04L214.56 138.613L218.667 134.693C218.667 138.053 220.347 139.547 221.84 139.547C222.67 139.494 223.458 139.165 224.08 138.613L227.813 135.067C229.493 133.387 230.427 128.16 226.32 128.16C223.707 128.16 220.72 131.893 220.533 132.267C219.6 131.707 218.853 130.4 218.853 130.4V133.573C218.48 134.133 216.8 135.44 215.493 135.44H212.133V132.267C212.133 130.773 212.693 129.093 213.44 128.347L216.613 125.36H215.12L208.773 131.147C207.653 132.453 206.907 134.88 206.907 135.44H183.013C180.027 135.44 178.16 132.453 178.16 130.027V123.867C178.16 118.827 176.853 118.267 176.667 118.267ZM225.013 136.187C224.453 136.187 223.893 136 223.147 135.44C222.4 134.88 221.093 133.013 221.093 133.013C221.467 132.64 222.587 132.267 223.52 132.267C224.267 132.267 225.013 132.453 225.2 132.827C226.507 134.507 226.32 136.187 225.013 136.187ZM215.12 97.36L208.773 103.147C208.4 103.52 206.907 105.76 206.907 108.373V124.987C206.907 126.107 206.16 127.787 205.6 128.347L202.427 131.333H203.92L209.893 125.92C210.64 125.173 212.133 123.307 212.133 120.133V104.267C212.133 101.84 213.253 100.533 213.813 99.9733L216.613 97.36H215.12ZM216.053 139.92V146.453L218.293 148.88C220.16 150.747 219.973 154.293 214.373 159.707C212.382 161.841 209.636 163.114 206.72 163.253H196.64L202.613 168.48H206.72C210.827 168.48 214.56 166.8 216.987 164.187C219.227 161.76 220.533 158.587 220.347 155.227V146.64C220.347 143.653 218.48 141.973 218.107 141.6C217.733 141.6 216.053 139.92 216.053 139.92Z" fill="#D71921"/>
</svg>
