<svg width="400" height="300" viewBox="0 0 400 300" fill="none" xmlns="http://www.w3.org/2000/svg">
<rect width="400" height="300" fill="#FAFAFA"/>
<g clip-path="url(#clip0_150_4114)">
<path d="M198.475 121.609H201.676V118.405H204.878V115.204H201.676V112H198.475V115.204H195.274V118.405H198.475V121.609ZM219.185 120.808C218.45 120.807 217.721 120.951 217.041 121.232C216.361 121.513 215.743 121.926 215.222 122.447C214.702 122.967 214.289 123.586 214.008 124.266C213.726 124.947 213.581 125.676 213.582 126.413C213.581 127.15 213.726 127.879 214.008 128.56C214.289 129.24 214.702 129.859 215.222 130.379C215.743 130.9 216.361 131.313 217.041 131.594C217.721 131.875 218.45 132.019 219.185 132.018C219.921 132.019 220.649 131.874 221.329 131.593C222.009 131.312 222.627 130.899 223.147 130.379C223.667 129.858 224.08 129.24 224.361 128.559C224.643 127.879 224.787 127.149 224.787 126.413C224.787 125.676 224.643 124.947 224.361 124.267C224.08 123.586 223.667 122.968 223.147 122.447C222.627 121.927 222.009 121.514 221.329 121.233C220.649 120.951 219.921 120.807 219.185 120.808ZM180.917 140.024H219.185V133.618H180.917V140.024ZM186.518 126.413C186.518 123.31 184.018 120.808 180.966 120.808C180.23 120.807 179.502 120.951 178.822 121.232C178.142 121.513 177.524 121.926 177.003 122.447C176.483 122.967 176.07 123.586 175.788 124.266C175.507 124.947 175.362 125.676 175.363 126.413C175.362 127.15 175.507 127.879 175.788 128.56C176.07 129.24 176.483 129.859 177.003 130.379C177.524 130.9 178.142 131.313 178.822 131.594C179.502 131.875 180.23 132.019 180.966 132.018C184.018 132.018 186.518 129.514 186.518 126.413ZM200.875 126.413C200.874 127.15 201.019 127.879 201.301 128.56C201.582 129.24 201.995 129.859 202.515 130.379C203.036 130.9 203.654 131.313 204.334 131.594C205.014 131.875 205.743 132.019 206.478 132.018C209.579 132.018 212.03 129.514 212.03 126.413C212.03 123.312 209.53 120.808 206.478 120.808C205.743 120.807 205.014 120.951 204.334 121.232C203.654 121.513 203.036 121.926 202.515 122.447C201.995 122.967 201.582 123.586 201.301 124.266C201.019 124.947 200.874 125.676 200.875 126.413ZM193.673 132.018C195.156 132.012 196.577 131.42 197.626 130.37C198.676 129.32 199.268 127.898 199.274 126.413C199.275 125.676 199.13 124.947 198.849 124.267C198.568 123.586 198.155 122.968 197.635 122.447C197.114 121.927 196.497 121.514 195.817 121.233C195.137 120.951 194.409 120.807 193.673 120.808C192.937 120.807 192.209 120.951 191.529 121.232C190.849 121.513 190.231 121.926 189.71 122.447C189.19 122.967 188.777 123.586 188.495 124.266C188.214 124.947 188.069 125.676 188.07 126.413C188.119 129.516 190.572 132.018 193.673 132.018ZM235.143 146.429L230.341 160.842L225.537 146.429H209.579V172H219.134V152.785L225.537 171.951H235.092L241.445 152.785V171.951H251V146.378H235.143V146.429ZM190.472 146.429H180.917V172H206.429V165.546H190.47V146.429H190.472ZM177.715 146.429H168.161L158.555 156.037V146.429H149V172H158.555V162.393L168.161 172H180.917L166.56 157.589L177.715 146.429Z" fill="#00A1DE"/>
</g>
<defs>
<clipPath id="clip0_150_4114">
<rect width="102" height="60" fill="white" transform="translate(149 112)"/>
</clipPath>
</defs>
</svg>
