<svg width="400" height="300" viewBox="0 0 400 300" fill="none" xmlns="http://www.w3.org/2000/svg">
<rect width="400" height="300" fill="#FAFAFA"/>
<path d="M322 160.652V146.78C322 140.956 318.601 138.903 312.433 138.903C306.181 138.903 303.16 141.292 302.908 145.777H309.076C309.161 144.602 309.832 143.722 312.433 143.722C314.74 143.722 315.832 144.476 315.832 145.609C315.832 146.615 315.201 146.991 313.649 147.16L309.621 147.577C304.166 148.165 301.691 150.427 301.691 154.534C301.691 158.347 304.041 161.281 309.034 161.281C312.431 161.281 314.448 160.192 316.209 158.012V160.652H322ZM315.957 152.439C315.957 154.743 313.775 156.462 310.419 156.462C308.782 156.462 307.817 155.707 307.817 154.282C307.817 153.194 308.49 152.271 310.629 151.978L314.28 151.475C314.908 151.391 315.58 151.266 315.957 151.14V152.439ZM287.508 145.441C287.508 144.519 288.307 143.807 290.405 143.807C292.544 143.807 293.216 144.561 293.426 145.777H299.594C299.299 141.207 296.195 138.903 290.405 138.903C284.153 138.903 281.173 141.879 281.173 145.902C281.173 150.093 283.858 151.895 288.517 152.522L290.74 152.817C292.922 153.111 293.762 153.612 293.762 154.702C293.762 155.876 292.754 156.462 290.279 156.462C287.844 156.462 286.754 155.707 286.586 154.157H280.335C280.46 158.389 283.02 161.281 290.279 161.281C296.95 161.281 300.098 158.641 300.098 154.198C300.098 149.799 297.412 148.122 292.041 147.41L289.816 147.117C288.013 146.865 287.508 146.362 287.508 145.441ZM272.34 160.652H278.675V148.29C278.675 141.334 275.864 138.903 270.366 138.903C266.969 138.903 265.165 140.327 264.284 141.962V139.531H258.325V160.651H264.661V148.584C264.661 145.778 266.087 144.52 268.48 144.52C271.123 144.52 272.341 145.778 272.341 148.584V160.653L272.34 160.652ZM249.926 160.652H255.717V146.78C255.717 140.956 252.318 138.903 246.15 138.903C239.898 138.903 236.878 141.292 236.626 145.777H242.794C242.877 144.602 243.549 143.722 246.15 143.722C248.457 143.722 249.549 144.476 249.549 145.609C249.549 146.615 248.92 146.991 247.367 147.16L243.34 147.577C237.885 148.164 235.409 150.427 235.409 154.534C235.409 158.347 237.758 161.281 242.751 161.281C246.15 161.281 248.165 160.192 249.926 158.012V160.652ZM249.676 152.439C249.676 154.743 247.493 156.462 244.136 156.462C242.5 156.462 241.534 155.707 241.534 154.282C241.534 153.194 242.206 152.271 244.346 151.978L247.997 151.475C248.626 151.39 249.298 151.266 249.676 151.14V152.439ZM227.183 160.652H233.521V148.29C233.521 141.334 230.709 138.903 225.339 138.903C222.359 138.903 220.639 140.035 219.549 141.585V131.361H213.17V160.652H219.506V148.582C219.506 145.775 220.932 144.518 223.324 144.518C225.967 144.518 227.185 145.775 227.185 148.582V160.651L227.183 160.652ZM208.29 161.028C209.843 161.028 211.311 160.694 211.311 160.694V155.623C211.311 155.623 210.262 155.749 209.507 155.749C207.66 155.749 206.485 155.162 206.485 152.901V144.686H211.311V139.532H206.485V133.372H200.15V139.532H196.961V144.686H200.15V153.613C200.15 158.724 203.214 161.028 208.29 161.028ZM190.667 144.686H195.324V139.532H190.666V138.694C190.666 136.85 191.716 136.18 193.688 136.18C194.444 136.18 195.324 136.263 195.324 136.263V131.151C195.324 131.151 194.276 130.9 192.639 130.9C187.562 130.9 184.332 133.623 184.332 138.735V139.532H181.144V144.686H184.332V160.652H190.666L190.667 144.686ZM173.506 160.652H179.464V139.532H173.129V151.601C173.129 154.409 171.703 155.665 169.394 155.665C166.834 155.665 165.617 154.407 165.617 151.601V139.532H159.282V151.894C159.282 158.849 162.094 161.28 167.506 161.28C170.822 161.28 172.624 159.855 173.506 158.22V160.652ZM138.428 160.652H157.856V154.742H145.226V131.319H138.428V160.652ZM109.057 146C109.057 133.812 99.2323 124 87.0285 124C74.8688 124 65 133.812 65 146C65 158.144 74.8688 168 87.0285 168C99.2323 168 109.057 158.144 109.057 146ZM107.471 146C107.471 157.22 98.3072 166.416 87.0285 166.416C75.794 166.416 66.5861 157.221 66.5861 146C66.5861 134.736 75.794 125.584 87.0285 125.584C98.3072 125.584 107.471 134.736 107.471 146ZM94.8266 144.68C94.342 144.68 93.7252 144.68 92.9322 144.724L93.5049 143.756H94.4301C97.7344 143.756 100.202 143.932 102.449 144.328L103.462 143.36C100.951 142.92 97.9106 142.656 94.8266 142.656H94.0777L94.5623 141.732H95.3994C98.6155 141.732 101.523 141.996 104.343 142.524L105.4 141.512C102.228 140.896 98.8358 140.589 95.1791 140.589C93.6199 140.594 92.0618 140.668 90.509 140.809C88.7468 144.592 85.9271 146.793 82.755 146.749C81.5214 146.704 79.9782 146.177 77.9968 145.12L76.1464 144.064L76.7192 143.536L80.9927 145.384L81.9179 144.68L73.2827 140.764L71.961 141.776L68.877 140.5L68.9211 141.776C73.0624 143.668 74.7807 144.724 79.1423 147.848C84.8257 151.896 89.8922 154.096 96.9414 155.504L98.7918 153.744H98.3512C93.6812 153.744 89.4957 152.204 87.0726 149.608C89.0992 148.376 91.6093 147.805 95.091 147.805C96.0162 147.805 97.3379 147.892 98.5715 148.024L99.6289 147.012C97.977 146.811 96.3145 146.708 94.6504 146.704C93.533 146.702 92.4159 146.746 91.3021 146.836L92.0951 145.868C93.034 145.812 93.9742 145.783 94.9148 145.78C97.2498 145.78 98.7918 145.868 100.554 146.132L101.567 145.164C99.717 144.857 97.1617 144.68 94.8266 144.68Z" fill="#05164D"/>
</svg>
