<svg width="400" height="300" viewBox="0 0 400 300" fill="none" xmlns="http://www.w3.org/2000/svg">
<rect width="400" height="300" fill="#FAFAFA"/>
<g clip-path="url(#clip0_150_3978)">
<path fill-rule="evenodd" clip-rule="evenodd" d="M139.169 169.951C138.762 169.977 138.363 170 137.957 170C137.494 170 137.046 169.962 136.576 169.951L137.927 166.698L139.169 169.951ZM140.663 173.641C140.904 173.629 141.273 173.566 141.642 173.566C142.011 173.566 142.478 173.629 142.677 173.641C142.079 172.363 141.21 170.367 140.701 169.21C140.227 168.102 139.433 166.247 138.797 164.444C138.661 164.486 138.519 164.509 138.376 164.512C138.227 164.511 138.079 164.488 137.937 164.444C137.233 166.417 136.426 168.351 135.52 170.239L133.985 173.645C134.181 173.606 134.379 173.581 134.579 173.57C134.793 173.582 135.007 173.607 135.219 173.645C135.518 172.671 135.87 171.713 136.272 170.777C136.798 170.751 137.333 170.723 137.867 170.723C138.432 170.723 138.984 170.749 139.557 170.777L140.113 172.181L140.663 173.641Z" fill="#788490"/>
<path d="M143.841 167.626C143.841 169.89 143.841 172.073 143.697 173.642C143.985 173.631 144.363 173.567 144.648 173.567C144.934 173.567 145.269 173.631 145.571 173.642C145.473 172.579 145.439 171.149 145.439 169.173C145.406 167.641 145.454 166.11 145.584 164.584C145.271 164.623 144.957 164.647 144.642 164.656C144.451 164.656 143.954 164.611 143.701 164.584C143.802 165.595 143.846 166.61 143.833 167.626" fill="#788490"/>
<path fill-rule="evenodd" clip-rule="evenodd" d="M151.713 169.147C152.334 169.1 152.914 168.823 153.341 168.37C153.768 167.918 154.01 167.322 154.019 166.701C154.021 166.427 153.969 166.156 153.865 165.902C153.761 165.649 153.608 165.419 153.414 165.225C153.131 164.979 152.799 164.795 152.441 164.684C152.083 164.572 151.705 164.537 151.333 164.579C151.024 164.579 149.489 164.64 149.151 164.64C148.707 164.642 148.263 164.622 147.822 164.579C147.92 166.284 147.92 166.464 147.92 168.2C147.92 170.742 147.905 171.031 147.796 173.638C148.1 173.594 148.407 173.569 148.714 173.563C149.045 173.563 149.335 173.616 149.602 173.638C149.602 173.293 149.548 171.591 149.548 171.208V169.331H149.861C150.582 170.338 151.4 171.506 152.073 172.546C152.272 172.854 152.571 173.341 152.765 173.642C153.119 173.585 153.478 173.56 153.837 173.567C154.231 173.57 154.624 173.595 155.015 173.642C154.183 172.602 153.821 172.136 152.777 170.676C152.573 170.388 152.288 169.957 152.085 169.685L151.713 169.148M149.551 165.291C149.747 165.273 150.236 165.231 150.484 165.231C150.919 165.2 151.352 165.315 151.714 165.558C151.917 165.72 152.075 165.931 152.173 166.17C152.271 166.41 152.306 166.671 152.275 166.928C152.293 167.171 152.258 167.415 152.173 167.644C152.089 167.872 151.956 168.08 151.784 168.253C151.613 168.426 151.406 168.561 151.178 168.648C150.95 168.735 150.706 168.772 150.462 168.757C150.119 168.757 149.803 168.731 149.551 168.715V165.291Z" fill="#788490"/>
<path d="M158.612 170.548C157.991 168.715 157.126 166.139 156.715 164.584C156.41 164.629 156.102 164.653 155.793 164.656C155.473 164.656 155.022 164.611 154.758 164.584C155.296 166.011 155.767 167.269 156.12 168.279C156.734 169.995 157.129 171.189 157.61 172.639L157.938 173.646C158.116 173.606 158.297 173.581 158.479 173.572C158.65 173.575 158.82 173.6 158.984 173.646C159.191 172.959 159.444 172.122 159.631 171.566C160.147 170.064 160.207 169.862 160.892 167.984L161.287 166.88C161.431 167.304 161.686 167.984 161.829 168.397C161.971 168.81 162.653 170.831 162.807 171.286C163.029 171.883 163.067 172.044 163.56 173.648C163.75 173.612 163.943 173.587 164.136 173.573C164.313 173.58 164.49 173.605 164.662 173.648C165.167 172.078 165.216 171.922 165.959 169.798C166.693 167.74 167.144 166.569 167.935 164.589C167.742 164.636 167.543 164.66 167.344 164.661C167.137 164.66 166.932 164.636 166.73 164.589C166.252 166.298 166.01 167.131 165.639 168.269C165.018 170.113 164.932 170.335 164.555 171.338C164.123 170.204 163.717 169.047 163.336 167.885C163.114 167.251 162.313 164.614 162.306 164.588C162.112 164.633 161.914 164.657 161.715 164.66C161.521 164.653 161.328 164.629 161.138 164.588C160.739 166.192 159.34 170.082 159.201 170.438L158.874 171.302L158.622 170.555" fill="#788490"/>
<path fill-rule="evenodd" clip-rule="evenodd" d="M171.969 169.951C171.555 169.977 171.168 170 170.754 170C170.287 170 169.836 169.962 169.373 169.951L170.728 166.698L171.969 169.951ZM173.466 173.635C173.703 173.623 174.08 173.56 174.441 173.56C174.801 173.56 175.284 173.623 175.475 173.635C174.884 172.357 174.004 170.361 173.5 169.204C173.021 168.097 172.231 166.241 171.591 164.438C171.458 164.481 171.318 164.504 171.178 164.506C171.029 164.505 170.881 164.483 170.738 164.438C170.414 165.523 169.647 167.239 168.316 170.228L166.785 173.635C166.98 173.597 167.177 173.572 167.376 173.56C167.591 173.572 167.804 173.597 168.016 173.635C168.317 172.661 168.67 171.703 169.074 170.766C169.597 170.741 170.127 170.713 170.659 170.713C171.227 170.713 171.776 170.739 172.345 170.766L172.91 172.17L173.466 173.635Z" fill="#788490"/>
<path d="M179.024 170.1C179.047 169.951 179.103 169.808 179.189 169.683C179.754 168.73 180.269 167.734 180.855 166.776C181.059 166.468 182.026 164.932 182.229 164.582C182.049 164.636 181.863 164.66 181.675 164.654C181.414 164.651 181.154 164.627 180.897 164.582C180.236 166.118 179.473 167.607 178.613 169.042C177.48 167.078 176.98 166.034 176.3 164.582C175.94 164.634 175.577 164.658 175.213 164.654C174.925 164.654 174.619 164.628 174.118 164.582C174.81 165.724 175.938 167.553 176.62 168.714L177.398 170.059C177.398 170.882 177.356 172.612 177.319 173.641C177.567 173.618 177.933 173.566 178.195 173.566C178.499 173.566 178.809 173.619 179.113 173.641C179.064 172.416 179.022 171.699 179.022 170.584V170.099" fill="#788490"/>
<path d="M182.993 171.663C182.966 172.173 182.861 172.675 182.68 173.153C183.443 173.575 184.296 173.809 185.167 173.833C185.583 173.888 186.005 173.855 186.407 173.735C186.809 173.615 187.18 173.411 187.497 173.137C187.814 172.863 188.069 172.525 188.245 172.145C188.421 171.766 188.515 171.353 188.52 170.935C188.525 170.295 188.298 169.674 187.88 169.188C187.363 168.725 186.742 168.394 186.07 168.223C184.917 167.776 184.238 167.504 184.238 166.549C184.232 166.349 184.269 166.15 184.347 165.966C184.425 165.782 184.541 165.617 184.689 165.482C184.836 165.346 185.011 165.244 185.201 165.182C185.391 165.12 185.593 165.099 185.791 165.122C186.168 165.086 186.546 165.18 186.861 165.39C187.176 165.6 187.409 165.911 187.521 166.272H187.711C187.808 165.843 187.947 165.425 188.125 165.022C187.447 164.665 186.693 164.477 185.927 164.474C183.526 164.474 182.838 165.962 182.838 167.121C182.806 167.644 182.954 168.161 183.258 168.588C183.562 169.014 184.004 169.324 184.509 169.465C184.873 169.608 185.502 169.863 185.875 170.013C186.245 170.147 186.554 170.409 186.746 170.751C186.938 171.093 187.001 171.493 186.922 171.878C186.844 172.262 186.63 172.606 186.319 172.846C186.008 173.086 185.621 173.207 185.228 173.186C184.45 173.186 183.787 172.983 183.166 171.668H182.988" fill="#788490"/>
<path fill-rule="evenodd" clip-rule="evenodd" d="M109.443 147.245C109.443 137.256 114.804 134.567 118.86 134.567C125.368 134.567 128.19 139.956 128.19 145.701C128.389 148.795 127.685 151.879 126.164 154.582C125.384 155.8 124.311 156.804 123.043 157.502C121.774 158.2 120.351 158.57 118.903 158.578C111.553 158.578 109.444 151.601 109.444 147.236M129.226 167.664C130.623 166.715 132.099 165.89 133.639 165.196L124.657 159.642C130.177 157.705 133.635 152.789 133.635 146.097C133.635 136.581 126.365 132.536 118.934 132.536C110.91 132.536 103.995 136.975 103.995 147.035C103.953 150.601 105.326 154.04 107.814 156.6C109.268 157.994 110.997 159.07 112.891 159.758C114.786 160.447 116.803 160.732 118.815 160.596C119.247 160.596 119.688 160.596 120.123 160.559L129.226 167.664Z" fill="#63003C"/>
<path fill-rule="evenodd" clip-rule="evenodd" d="M152.164 148.984C150.923 149.066 149.737 149.142 148.508 149.142C147.116 149.142 145.77 149.03 144.385 148.984L148.42 139.235L152.16 148.984M156.645 160.048C157.352 160.006 158.474 159.808 159.576 159.808C160.679 159.808 162.09 160.006 162.676 160.048C160.896 156.198 158.275 150.217 156.767 146.762C155.333 143.434 152.948 137.884 151.049 132.454C150.21 132.724 149.306 132.724 148.467 132.454C147.512 135.709 145.202 140.858 141.195 149.819L136.583 160.048C137.175 159.92 137.776 159.839 138.381 159.806C139.023 159.84 139.661 159.92 140.292 160.046C141.193 157.124 142.251 154.252 143.462 151.443C145.047 151.361 146.646 151.284 148.218 151.284C149.926 151.284 151.596 151.359 153.301 151.443L154.972 155.645L156.645 160.048Z" fill="#63003C"/>
<path d="M174.271 139.949C174.271 138.443 174.315 136.936 174.357 135.507C177.095 135.507 179.903 135.544 182.25 135.794C182.137 135.326 182.071 134.848 182.052 134.367C182.078 133.86 182.144 133.355 182.25 132.858C178.436 133.057 174.944 133.098 171.64 133.098C168.592 133.098 164.188 133.057 161.038 132.858C161.167 133.335 161.237 133.826 161.245 134.32C161.24 134.816 161.173 135.309 161.046 135.788C163.074 135.59 166.893 135.501 167.253 135.501H169.229C169.278 137.052 169.316 138.437 169.316 139.903L169.353 150.962C169.353 153.974 169.113 157.034 168.951 160.042C169.846 159.916 170.746 159.835 171.649 159.802C172.128 159.802 173.41 159.918 174.565 160.042C174.347 158.241 174.25 156.426 174.276 154.612V139.939" fill="#63003C"/>
<path fill-rule="evenodd" clip-rule="evenodd" d="M196.376 148.984C195.145 149.066 193.956 149.142 192.726 149.142C191.331 149.142 189.988 149.03 188.592 148.984L192.636 139.235L196.376 148.984ZM200.861 160.048C201.581 160.006 202.692 159.808 203.811 159.808C204.929 159.808 206.308 160.006 206.899 160.048C205.119 156.198 202.489 150.217 200.99 146.762C199.561 143.434 197.171 137.884 195.276 132.454C194.863 132.582 194.433 132.65 194.001 132.657C193.553 132.652 193.109 132.584 192.68 132.454C191.739 135.709 189.429 140.858 185.423 149.819L180.811 160.048C181.397 159.922 181.992 159.841 182.591 159.808C183.232 159.841 183.869 159.921 184.499 160.048C185.41 157.127 186.471 154.256 187.678 151.444C189.263 151.362 190.857 151.286 192.448 151.286C194.156 151.286 195.826 151.361 197.534 151.444L199.2 155.646L200.861 160.048Z" fill="#63003C"/>
<path fill-rule="evenodd" clip-rule="evenodd" d="M222.892 146.566C226.511 145.897 229.8 143.633 229.8 139.229C229.81 138.405 229.654 137.588 229.341 136.825C229.029 136.063 228.566 135.37 227.98 134.79C226.275 133.16 224.326 132.845 221.754 132.845C220.828 132.845 216.231 133.044 215.189 133.044C213.863 133.048 212.538 132.981 211.22 132.845C211.498 137.961 211.498 138.516 211.498 143.709C211.498 151.355 211.456 152.227 211.145 160.041C212.051 159.897 212.966 159.817 213.883 159.801C214.774 159.832 215.662 159.913 216.544 160.041C216.544 159.012 216.382 153.897 216.382 152.744V147.117H217.338C219.482 150.138 221.95 153.629 223.974 156.755C224.568 157.667 225.446 159.14 226.037 160.052C227.1 159.88 228.176 159.8 229.254 159.812C230.436 159.819 231.617 159.9 232.79 160.052C230.281 156.916 229.212 155.535 226.074 151.133C225.483 150.303 224.603 148.993 224.016 148.163L222.895 146.58M216.382 135.006C216.985 134.973 218.455 134.81 219.208 134.81C220.513 134.731 221.807 135.079 222.895 135.801C223.502 136.29 223.974 136.924 224.267 137.645C224.56 138.366 224.664 139.149 224.57 139.921C224.62 140.65 224.514 141.381 224.258 142.066C224.002 142.75 223.603 143.372 223.086 143.89C222.57 144.407 221.949 144.809 221.264 145.067C220.58 145.326 219.848 145.435 219.118 145.388C218.09 145.388 217.135 145.309 216.379 145.276L216.382 135.006Z" fill="#63003C"/>
<path d="M194.344 172.215H192.725C192.725 172.215 192.496 171.208 193.087 170.825C193.491 170.572 193.911 170.345 194.344 170.145V172.214M202.101 168.455C201.528 168.787 200.981 169.165 200.469 169.585C199.855 170.141 200.613 170.348 200.613 170.348V172.211H195.874V165.691C195.874 165.691 194.145 167.274 193.977 167.489C193.81 167.705 194.391 167.914 194.391 167.914L194.293 168.527C193.77 168.812 193.262 169.124 192.771 169.462C191.947 170.01 191.33 170.723 191.33 171.215C191.33 171.707 191.115 173.645 191.115 173.645H202.101V168.455ZM192.301 166.074C192.839 166.074 193.219 165.852 193.219 165.428C193.219 165.004 192.967 164.709 192.301 164.709C191.699 164.709 191.533 164.956 191.533 165.428C191.533 165.9 191.744 166.078 192.297 166.078L192.301 166.074ZM194.31 166.074C194.864 166.074 195.228 165.852 195.228 165.428C195.228 165.004 194.973 164.709 194.31 164.709C193.719 164.709 193.558 164.956 193.558 165.428C193.558 165.9 193.764 166.078 194.306 166.078L194.31 166.074ZM197.373 174.197C196.786 174.197 196.621 174.449 196.621 174.925C196.621 175.401 196.824 175.571 197.373 175.571C197.922 175.571 198.302 175.357 198.302 174.925C198.302 174.494 198.049 174.202 197.369 174.202L197.373 174.197ZM199.473 174.197C198.879 174.197 198.716 174.449 198.716 174.925C198.716 175.401 198.931 175.571 199.473 175.571C200.015 175.571 200.402 175.357 200.402 174.925C200.402 174.494 200.141 174.202 199.467 174.202L199.473 174.197ZM223.137 165.943C223.675 165.943 224.067 165.729 224.067 165.304C224.067 164.88 223.814 164.585 223.137 164.585C222.551 164.585 222.385 164.833 222.385 165.304C222.385 165.776 222.591 165.947 223.133 165.947L223.137 165.943ZM225.233 165.943C225.775 165.943 226.151 165.729 226.151 165.304C226.151 164.88 225.898 164.585 225.233 164.585C224.642 164.585 224.48 164.833 224.48 165.304C224.48 165.776 224.679 165.947 225.228 165.947L225.233 165.943ZM231.019 166.12C230.731 166.376 230.809 166.684 231.185 166.635V173.646H232.743V164.929C232.743 164.929 231.307 165.865 231.015 166.123L231.019 166.12ZM224.766 170.059H223.757C223.757 169.499 224.766 169.196 224.766 169.196V170.059ZM218.136 171.21C218.136 171.461 218.125 171.874 218.11 172.217H209.319V170.677C209.545 170.085 209.936 170.008 210.538 170.008H216.964C218.347 170.007 218.136 170.735 218.136 171.212V171.21ZM228.419 166.635V172.212H226.319V167.149C226.319 167.149 225.894 167.314 225.319 167.573C224.744 167.832 222.618 168.688 222.618 169.844V171.174H224.766V172.214H219.683C219.683 171.969 219.694 171.612 219.694 171.08C219.69 170.735 219.618 170.393 219.48 170.076C219.342 169.759 219.142 169.473 218.892 169.235C218.641 168.996 218.346 168.81 218.022 168.687C217.699 168.564 217.354 168.507 217.008 168.519H211.128C210.807 168.484 210.482 168.511 210.173 168.601C209.863 168.69 209.574 168.84 209.322 169.042V164.761C209.322 164.761 208.408 165.399 207.737 165.911C207.065 166.424 207.737 166.764 207.737 166.764V172.218H205.807L205.765 167.543L204.036 168.809C203.655 169.109 203.87 169.373 204.283 169.373C204.283 169.373 204.208 172.825 204.208 173.646C204.212 173.897 204.152 174.144 204.032 174.364C203.913 174.584 203.739 174.77 203.527 174.903C203.315 175.037 203.072 175.113 202.822 175.126C202.571 175.139 202.322 175.087 202.097 174.976C202.097 174.976 201.646 175.066 202.022 175.407C202.38 175.758 202.853 175.969 203.354 176C203.665 176.003 203.974 175.945 204.262 175.827C204.55 175.71 204.812 175.537 205.032 175.317C205.252 175.097 205.426 174.836 205.543 174.548C205.661 174.261 205.719 173.953 205.716 173.642H229.954V164.917C229.954 164.917 228.536 165.857 228.235 166.116C227.933 166.375 228.039 166.68 228.419 166.638V166.635Z" fill="#63003C"/>
<path d="M260.561 158.891C259.441 159.289 258.271 159.531 257.085 159.611C255.82 159.672 254.596 160.076 253.544 160.779C256.218 160.725 259.045 160.674 261.843 160.61C261.64 160.323 261.049 159.46 261.049 159.46C260.918 159.254 260.767 159.061 260.598 158.884L260.561 158.896M244.465 139.116C247.953 139.116 254.361 139.034 260.685 138.89C261.418 138.315 262.156 137.739 262.934 137.155C255.917 136.971 248.36 136.867 244.465 136.867C242.833 136.867 241.504 137.378 241.504 137.994C241.504 138.609 242.833 139.12 244.465 139.12M245.474 133.675C245.474 134.163 246.516 134.566 247.796 134.566C251.777 134.566 260.603 134.422 267.048 134.202C267.536 133.868 268.01 133.526 268.477 133.203C261.983 132.952 252.078 132.786 247.796 132.786C246.516 132.786 245.474 133.183 245.474 133.675ZM274.091 145.972C274.93 146.46 275.811 146.873 276.724 147.208C278.591 147.247 280.456 147.057 282.277 146.644C282.277 146.403 278.922 146.166 274.091 145.972ZM242.471 143.584C245.412 143.584 250.233 143.528 255.478 143.44C256.234 142.721 257.047 141.99 257.905 141.246C251.738 141.118 245.865 141.043 242.472 141.043C240.613 141.043 239.124 141.619 239.124 142.321C239.124 143.023 240.615 143.59 242.472 143.59M275.999 137.66C275.483 137.919 275.006 138.182 274.516 138.437C275.885 138.475 277.253 138.33 278.583 138.005C277.745 137.756 276.873 137.64 275.999 137.663M253.081 130.854C256.858 130.854 268.345 130.567 268.345 130.227C268.345 129.888 256.847 129.596 253.081 129.596C252.347 129.596 251.745 129.883 251.745 130.227C251.745 130.571 252.347 130.854 253.081 130.854ZM277.812 142.199C277.757 142.382 277.68 142.559 277.583 142.724C278.723 142.756 279.862 142.615 280.961 142.306C279.966 142.011 278.931 141.875 277.894 141.905L277.812 142.199ZM263.537 163.098C256.354 162.909 248.469 162.81 244.465 162.81C242.833 162.81 241.504 163.309 241.504 163.936C241.504 164.564 242.833 165.06 244.465 165.06C248.682 165.06 257.193 164.936 264.68 164.726C264.289 164.201 263.916 163.649 263.535 163.103M266.926 167.728C260.497 167.507 251.745 167.367 247.792 167.367C246.512 167.367 245.47 167.761 245.47 168.249C245.47 168.737 246.512 169.135 247.792 169.135C251.938 169.135 261.35 168.991 267.845 168.745C267.54 168.419 267.239 168.074 266.926 167.728ZM251.745 171.693C251.745 172.038 252.347 172.327 253.081 172.327C256.847 172.327 268.345 172.04 268.345 171.693C268.345 171.346 256.858 171.061 253.081 171.061C252.347 171.061 251.745 171.349 251.745 171.693ZM244.953 156.611C245.031 156.229 245.197 155.871 245.438 155.564C245.405 155.62 245.378 155.662 245.424 155.583C245.68 155.151 246.029 154.592 246.443 153.957C244.46 153.938 242.729 153.92 241.357 153.92C239.401 153.92 237.806 154.533 237.806 155.275C237.806 156.017 239.401 156.634 241.357 156.634C242.376 156.634 243.581 156.627 244.96 156.611M247.868 160.848C247.38 160.386 245.773 158.535 245.574 158.35C244.392 158.343 243.338 158.343 242.469 158.343C240.61 158.343 239.122 158.907 239.122 159.616C239.122 160.326 240.612 160.885 242.469 160.885C243.888 160.885 245.735 160.871 247.868 160.848ZM247.62 152.286C248.197 151.486 248.875 150.61 249.655 149.657C246.175 149.604 243.135 149.583 241.008 149.583C239.013 149.583 237.392 150.203 237.392 150.961C237.392 151.719 239.013 152.339 241.008 152.339C242.716 152.339 245 152.32 247.626 152.286M241.37 147.997C243.732 147.997 247.209 147.964 251.17 147.9C251.87 147.104 252.637 146.281 253.464 145.414C248.584 145.335 244.19 145.286 241.373 145.286C239.417 145.286 237.822 145.89 237.822 146.638C237.822 147.386 239.417 147.997 241.373 147.997" fill="#788490"/>
<path d="M282.646 149.938C282.672 150.628 282.672 151.312 282.634 151.973C275.941 152.24 269.602 152.645 269.602 153.088C269.602 153.531 275.799 153.937 282.408 154.203C282.291 154.954 282.141 155.705 281.969 156.437C275.453 156.712 269.403 157.102 269.403 157.538C269.403 157.974 275.054 158.342 281.291 158.608C281.016 159.398 280.693 160.17 280.324 160.921C274.948 161.184 270.515 161.522 270.515 161.898C270.515 162.25 274.398 162.574 279.282 162.826C279.004 163.264 278.717 163.705 278.417 164.12C278.102 164.563 277.763 165.011 277.387 165.447C274.336 165.683 272.236 165.943 272.236 166.216C272.236 166.49 273.745 166.694 276.055 166.897C274.704 168.23 273.185 169.384 271.537 170.329C270.18 169.139 268.916 167.847 267.755 166.465C266.239 164.61 263 159.724 262.244 158.628C261.489 157.532 260.976 157.215 260.083 157.535C259.115 157.875 258.106 158.088 257.083 158.169C256.651 158.169 256.413 158.001 257.132 157.719C259.219 156.86 260.953 155.323 262.054 153.356C263.612 150.266 262.243 146.006 262.243 146.006C262.044 147.211 261.437 148.312 260.524 149.124C260.735 148.202 260.748 147.246 260.562 146.319C260.376 145.393 259.995 144.516 259.444 143.746L258.868 146.428C258.868 146.428 258.487 146.409 257.585 147.172C257.024 147.666 256.625 148.318 256.441 149.042C257.148 149.329 257.999 148.617 257.999 148.617C257.184 151.838 255.904 154.924 254.198 157.776C253.484 159.077 252.343 160.093 250.967 160.654C250 161.041 249.687 160.59 249.687 160.59C248.914 159.925 248.201 159.194 247.554 158.405C247.554 158.405 247.501 158.312 247.678 158.319C248.157 158.326 248.984 157.523 249.176 157.185C249.372 156.805 249.36 156.505 249.248 156.486C249.135 156.467 248.959 156.782 248.07 157.349C247.152 157.925 246.739 157.526 246.449 157.205C246.212 156.954 246.437 156.641 246.593 156.443C246.728 156.266 251.503 147.38 264.132 138.05C280.695 125.808 291.263 122.506 291.864 122.266C292.27 122.108 292.922 121.902 293.071 122.052C293.149 122.111 293.21 122.189 293.25 122.279C293.289 122.368 293.306 122.465 293.298 122.563C293.272 122.758 293.174 122.866 292.406 123.197C286.169 126.154 280.153 129.555 274.405 133.373C270.826 135.196 267.381 137.27 264.096 139.58C263.697 139.825 263.984 140.182 264.24 140.038C272.98 134.218 283.247 130.256 294.588 127.015C295.137 126.861 295.431 126.861 295.529 126.982C295.614 127.117 295.664 127.272 295.673 127.432C295.687 127.642 295.529 127.756 295.059 127.936C282.869 132.453 273.886 136.651 268.109 140.527C268.109 140.527 267.506 140.891 267.495 141.304C267.495 141.458 267.822 141.484 267.822 141.484C270.719 141.528 274.587 141.701 276.423 141.815C276.423 141.815 276.156 142.742 274.405 143.489C273.165 143.925 271.847 144.095 270.537 143.988C270.467 143.981 270.397 143.995 270.336 144.029C270.274 144.062 270.225 144.114 270.194 144.176C270.162 144.239 270.151 144.309 270.161 144.379C270.17 144.448 270.201 144.512 270.249 144.564C270.361 144.707 273.014 148.968 282.643 149.941" fill="#63003C"/>
</g>
<defs>
<clipPath id="clip0_150_3978">
<rect width="192" height="60" fill="white" transform="translate(104 120)"/>
</clipPath>
</defs>
</svg>
