<svg width="160" height="160" viewBox="0 0 160 160" fill="none" xmlns="http://www.w3.org/2000/svg">
<g clip-path="url(#clip0_150_3736)">
<path d="M158.208 80.009C158.208 123.212 123.194 158.226 79.991 158.226C36.788 158.226 1.79187 123.194 1.79187 80.009C1.79187 36.8239 36.8059 1.79193 79.991 1.79193C123.176 1.79193 158.208 36.8059 158.208 80.009Z" fill="#231F20"/>
<path d="M31.7706 141.041C15.4642 128.176 5.14275 109.701 2.72366 89.0581C-2.27577 46.4643 28.3301 7.72309 70.9418 2.72365C113.554 -2.25787 152.295 28.3301 157.294 70.9418C159.713 91.5847 153.961 111.941 141.059 128.229C128.193 144.536 109.719 154.839 89.076 157.276C68.4331 159.695 48.0949 153.943 31.7706 141.059M70.673 0.555435C26.8787 5.69823 -4.58734 45.5146 0.555449 89.3269C3.04621 110.561 13.6543 129.519 30.4267 142.78C47.181 156.022 68.1106 161.935 89.3269 159.462C110.561 156.972 129.519 146.381 142.78 129.609C156.022 112.837 161.953 91.9251 159.462 70.7089C154.302 26.8787 114.485 -4.58736 70.673 0.555435Z" fill="white"/>
<path d="M127.996 80.0089C127.996 106.511 106.511 128.014 79.9911 128.014C53.4708 128.014 31.9857 106.529 31.9857 80.0089C31.9857 53.4886 53.4708 32.0035 79.9911 32.0035C106.511 32.0035 127.996 53.4886 127.996 80.0089Z" fill="#ED1C24"/>
<path d="M80.0089 129.089C52.9331 129.089 30.9284 107.067 30.9284 79.991C30.9284 52.9152 52.951 30.8926 80.0089 30.8926C107.067 30.8926 129.089 52.9152 129.089 79.991C129.089 107.067 107.067 129.089 80.0089 129.089ZM80.0089 33.0787C54.1337 33.0787 33.0966 54.1337 33.0966 79.991C33.0966 105.848 54.1337 126.903 80.0089 126.903C105.884 126.903 126.921 105.848 126.921 79.991C126.921 54.1337 105.866 33.0787 80.0089 33.0787ZM12.6509 98.1252L12.185 96.3154L21.8793 89.4702L22.381 91.4055L19.9081 93.1078L20.9654 97.283L23.9579 97.5697L24.4417 99.4512L12.6509 98.1073V98.1252ZM18.5105 94.0217L14.4966 96.7454L19.3168 97.1934L18.5105 94.0217ZM10.859 89.309L10.626 87.4454L21.6284 86.1015L21.8613 87.965L10.859 89.309ZM10.2497 79.7939C10.2497 78.9517 10.3572 78.2708 10.5544 77.7153C10.7515 77.1777 11.0203 76.7477 11.3249 76.4251C11.6474 76.1026 11.9879 75.8875 12.3821 75.7621C12.7584 75.6367 13.1347 75.5829 13.511 75.5829C14.2278 75.5829 14.837 75.7263 15.3208 76.013C15.8047 76.2997 16.1989 76.7656 16.5035 77.3928L21.3596 75.117V77.1598L16.9336 79.1309C16.9336 79.2205 16.9336 79.328 16.9515 79.4176C16.9515 79.5251 16.9515 79.6326 16.9515 79.7402V81.7292H21.3238V83.5748L10.2318 83.539V79.7581L10.2497 79.7939ZM15.3746 79.6685C15.3746 79.2384 15.3388 78.898 15.2492 78.6113C15.1596 78.3245 15.0341 78.1095 14.8729 77.9482C14.7116 77.787 14.5145 77.6795 14.2995 77.6078C14.0665 77.5361 13.8156 77.5003 13.5469 77.5003C13.296 77.5003 13.0451 77.5361 12.8301 77.6078C12.6151 77.6795 12.4359 77.8049 12.2925 78.002C12.1492 78.1812 12.0237 78.4141 11.9341 78.7188C11.8445 79.0234 11.8087 79.3997 11.8087 79.8298V81.7292H15.3746V79.6506V79.6685ZM10.9665 69.8846L20.2844 71.4436L21.1983 66.032L22.7752 66.5338L21.5925 73.576L10.6619 71.7482L10.9844 69.9026L10.9665 69.8846ZM12.7226 61.6239L13.2422 59.8141L23.8862 62.8782L23.3665 64.6881L12.7226 61.6239ZM14.3711 56.0331L15.07 54.4383L24.4417 52.9869L17.0948 49.7794L17.8295 48.095L27.9897 52.5389L27.2908 54.1337L17.937 55.621L25.2481 58.8285L24.5134 60.495L14.3532 56.0511L14.3711 56.0331ZM19.9798 44.3319L24.0475 38.1857L25.3914 39.0816L22.3631 43.6689L24.818 45.2996L27.6851 40.9811L29.0469 41.877L26.1798 46.1955L28.9036 48.0054L32.1111 43.1851L33.3296 44.2603L29.2082 50.4782L19.9619 44.3499L19.9798 44.3319ZM32.1469 29.244C32.7562 28.6706 33.3296 28.2585 33.8492 28.0434C34.3868 27.8105 34.8706 27.703 35.3186 27.7209C35.7666 27.7209 36.1608 27.8284 36.5192 28.0255C36.8776 28.2226 37.1822 28.4556 37.4331 28.7244C37.9348 29.244 38.2394 29.7816 38.3649 30.3371C38.4903 30.8926 38.4365 31.4839 38.1677 32.1469L43.1672 34.1001L41.6799 35.4978L37.2001 33.6521C37.2001 33.6521 37.0747 33.7955 37.003 33.8672C36.9313 33.9388 36.8597 34.0105 36.7701 34.1001L35.3186 35.462L38.329 38.6516L36.9851 39.9238L29.3874 31.8602L32.1469 29.2619V29.244ZM35.7666 32.8816C36.0712 32.5949 36.3042 32.3082 36.4475 32.0573C36.5909 31.8065 36.6625 31.5556 36.6625 31.3406C36.6625 31.1076 36.6267 30.8926 36.5013 30.6776C36.3938 30.4625 36.2504 30.2654 36.0533 30.0504C35.8741 29.8712 35.6949 29.7278 35.4799 29.6203C35.2828 29.5307 35.0498 29.477 34.8169 29.4949C34.5839 29.4949 34.3331 29.5845 34.0463 29.7278C33.7776 29.8712 33.4729 30.1041 33.1504 30.4088L31.7706 31.7169L34.2255 34.3151L35.7487 32.8816H35.7666ZM38.2932 23.9758L44.4215 19.8723L45.3175 21.2162L40.7481 24.2804L42.3967 26.7353L46.6973 23.8504L47.6111 25.2122L43.3105 28.0972L45.1383 30.8209L49.9406 27.5955L50.6574 29.0648L44.4574 33.2042L38.2932 23.9937V23.9758ZM50.9441 18.385L47.7545 19.8365L47.0736 18.3492L55.1551 14.6758L55.836 16.1631L52.6643 17.5966L56.5707 26.1978L54.8684 26.9683L50.962 18.3671L50.9441 18.385ZM59.9037 13.2064L61.6956 12.6867L68.8095 22.166L66.8921 22.7215L65.1181 20.2845L60.9788 21.4671L60.7638 24.4596L58.9002 24.9972L59.9037 13.1706V13.2064ZM64.1684 18.9405L61.3193 14.9983L61.0147 19.8365L64.1684 18.9405ZM68.6482 11.1636L70.5118 10.8769L72.1783 21.8255L70.3147 22.1122L68.6482 11.1636ZM76.1026 10.3393L76.443 19.7827L81.9263 19.5856L81.7471 21.2162L74.6153 21.4671L74.2211 10.3931L76.1026 10.3214V10.3393ZM84.5783 10.3931L86.4419 10.5364L85.5639 21.5926L83.7003 21.4492L84.5783 10.3931ZM90.42 10.8948L92.1223 11.2532L95.4015 20.159L97.0859 12.3284L98.8778 12.7226L96.5483 23.5637L94.846 23.2053L91.531 14.3353L89.8466 22.1301L88.0726 21.7538L90.42 10.9127V10.8948ZM109.522 22.4168L107.748 26.6099C107.013 26.8787 106.243 26.9862 105.418 26.9325C104.594 26.8787 103.823 26.6995 103.107 26.3949C102.318 26.0544 101.673 25.6423 101.189 25.1405C100.706 24.6388 100.347 24.0654 100.15 23.4382C99.9529 22.8111 99.8813 22.1301 99.9709 21.3775C100.043 20.6428 100.258 19.8544 100.598 19.0301C100.956 18.2058 101.369 17.507 101.87 16.9336C102.372 16.3602 102.91 15.9301 103.519 15.6255C104.11 15.3209 104.755 15.1775 105.436 15.1775C106.117 15.1775 106.798 15.3209 107.515 15.6076C108.142 15.8763 108.644 16.181 109.038 16.5394C109.432 16.8977 109.737 17.274 109.934 17.6862C110.131 18.0983 110.256 18.5284 110.292 18.9764C110.328 19.4243 110.292 19.8723 110.221 20.3382L108.411 19.8544C108.447 19.5318 108.465 19.2451 108.465 18.9764C108.465 18.7076 108.393 18.4567 108.267 18.2238C108.16 17.9908 107.981 17.7937 107.766 17.5966C107.551 17.4174 107.246 17.2382 106.888 17.0769C106.404 16.8798 105.956 16.7902 105.526 16.8261C105.096 16.8619 104.684 17.0052 104.289 17.2382C103.913 17.4891 103.555 17.8116 103.25 18.2417C102.928 18.6717 102.659 19.1735 102.408 19.7648C102.157 20.374 101.978 20.9295 101.888 21.4492C101.799 21.9689 101.799 22.4527 101.906 22.9006C102.014 23.3486 102.211 23.7428 102.515 24.0833C102.82 24.4238 103.232 24.7105 103.77 24.9255C104.254 25.1226 104.702 25.266 105.114 25.3197C105.544 25.3735 105.974 25.3556 106.44 25.266L107.318 23.1874L105.06 22.2376L105.669 20.7862L109.522 22.4168ZM119.144 22.0226L120.936 23.4382L117.926 32.3082L125.954 27.4163L127.674 28.796L120.793 37.4689L119.449 36.3938L124.448 30.0862L117.066 34.4943L115.901 33.5625L118.607 25.4452L113.607 31.7348L112.281 30.6776L119.18 22.0047L119.144 22.0226ZM132.942 34.566L134.143 35.9995L128.355 46.3568L127.065 44.8158L128.57 42.1996L125.81 38.9024L122.979 39.9238L121.743 38.4365L132.96 34.566H132.942ZM129.43 40.7839L131.867 36.5909L127.315 38.2753L129.412 40.7839H129.43ZM137.655 43.7048L135.827 40.7123L137.225 39.8701L141.848 47.4499L140.45 48.2921L138.64 45.3175L130.577 50.2453L129.591 48.6325L137.655 43.7048ZM143.962 52.0909L137.78 54.5279C136.813 54.9042 136.15 55.3701 135.809 55.9077C135.469 56.4453 135.469 57.1262 135.809 57.9684C136.132 58.7927 136.598 59.2944 137.207 59.4378C137.816 59.599 138.605 59.4736 139.59 59.0973L145.772 56.6603L146.453 58.4164L140.271 60.8534C139.465 61.1759 138.748 61.3372 138.121 61.3551C137.494 61.391 136.938 61.2834 136.436 61.0684C135.935 60.8534 135.522 60.5308 135.164 60.1008C134.806 59.6707 134.519 59.1511 134.268 58.5418C133.748 57.2158 133.713 56.0869 134.143 55.1193C134.591 54.1516 135.576 53.3632 137.117 52.7719L143.264 50.3528L143.944 52.0909H143.962ZM148.353 66.1037C148.514 66.928 148.568 67.6268 148.478 68.2002C148.388 68.7737 148.227 69.2395 147.976 69.6158C147.725 69.9921 147.439 70.2789 147.08 70.476C146.722 70.6731 146.381 70.8164 146.005 70.8881C145.288 71.0315 144.679 71.0135 144.142 70.8343C143.604 70.6551 143.12 70.2789 142.708 69.7234L138.425 72.9488L138.013 70.9419L141.937 68.1106C141.937 68.1106 141.884 67.9314 141.848 67.8239C141.83 67.7164 141.794 67.6268 141.776 67.5014L141.382 65.5482L137.099 66.4262L136.723 64.6164L147.582 62.3944L148.335 66.1037H148.353ZM143.353 67.2684C143.443 67.6806 143.55 68.021 143.694 68.2719C143.837 68.5228 143.998 68.7199 144.195 68.8453C144.392 68.9707 144.59 69.0424 144.84 69.0603C145.073 69.0783 145.324 69.0604 145.611 69.0066C145.862 68.9528 146.077 68.8632 146.274 68.7557C146.471 68.6303 146.614 68.469 146.722 68.2719C146.829 68.0569 146.901 67.806 146.919 67.5014C146.937 67.1968 146.919 66.8205 146.811 66.3904L146.435 64.5268L142.941 65.2436L143.353 67.2864V67.2684ZM149.481 73.7731L149.625 75.6367L138.569 76.4789L138.425 74.6153L149.481 73.7731ZM148.102 82.0159L148.245 78.5037L149.876 78.5754L149.499 87.4454L147.869 87.3737L148.012 83.8795L138.569 83.4673L138.64 81.5858L148.084 81.998L148.102 82.0159ZM142.009 92.6957L149.159 90.3304L148.711 92.3732L143.443 93.95L147.546 97.6593L147.116 99.5946L141.597 94.5234L137.099 93.5379L137.494 91.7101L141.991 92.6957H142.009ZM22.8469 114.772C22.3451 115.148 22.0764 115.561 22.0405 116.008C22.0047 116.456 22.166 116.976 22.5423 117.55C22.7215 117.818 22.9006 118.033 23.0798 118.195C23.259 118.356 23.4382 118.445 23.6174 118.499C23.7966 118.553 23.9579 118.553 24.1371 118.517C24.2983 118.481 24.4596 118.41 24.6209 118.32C24.8359 118.177 24.9972 117.962 25.0868 117.675C25.1764 117.388 25.1226 116.994 24.9255 116.492L24.4059 115.256C24.2087 114.772 24.0654 114.324 23.9758 113.912C23.8862 113.5 23.8683 113.124 23.922 112.765C23.9758 112.407 24.1012 112.084 24.3342 111.78C24.5492 111.475 24.8538 111.188 25.266 110.919C25.6602 110.651 26.0723 110.507 26.4845 110.471C26.8966 110.436 27.2908 110.489 27.6851 110.651C28.0793 110.812 28.4556 111.045 28.8319 111.385C29.1903 111.726 29.5307 112.12 29.8533 112.604C30.2475 113.213 30.5163 113.769 30.6417 114.288C30.7671 114.79 30.7851 115.238 30.7313 115.65C30.6596 116.044 30.5163 116.421 30.2833 116.743C30.0504 117.066 29.7816 117.352 29.477 117.603L28.1868 116.08C28.5989 115.686 28.814 115.31 28.8677 114.915C28.9036 114.539 28.7602 114.091 28.4377 113.589C28.2405 113.285 28.0614 113.052 27.8822 112.891C27.703 112.729 27.5417 112.622 27.3804 112.55C27.2192 112.478 27.0758 112.461 26.9324 112.496C26.7891 112.514 26.6637 112.568 26.5382 112.658C26.2157 112.855 26.0365 113.106 26.0007 113.374C25.9648 113.661 26.0365 114.037 26.2157 114.521L26.7533 115.829C27.1654 116.869 27.3088 117.729 27.1833 118.41C27.0579 119.109 26.6099 119.7 25.8394 120.184C25.4631 120.417 25.0868 120.578 24.6746 120.65C24.2804 120.721 23.8683 120.685 23.4561 120.56C23.044 120.435 22.6498 120.219 22.2556 119.879C21.8613 119.556 21.485 119.109 21.1266 118.571C20.374 117.424 20.0515 116.385 20.1411 115.453C20.2307 114.521 20.7683 113.715 21.7359 113.016L22.9006 114.808L22.8469 114.772ZM29.7099 122.854L31.8961 116.295L33.4371 118.051L31.8065 122.37L36.3579 121.366L37.8273 123.033L31.1076 124.413L28.0255 127.118L26.6457 125.541L29.7278 122.836L29.7099 122.854ZM35.2111 129.717C34.8527 130.218 34.7094 130.702 34.799 131.132C34.8885 131.58 35.1932 132.028 35.7128 132.458C35.9637 132.673 36.1966 132.817 36.4117 132.924C36.6267 133.014 36.8238 133.068 37.003 133.068C37.1822 133.068 37.3435 133.032 37.5047 132.942C37.6481 132.852 37.7914 132.745 37.9169 132.602C38.0782 132.405 38.1677 132.154 38.1677 131.849C38.1677 131.544 38.0065 131.186 37.666 130.756L36.8238 129.735C36.4833 129.322 36.2146 128.946 36.0175 128.57C35.8203 128.194 35.6949 127.835 35.6412 127.477C35.5874 127.118 35.6412 126.76 35.7487 126.402C35.8741 126.043 36.0891 125.685 36.3938 125.326C36.6984 124.968 37.0568 124.699 37.4331 124.556C37.8094 124.395 38.2215 124.341 38.6336 124.377C39.0458 124.413 39.4938 124.538 39.9417 124.753C40.3897 124.968 40.8377 125.255 41.2678 125.631C41.8233 126.115 42.2354 126.563 42.5042 127.011C42.773 127.459 42.9342 127.889 42.9701 128.283C43.0238 128.695 42.9701 129.072 42.8626 129.448C42.7371 129.824 42.5579 130.183 42.3429 130.505L40.6585 129.412C40.9452 128.928 41.0527 128.48 40.9811 128.104C40.9094 127.728 40.6585 127.333 40.1926 126.957C39.9238 126.724 39.673 126.563 39.4579 126.455C39.2429 126.348 39.0458 126.294 38.8845 126.276C38.7053 126.276 38.562 126.276 38.4365 126.348C38.3111 126.42 38.2036 126.491 38.114 126.599C37.8631 126.885 37.7735 127.172 37.8094 127.441C37.8452 127.728 38.0244 128.068 38.3469 128.48L39.225 129.573C39.9238 130.451 40.3001 131.222 40.3718 131.921C40.4435 132.62 40.1926 133.318 39.6013 134.017C39.3146 134.358 38.992 134.609 38.6157 134.788C38.2573 134.967 37.8452 135.057 37.4331 135.057C37.003 135.057 36.555 134.967 36.0891 134.77C35.6053 134.573 35.1215 134.25 34.6198 133.838C33.5805 132.942 32.9533 132.046 32.792 131.132C32.6128 130.218 32.8816 129.287 33.6163 128.337L35.2469 129.717H35.2111ZM46.2851 131.957L43.7048 130.344L44.6724 128.803L51.6071 133.139L50.6395 134.68L48.077 133.068L43.7048 140.056L41.9129 138.927L46.2851 131.939V131.957ZM52.7539 133.677L59.0436 136.472L58.3089 138.103L53.9545 136.168L53.0586 138.174L57.162 140.002L56.4274 141.651L52.3239 139.823L51.3204 142.099L55.9435 144.159L55.0297 145.718L48.6684 142.887L52.7539 133.677ZM60.5129 137.099L62.9678 137.726L63.5592 145.629L67.9135 138.963L70.2968 139.572L67.8239 149.338L65.9424 148.872L67.591 142.35L63.7204 148.299L62.1256 147.905L61.5164 140.844L59.8678 147.349L58.0401 146.883L60.5129 137.117V137.099ZM75.5112 140.092L79.113 140.146C79.8835 140.146 80.5286 140.253 81.0303 140.432C81.5321 140.611 81.9263 140.844 82.213 141.149C82.4997 141.436 82.7147 141.776 82.8223 142.17C82.9298 142.547 82.9835 142.959 82.9835 143.371C82.9835 143.819 82.9118 144.231 82.7864 144.643C82.661 145.038 82.4459 145.396 82.1413 145.701C81.8367 146.005 81.4425 146.238 80.9407 146.399C80.439 146.561 79.8118 146.65 79.0592 146.632L77.4823 146.596L77.4286 150.198L75.35 150.162L75.5112 140.092ZM79.0234 144.876C79.3818 144.876 79.6864 144.858 79.9373 144.787C80.1702 144.715 80.3673 144.607 80.5107 144.482C80.654 144.357 80.7615 144.195 80.8153 143.998C80.8691 143.801 80.9049 143.586 80.9049 143.371C80.9049 143.138 80.887 142.923 80.8332 142.744C80.7795 142.565 80.6899 142.421 80.5465 142.278C80.4032 142.153 80.224 142.063 79.9731 141.991C79.7402 141.92 79.4355 141.884 79.0592 141.884H77.5719L77.5182 144.858H79.0234V144.876ZM84.4529 140.092L87.983 139.608C88.7714 139.5 89.4344 139.5 89.9541 139.608C90.4916 139.716 90.9217 139.913 91.2442 140.163C91.5668 140.414 91.8177 140.719 91.9789 141.059C92.1402 141.4 92.2477 141.758 92.2836 142.099C92.3732 142.744 92.3194 143.299 92.1581 143.765C91.9789 144.231 91.6385 144.661 91.1367 145.038L93.735 148.998L91.4772 149.302L89.2911 145.79L87.3379 146.059L87.8396 149.804L85.7789 150.091L84.435 140.11L84.4529 140.092ZM88.7356 144.106C89.0581 144.052 89.3269 143.98 89.524 143.891C89.7211 143.801 89.8824 143.676 89.9899 143.532C90.0974 143.389 90.1691 143.228 90.187 143.048C90.2049 142.869 90.2049 142.672 90.187 142.457C90.1691 142.278 90.1153 142.117 90.0257 141.955C89.9541 141.794 89.8286 141.669 89.6853 141.561C89.5419 141.454 89.3269 141.382 89.0939 141.346C88.8431 141.31 88.5385 141.31 88.1801 141.346L86.7465 141.543L87.1228 144.321L88.7356 144.106ZM100.562 147.403C99.8454 147.618 99.1645 147.707 98.5194 147.636C97.8743 147.582 97.3009 147.385 96.7633 147.062C96.2437 146.74 95.7599 146.31 95.3656 145.754C94.9714 145.199 94.6489 144.536 94.398 143.747C94.1651 142.959 94.0575 142.224 94.0755 141.543C94.0934 140.862 94.2367 140.235 94.5055 139.68C94.7743 139.124 95.1506 138.64 95.6524 138.228C96.1541 137.816 96.7454 137.511 97.4622 137.296C98.179 137.081 98.8599 136.992 99.505 137.063C100.132 137.117 100.723 137.314 101.243 137.637C101.763 137.959 102.229 138.407 102.623 138.963C103.017 139.518 103.34 140.199 103.573 140.97C103.806 141.758 103.931 142.493 103.913 143.174C103.913 143.855 103.77 144.482 103.501 145.038C103.25 145.593 102.874 146.077 102.372 146.489C101.87 146.901 101.261 147.206 100.526 147.421M100.025 145.683C100.867 145.432 101.422 144.948 101.655 144.249C101.888 143.55 101.852 142.654 101.53 141.597C101.207 140.54 100.759 139.769 100.15 139.321C99.5587 138.873 98.842 138.766 97.9998 139.017C97.1576 139.268 96.6021 139.751 96.3691 140.468C96.1362 141.167 96.172 142.063 96.4945 143.12C96.8171 144.195 97.283 144.948 97.8564 145.396C98.4477 145.844 99.1645 145.933 100.007 145.683M102.247 136.096L104.343 135.074L109.665 140.396L108.787 132.888L110.812 131.903L111.851 142.618L110.059 143.496L102.229 136.114L102.247 136.096ZM111.762 131.114L113.536 129.968L119.001 138.425L117.227 139.572L111.762 131.114ZM115.292 128.91L118.177 126.491C119.359 125.506 120.542 125.058 121.743 125.147C122.943 125.237 124.072 125.918 125.111 127.172C125.649 127.817 126.025 128.462 126.24 129.089C126.455 129.735 126.545 130.362 126.473 130.971C126.402 131.598 126.187 132.189 125.828 132.781C125.47 133.372 124.968 133.91 124.341 134.447L121.725 136.633L115.274 128.892L115.292 128.91ZM123.266 133.05C123.678 132.709 124 132.351 124.18 131.974C124.377 131.616 124.466 131.24 124.466 130.863C124.466 130.487 124.377 130.111 124.215 129.735C124.036 129.358 123.803 128.982 123.481 128.588C123.176 128.211 122.854 127.907 122.513 127.656C122.191 127.405 121.85 127.262 121.51 127.19C121.169 127.118 120.829 127.136 120.452 127.244C120.094 127.351 119.718 127.566 119.341 127.871L118.069 128.946L122.226 133.928L123.266 133.068V133.05ZM123.015 122.173L127.548 117.012L128.892 118.195L125.739 121.778L127.387 123.23L130.344 119.861L131.706 121.062L128.749 124.43L130.613 126.079L133.946 122.262L135.146 123.606L130.559 128.839L122.979 122.191L123.015 122.173ZM128.588 115.614L130.523 112.622C130.953 111.959 131.383 111.457 131.813 111.134C132.243 110.794 132.655 110.597 133.068 110.507C133.48 110.418 133.856 110.436 134.232 110.525C134.609 110.633 134.931 110.776 135.218 110.955C135.773 111.314 136.168 111.708 136.4 112.138C136.651 112.568 136.741 113.106 136.687 113.733L141.382 114.324L140.146 116.241L136.042 115.614L134.967 117.281L138.139 119.324L137.01 121.062L128.534 115.614H128.588ZM134.429 114.969C134.609 114.7 134.734 114.45 134.788 114.217C134.842 114.002 134.859 113.804 134.824 113.625C134.788 113.446 134.698 113.303 134.573 113.159C134.447 113.016 134.286 112.891 134.107 112.783C133.963 112.693 133.802 112.622 133.623 112.568C133.462 112.532 133.283 112.532 133.103 112.568C132.924 112.622 132.745 112.711 132.548 112.891C132.351 113.052 132.154 113.285 131.957 113.589L131.168 114.808L133.533 116.331L134.411 114.951L134.429 114.969ZM53.7216 102.892L56.7141 88.0726H61.606L58.6135 102.892H53.7216ZM61.606 102.892L68.9887 88.0726H73.791L76.8193 102.892H72.2858L72.0349 101.136H67.2147L66.4442 102.892H61.5881H61.606ZM68.4332 98.0535H71.5332L70.7268 92.624L68.4332 98.0535ZM81.317 102.892L82.9835 91.746H78.7188L79.4535 88.0009H92.5523L91.8177 91.746H87.7679L86.1194 102.892H81.2991H81.317ZM103.071 88.0905H98.2506L90.8679 102.91H95.724L96.4945 101.154H101.315L101.53 102.91H106.099L103.071 88.0905ZM97.7131 98.0535L100.007 92.624L100.813 98.0535H97.7131ZM116.743 71.3002H93.7888C92.9466 75.4754 90.0257 78.9338 84.2199 81.335C84.8829 83.3061 87.1408 85.1517 89.4703 85.1517H101.906C103.806 85.1517 105.311 83.6824 105.92 82.428H93.2691C92.4986 82.2847 92.4627 81.335 93.2333 81.2633H105.669C107.282 81.2633 108.733 80.2957 109.576 78.8084H95.0969C94.3622 78.7009 94.3622 77.8407 95.0969 77.7332H109.701C111.152 77.7332 112.514 76.4789 113.052 75.332H97.0321C96.2258 75.2245 96.2258 74.0598 97.0321 74.024H113.339C114.611 74.024 115.865 72.7338 116.725 71.3002M43.2568 71.3002C44.1348 72.7338 45.3712 74.024 46.6435 74.024H62.9678C63.7742 74.0598 63.7742 75.2245 62.9678 75.332H46.9481C47.5036 76.4789 48.8476 77.7332 50.299 77.7332H64.9031C65.6378 77.8407 65.6378 78.7009 64.9031 78.8084H50.4244C51.2666 80.2777 52.7181 81.2633 54.3308 81.2633H66.7667C67.5372 81.335 67.5014 82.2847 66.7309 82.428H54.062C54.6892 83.6824 56.1765 85.1517 58.0759 85.1517H70.5118C72.8413 85.1517 75.0991 83.324 75.7621 81.335C69.9563 78.9338 67.0355 75.4754 66.1933 71.3002H43.2389M72.3933 58.7389C73.2355 59.4557 74.1852 60.1008 75.2066 60.495C76.0847 58.8106 77.2852 57.3771 78.665 56.1227C76.3534 56.4094 74.2031 57.2696 72.3933 58.7389ZM68.3436 67.0176H73.4505C73.5581 64.9569 74.006 63.165 74.8482 61.3372C73.7193 60.8355 72.7338 60.2441 71.7841 59.4557C69.6696 61.4985 68.5049 64.1505 68.3615 67.0176M79.5251 62.3586V67.0355H74.4182C74.454 65.1898 74.8841 63.3262 75.6904 61.6239C76.891 62.054 78.217 62.3407 79.5251 62.3586ZM87.5887 58.7389C86.7465 59.4557 85.761 60.1008 84.7754 60.495C83.8616 58.7748 82.7327 57.4129 81.2991 56.1227C83.5928 56.4094 85.761 57.2696 87.5708 58.7389M91.6385 67.0176H86.5315C86.4598 65.0106 85.976 63.1291 85.1876 61.3372C86.2806 60.8355 87.302 60.2083 88.2159 59.4557C90.402 61.5702 91.531 64.2222 91.6564 67.0176M80.439 62.3586V67.0355H85.5101C85.5101 65.154 85.0442 63.3621 84.2379 61.6239C83.0373 62.054 81.7292 62.3407 80.439 62.3586ZM72.3933 76.228C73.2355 75.5829 74.2211 74.8662 75.2066 74.5078C76.1205 76.1922 77.2494 77.5899 78.665 78.8621C76.3534 78.5754 74.1673 77.7153 72.3933 76.228ZM68.3436 67.9494H73.4505C73.5581 69.9921 74.006 71.7841 74.8482 73.6476C73.7193 74.1494 72.7338 74.7407 71.7841 75.5112C69.7054 73.4685 68.5049 70.8343 68.3615 67.9494M79.5251 72.5904V67.9494H74.4182C74.454 69.8129 74.8841 71.6765 75.6904 73.3251C76.891 72.895 78.217 72.6263 79.5251 72.5904ZM87.5887 76.228C86.7824 75.5471 85.761 74.902 84.7754 74.5078C83.8616 76.1922 82.7327 77.5899 81.2991 78.8621C83.5928 78.5754 85.761 77.7153 87.5708 76.228M91.6385 67.9494H86.5315C86.4598 69.9921 86.0119 71.8199 85.1876 73.6476C86.2806 74.1494 87.2662 74.7407 88.2159 75.5112C90.2945 73.4685 91.531 70.7627 91.6564 67.9494M80.439 72.5904V67.9494H85.5101C85.5101 69.8129 85.0442 71.6407 84.2379 73.3251C83.0731 72.895 81.6933 72.6263 80.439 72.5904ZM79.5251 56.5886C78.1274 57.6996 76.891 59.1869 76.0847 60.7638C77.1777 61.1222 78.3425 61.4089 79.5251 61.4089V56.5707V56.5886ZM80.439 56.5886C81.7829 57.6996 83.0373 59.169 83.8436 60.7638C82.7506 61.158 81.5858 61.4089 80.439 61.4089V56.5707V56.5886ZM79.5251 78.3783C78.1274 77.3032 76.891 75.7979 76.0847 74.1673C77.1777 73.7731 78.3425 73.5581 79.5251 73.5581V78.3783ZM80.439 78.4141C81.7829 77.3032 83.0373 75.78 83.8436 74.1673C82.7506 73.8089 81.5858 73.5581 80.439 73.5581V78.4141Z" fill="white"/>
</g>
<defs>
<clipPath id="clip0_150_3736">
<rect width="160" height="160" fill="white"/>
</clipPath>
</defs>
</svg>
