<svg width="160" height="160" viewBox="0 0 160 160" fill="none" xmlns="http://www.w3.org/2000/svg">
<g clip-path="url(#clip0_150_3728)">
<path d="M108.8 0H0V109.333L50.6667 160H160V51.2L108.8 0Z" fill="white"/>
<path d="M107.467 3.34222L156.676 52.5511V156.676H52L3.34222 108V3.34222H107.467ZM108.8 0H0V109.333L50.6667 160H160V51.2L108.8 0Z" fill="#242E3D"/>
<path d="M25.9911 90.1333V95.9999H22.6489V79.9999H28.7823C30.24 79.8755 31.5734 80.4088 32.7823 81.3333C34.7734 83.4666 34.7734 86.6666 32.7823 88.7999C31.7156 89.7422 30.24 90.2577 28.7823 90.1333H25.9911ZM25.9911 87.5911H28.3911C29.0667 87.5911 29.7245 87.4666 30.1156 86.9155C30.9156 85.8488 30.9156 84.2488 30.1156 83.1822C29.5823 82.7733 29.0489 82.5066 28.3911 82.5066H25.9911V87.5733V87.5911ZM48.2667 95.9999L47.2 92.4088H41.7423L40.6756 95.9999H37.0845L42.6845 79.9999H46.56L52.0178 95.9999H48.2845H48.2667ZM42.4 89.8666H46.4L44.4089 83.1999L42.4178 89.8666H42.4ZM56.8 95.9999V79.9999H62.9334C64.4089 79.8755 65.7423 80.4088 66.9334 81.3333C67.8756 82.2577 68.4089 83.5911 68.4089 84.9244C68.4089 85.8666 68.1423 86.6666 67.6089 87.4666C67.0756 88.2666 66.2756 88.7999 65.4756 89.2088L69.4756 96.1422H65.8845L62.4178 89.8844H60.1423V96.0177H56.8V95.9999ZM60.1245 87.3244H62.5245C63.7334 87.4488 64.7823 86.6488 64.9245 85.4577V84.7822C65.0667 83.5733 64.2489 82.5244 63.2 82.3822H60.2667V87.3066H60.1423L60.1245 87.3244ZM77.6 95.9999V82.7911H72.6756V79.9999H85.8845V82.7911H80.9423V95.9999H77.6ZM94.2578 84.9244V95.9999H91.2V79.9999H94.9334L101.476 91.1999V79.9999H104.551V95.9999H100.818L94.2756 84.9244H94.2578ZM110.667 95.9999V79.9999H121.209V82.6666H114.133V86.3999H119.876V89.0666H114.133V93.3333H121.209V95.9999H110.667ZM127.324 95.9999V79.9999H133.458C134.916 79.8755 136.249 80.4088 137.458 81.3333C138.4 82.2577 138.916 83.5911 138.916 84.9244C138.916 85.8666 138.649 86.6666 138.116 87.4666C137.582 88.2666 136.782 88.7999 135.982 89.2088L139.982 96.1422H136.391L132.924 89.8844H130.667V96.0177H127.324V95.9999ZM130.667 87.3244H133.067C134.258 87.4488 135.324 86.6488 135.467 85.4577V84.7822C135.591 83.5733 134.791 82.5244 133.742 82.3822H130.667V87.3066V87.3244Z" fill="#242E3D"/>
<path d="M35.5912 36.6578C35.5912 37.1911 35.5912 37.7245 35.8578 38.2578C35.9823 38.6667 36.2489 39.2 36.3912 39.5911C36.5156 39.7334 36.5156 39.8578 36.5156 40C36.5156 40.2667 36.3912 40.4089 36.1067 40.5333L34.8978 41.3334H34.5067C34.24 41.3334 34.0978 41.2089 33.9734 41.0667C33.7067 40.8 33.44 40.5333 33.2978 40.2667C33.1734 40 32.8889 39.5911 32.7645 39.2C31.4312 40.8 29.5645 41.7422 27.4312 41.7422C26.0978 41.8667 24.7645 41.3333 23.84 40.4089C22.8978 39.4667 22.5067 38.2756 22.5067 36.9422C22.5067 35.4845 23.04 34.1511 24.1067 33.2089C25.3156 32.2667 26.8978 31.7511 28.5156 31.7511C29.1912 31.7511 29.8489 31.7511 30.3823 31.8756L32.3734 32.2667V30.9333C32.4978 29.8667 32.2312 28.8 31.5734 28C30.7734 27.3245 29.7067 27.0756 28.64 27.2C27.9645 27.2 27.3067 27.3245 26.6489 27.4667C25.9912 27.6089 25.3156 27.8756 24.6578 28.1422C24.3912 28.2667 24.2489 28.2667 23.9823 28.4089H23.7156C23.4489 28.4089 23.3067 28.2667 23.3067 27.8756V26.9333C23.3067 26.6667 23.3067 26.5422 23.4312 26.2578C23.5556 26.1334 23.6978 25.9911 23.9645 25.8667C24.64 25.4578 25.4223 25.1911 26.2223 25.0667C27.1645 24.8 28.0889 24.6578 29.0312 24.6578C30.7556 24.5334 32.3734 25.0667 33.6889 26.1156C34.7556 27.3245 35.2889 28.9067 35.1467 30.5245L35.5378 36.6578H35.5912ZM28.2667 39.3245C28.9423 39.3245 29.4756 39.2 30.1334 39.0578C30.8089 38.7911 31.3423 38.3822 31.8756 37.8489C32.1423 37.5822 32.4089 37.1734 32.5512 36.64C32.6934 36.1067 32.6756 35.5733 32.6756 35.04V34.24C32.1423 34.1156 31.6089 33.9734 31.0756 33.9734C30.5423 33.8489 30.0089 33.8489 29.3334 33.8489C28.4089 33.7245 27.4667 33.9734 26.6667 34.5245C25.6 35.5911 25.4578 37.3156 26.4 38.5245C26.9334 39.2 27.5912 39.4489 28.2667 39.3245ZM42.7912 41.3334C42.5245 41.3334 42.2578 41.3334 42.1156 41.2089C41.9912 41.0845 41.8489 40.8 41.7245 40.5333L37.4578 26.5245C37.3334 26.2578 37.3334 25.9911 37.3334 25.8489C37.3334 25.5822 37.4578 25.44 37.6 25.44H39.4667C39.7334 25.44 40 25.44 40.1423 25.5645C40.2667 25.7067 40.4089 25.9734 40.5512 26.24L43.6089 38.1156L46.4178 26.24C46.4178 25.9734 46.5423 25.7067 46.8089 25.5645C47.0756 25.44 47.3423 25.44 47.4845 25.44H48.9423C49.2089 25.44 49.4756 25.44 49.6178 25.5645C49.76 25.7067 49.8845 25.9734 50.0267 26.24L52.8178 38.3822L55.8934 26.24C55.8934 25.9734 56.0178 25.7067 56.2845 25.5645C56.5512 25.44 56.6934 25.44 56.96 25.44H58.7023C58.9689 25.44 59.1112 25.5645 59.1112 25.7067V26.0978C59.1112 26.2222 58.9689 26.3645 58.9689 26.5067L54.7023 40.3733C54.7023 40.64 54.5778 40.9067 54.2934 41.0489C54.1689 41.3156 53.9023 41.3156 53.6178 41.3156H52.0178C51.7512 41.3156 51.4845 41.3156 51.3423 41.1911C51.2178 40.9245 51.0756 40.7822 50.9334 40.5156L48.1423 28.9067L45.3512 40.5156C45.3512 40.7822 45.2267 41.0489 44.9423 41.1911C44.8178 41.3156 44.5512 41.3156 44.4089 41.3156H42.8089L42.7912 41.3334ZM65.9912 41.8667C65.0667 41.8667 64.1245 41.7422 63.2 41.6C62.5245 41.4756 61.7423 41.2089 61.0667 40.9245C60.6578 40.8 60.3912 40.3911 60.3912 39.8578V38.9156C60.3912 38.5245 60.5156 38.3822 60.7823 38.3822H61.0489C61.1734 38.3822 61.3156 38.5067 61.4401 38.5067C62.1156 38.7734 62.7734 39.04 63.4312 39.1822C64.1067 39.3067 64.8889 39.4489 65.5645 39.4489C66.5067 39.4489 67.4312 39.3245 68.2312 38.7733C68.7645 38.3822 69.1734 37.7067 69.1734 37.0489C69.1734 36.5156 69.0489 36.1067 68.64 35.84C68.1067 35.4311 67.4312 35.04 66.7734 34.8978L64.1067 34.0978C63.0401 33.8311 61.9734 33.1733 61.1734 32.2311C60.64 31.4311 60.2312 30.5067 60.2312 29.5645C60.2312 28.8889 60.3734 28.2311 60.7645 27.5734C61.0312 27.04 61.5645 26.5067 62.0978 26.1156C62.6312 25.7245 63.3067 25.3156 63.9645 25.1911C64.7645 24.9245 65.4223 24.9245 66.2223 24.9245C66.6312 24.9245 67.0223 24.9245 67.4312 25.0667C67.84 25.0667 68.2312 25.1911 68.64 25.3334C69.0489 25.4756 69.3156 25.4578 69.7067 25.6C69.9734 25.7422 70.24 25.7422 70.5067 25.8667C70.7734 25.9911 70.8978 26.1334 71.04 26.2578C71.1645 26.4 71.1645 26.6667 71.1645 26.9333V27.7334C71.1645 28.1245 71.04 28.2667 70.7556 28.2667C70.4712 28.2667 70.2223 28.1422 70.08 28C69.0134 27.4667 67.8223 27.3245 66.6134 27.3245C65.8134 27.3245 65.0134 27.4489 64.2134 27.8578C63.68 28.1245 63.2889 28.7822 63.4134 29.4578C63.4134 29.9911 63.5378 30.4 63.9467 30.7911C64.48 31.3245 65.1556 31.5911 65.9378 31.7334L68.48 32.5333C69.5467 32.8 70.4712 33.4578 71.2712 34.2578C71.8045 34.9334 72.0712 35.8578 72.0712 36.8C72.0712 37.4756 71.9467 38.2578 71.5378 38.9333C71.2712 39.6089 70.7378 40.1422 70.2045 40.5333C69.6712 40.9245 68.8712 41.3333 68.2134 41.6C67.68 41.7422 66.7556 41.8667 65.9556 41.8667H65.9912Z" fill="#242E3D"/>
<path d="M69.3333 50.5422C63.3244 54.9333 54.7911 57.2089 47.3244 57.2089C37.4577 57.2089 27.8577 53.6 20.5333 46.9333C19.9999 46.4 20.5333 45.7422 21.2088 46.1333C29.3333 50.9333 38.6666 53.3333 47.9999 53.3333C55.0755 53.3333 62.0088 51.8755 68.5333 49.2089C69.4577 48.8 70.3999 49.8844 69.3333 50.5422ZM70.2577 54.5422C69.9911 55.0755 70.5244 55.3422 71.0577 54.9333C74.2577 52.2667 75.0577 46.6667 74.3999 45.8667C73.7244 45.0667 68.1244 44.4089 64.7999 46.7911C64.2666 47.2 64.4088 47.7333 64.9244 47.5911C66.7911 47.3244 71.0577 46.7911 71.8577 47.8578C72.6577 48.9244 70.9155 52.7822 70.2577 54.5244V54.5422Z" fill="#FF9900"/>
</g>
<defs>
<clipPath id="clip0_150_3728">
<rect width="160" height="160" fill="white"/>
</clipPath>
</defs>
</svg>
