<svg width="160" height="160" viewBox="0 0 160 160" fill="none" xmlns="http://www.w3.org/2000/svg">
<g clip-path="url(#clip0_150_3798)">
<path d="M158.208 80.009C158.208 123.212 123.194 158.226 79.9911 158.226C36.788 158.226 1.79193 123.194 1.79193 80.009C1.79193 36.8239 36.8059 1.79193 80.009 1.79193C123.212 1.79193 158.226 36.8059 158.226 80.009" fill="#231F20"/>
<path d="M80.009 158.226C116.815 158.226 147.69 132.799 156.004 98.5553H4.01392C12.3284 132.799 43.2031 158.226 80.009 158.226Z" fill="#FFCB05"/>
<path d="M31.7706 141.059C15.4642 128.193 5.14275 109.719 2.72366 89.076C-2.27577 46.4643 28.3301 7.72309 70.9418 2.72365C113.554 -2.25787 152.295 28.3301 157.294 70.9418C159.713 91.5847 153.961 111.941 141.059 128.229C128.193 144.536 109.719 154.839 89.076 157.276C68.4331 159.695 48.0949 153.943 31.7706 141.059ZM70.673 0.555435C26.8787 5.69823 -4.58734 45.5146 0.555449 89.3269C3.04621 110.561 13.6543 129.519 30.4267 142.78C47.199 156.022 68.1106 161.935 89.3269 159.462C110.561 156.972 129.519 146.381 142.78 129.609C156.022 112.837 161.953 91.9251 159.462 70.7089C154.302 26.8787 114.485 -4.58736 70.673 0.555435Z" fill="#231F20"/>
<path d="M126.778 80.0089C126.778 105.83 105.848 126.778 80.0089 126.778C54.1695 126.778 33.24 105.83 33.24 80.0089C33.24 54.1875 54.1875 33.24 80.0089 33.24C105.83 33.24 126.778 54.1875 126.778 80.0089Z" fill="white"/>
<path d="M80.0089 127.835C53.632 127.835 32.1827 106.368 32.1827 80.0089C32.1827 53.6498 53.632 32.1648 80.0089 32.1648C106.386 32.1648 127.835 53.6319 127.835 80.0089C127.835 106.386 106.386 127.835 80.0089 127.835ZM80.0089 34.2972C54.7967 34.2972 34.2972 54.8146 34.2972 80.0089C34.2972 105.203 54.7967 125.721 80.0089 125.721C105.221 125.721 125.721 105.221 125.721 80.0089C125.721 54.7967 105.221 34.2972 80.0089 34.2972Z" fill="#231F20"/>
<path d="M19.5677 61.1221C19.2093 60.9967 18.9047 60.8175 18.6538 60.5846C18.4029 60.3516 18.2058 60.1007 18.0625 59.7961C17.9191 59.4915 17.8474 59.169 17.8295 58.8285C17.8295 58.488 17.8654 58.1296 18.0087 57.7713C18.1342 57.4129 18.3133 57.1083 18.5463 56.8574C18.7792 56.6065 19.048 56.4094 19.3527 56.2661C19.6573 56.1227 19.9798 56.051 20.3203 56.051C20.6608 56.051 21.0012 56.0869 21.3417 56.2123C21.7359 56.3557 22.0764 56.5528 22.3272 56.8036C22.596 57.0545 22.7752 57.3233 22.9006 57.6279C23.0261 57.9325 23.0798 58.2551 23.0978 58.5955C23.0978 58.936 23.044 59.2586 22.9365 59.5632C22.8111 59.9216 22.6319 60.2441 22.3989 60.495C22.166 60.7458 21.9151 60.9429 21.6105 61.0863C21.3058 61.2297 20.9833 61.3013 20.6428 61.3193C20.3024 61.3193 19.944 61.2655 19.5677 61.1401" fill="white"/>
<path d="M19.5677 45.0308L20.7145 43.3464L31.8602 43.6868L24.0833 38.4007L25.3018 36.6267L36.0533 43.9377L34.9065 45.64L23.7966 45.3175L31.5377 50.5857L30.3371 52.3597" fill="white"/>
<path d="M32.3978 29.1724C33.0967 28.5273 33.8314 28.0256 34.5661 27.703C35.3007 27.3805 36.0534 27.2192 36.806 27.255C37.5586 27.2909 38.3112 27.5059 39.0817 27.9001C39.8343 28.2943 40.5869 28.9036 41.3216 29.692C42.0563 30.4984 42.5938 31.2868 42.9164 32.0932C43.2389 32.8996 43.3823 33.7059 43.3464 34.4944C43.3106 35.2828 43.0777 36.0713 42.6655 36.8239C42.2534 37.5944 41.662 38.3111 40.9094 39.01L37.7736 41.9129L28.9395 32.3441M39.6909 37.5944C40.2464 37.0747 40.6586 36.5551 40.9094 36.0175C41.1603 35.4799 41.2678 34.9603 41.2499 34.4227C41.232 33.8851 41.0707 33.3475 40.8019 32.8279C40.5331 32.2903 40.1568 31.7707 39.673 31.251C38.7054 30.1938 37.7198 29.5845 36.7164 29.4053C35.7129 29.2261 34.7094 29.6024 33.7059 30.5342L31.8603 32.2366L38.1499 39.0458L39.7268 37.5944H39.6909Z" fill="white"/>
<path d="M54.9222 24.1012C55.1909 24.7284 55.3522 25.3556 55.4239 25.9828C55.4776 26.6099 55.4239 27.2192 55.2447 27.8105C55.0655 28.4018 54.743 28.9573 54.295 29.477C53.847 29.9966 53.2557 30.4805 52.521 30.8926C51.7146 31.3585 50.9083 31.6273 50.1019 31.7169C49.2955 31.8065 48.5429 31.7169 47.8083 31.4481C47.0736 31.1793 46.3926 30.7492 45.7476 30.14C45.1025 29.5307 44.5291 28.7781 44.0094 27.8643C43.4897 26.9325 43.1314 26.0186 42.9701 25.1406C42.7909 24.2625 42.7909 23.4382 42.9701 22.6677C43.1314 21.8972 43.4539 21.1983 43.9377 20.5712C44.4215 19.944 45.0487 19.4064 45.8013 18.9764C46.5181 18.5821 47.1811 18.3134 47.7903 18.2058C48.4175 18.0983 48.9909 18.0983 49.5464 18.2238C50.1019 18.3492 50.6216 18.5821 51.0875 18.9226C51.5713 19.2631 52.0193 19.6931 52.4493 20.1949L50.7112 21.5388C50.4065 21.1983 50.1198 20.9296 49.8152 20.6966C49.5285 20.4816 49.2059 20.3203 48.8834 20.2307C48.5609 20.1411 48.2204 20.1232 47.862 20.177C47.5036 20.2307 47.1273 20.3741 46.7152 20.607C46.2135 20.8937 45.8192 21.2521 45.5325 21.6642C45.2458 22.0943 45.0845 22.5602 45.0308 23.0978C44.977 23.6174 45.0308 24.1908 45.1921 24.8001C45.3533 25.4093 45.6221 26.0365 45.9805 26.6995C46.3568 27.3625 46.7689 27.918 47.2169 28.366C47.6649 28.814 48.1308 29.1544 48.6146 29.3695C49.0984 29.5845 49.6002 29.692 50.1019 29.6741C50.6036 29.6562 51.0875 29.4949 51.5892 29.2261C52.0372 28.9752 52.3776 28.7065 52.6285 28.4018C52.8794 28.1151 53.0406 27.7926 53.1482 27.47C53.2378 27.1296 53.2557 26.7891 53.2019 26.4128C53.1482 26.0365 53.0406 25.6423 52.8794 25.2481" fill="white"/>
<path d="M72.8234 19.1555C72.8951 19.8365 72.8772 20.4816 72.7338 21.0908C72.6084 21.7001 72.3575 22.2735 72.0171 22.7752C71.6587 23.2769 71.2107 23.7249 70.6194 24.0833C70.046 24.4596 69.3292 24.7284 68.5049 24.9076C67.591 25.1047 66.7309 25.1226 65.9604 24.9793C65.172 24.8359 64.4731 24.5134 63.8639 24.0475C63.2367 23.5816 62.717 22.9544 62.287 22.1839C61.8569 21.4133 61.5165 20.5174 61.3014 19.496C61.0685 18.4567 61.0147 17.4891 61.1043 16.5931C61.2118 15.6971 61.4448 14.9087 61.8211 14.2278C62.2153 13.5468 62.735 12.9734 63.38 12.5075C64.0251 12.0416 64.7777 11.737 65.6379 11.5399C66.4263 11.3607 67.1431 11.3249 67.7702 11.3965C68.3974 11.4682 68.9529 11.6474 69.4367 11.9341C69.9205 12.2208 70.3506 12.5971 70.709 13.063C71.0674 13.5289 71.372 14.0844 71.6229 14.6937L69.5622 15.4463C69.365 15.0341 69.1679 14.6937 68.9529 14.389C68.7379 14.0844 68.487 13.8515 68.2182 13.6723C67.9315 13.4931 67.609 13.3677 67.2506 13.3139C66.8922 13.2601 66.4801 13.2781 66.0142 13.3856C65.4408 13.511 64.9569 13.726 64.5627 14.0486C64.1685 14.3711 63.8639 14.7833 63.6668 15.2671C63.4517 15.7509 63.3442 16.3064 63.3084 16.9336C63.2905 17.5607 63.3442 18.2417 63.5055 18.9763C63.6668 19.7289 63.8818 20.374 64.1864 20.9474C64.4731 21.5029 64.8136 21.9688 65.2257 22.3093C65.6199 22.6677 66.0679 22.9006 66.5517 23.0261C67.0356 23.1515 67.5552 23.1515 68.1107 23.0261C68.6124 22.9186 69.0246 22.7573 69.3471 22.5602C69.6697 22.3631 69.9205 22.1122 70.0997 21.8255C70.2968 21.5388 70.4044 21.1983 70.476 20.8399C70.5477 20.4636 70.5656 20.0694 70.5298 19.6214" fill="white"/>
<path d="M79.2921 10.3752H81.4783L86.3702 23.4382H84.0228L82.8222 20.1053L77.769 20.0694L76.5505 23.3845H74.2748M82.213 18.2596L80.3135 12.8839L78.3783 18.2417H82.2309L82.213 18.2596Z" fill="white"/>
<path d="M90.6709 11.074L95.0611 12.0417C96.0287 12.2567 96.7813 12.5434 97.3726 12.8839C97.946 13.2423 98.3761 13.6186 98.6449 14.0665C98.9316 14.4966 99.075 14.9625 99.1108 15.4642C99.1466 15.966 99.1108 16.4677 99.0033 16.9874C98.8778 17.5249 98.6986 18.0446 98.4478 18.5105C98.1969 18.9764 97.8385 19.3527 97.4085 19.6573C96.9605 19.944 96.405 20.1411 95.742 20.2307C95.079 20.3203 94.2726 20.2486 93.3408 20.0515L91.0293 19.5319L89.9899 24.2625L87.8755 23.7966M93.6813 18.2238C94.2189 18.3492 94.6848 18.385 95.0611 18.3671C95.4374 18.3313 95.742 18.2417 95.9929 18.0983C96.2437 17.955 96.4229 17.74 96.5663 17.4891C96.7096 17.2382 96.8171 16.9336 96.8888 16.5931C96.9605 16.2347 96.9963 15.9122 96.9784 15.6255C96.9605 15.3388 96.853 15.0879 96.6917 14.855C96.5304 14.6399 96.2796 14.4249 95.9391 14.2636C95.6166 14.0845 95.1865 13.9411 94.6489 13.8336L92.409 13.3318L91.4414 17.74L93.6992 18.2417L93.6813 18.2238Z" fill="white"/>
<path d="M106.189 15.5001L108.196 16.3602L107.658 30.2834L105.49 29.3695L105.669 25.8394L101.028 23.8683L98.6269 26.4487L96.5304 25.5527M105.848 23.9041L106.171 18.2238L102.318 22.4169L105.866 23.9221L105.848 23.9041Z" fill="white"/>
<path d="M116.385 20.5174L120.076 23.1157C120.847 23.6532 121.438 24.1729 121.832 24.6746C122.226 25.1764 122.477 25.6423 122.603 26.1082C122.71 26.5741 122.71 27.0041 122.567 27.4342C122.442 27.8642 122.244 28.2585 121.958 28.6527C121.653 29.1007 121.259 29.4411 120.793 29.692C120.327 29.9429 119.736 29.9966 119.037 29.8712C119.27 30.2654 119.431 30.6238 119.521 30.9643C119.61 31.3047 119.646 31.6273 119.61 31.9319C119.592 32.2365 119.521 32.5232 119.413 32.792C119.306 33.0608 119.162 33.3117 118.983 33.5446C118.678 33.9747 118.32 34.351 117.908 34.6377C117.496 34.9244 117.048 35.1215 116.528 35.1753C116.026 35.2469 115.453 35.1753 114.844 34.9961C114.235 34.8169 113.554 34.4585 112.837 33.9568L108.877 31.1793M113.822 32.4515C114.252 32.7562 114.629 32.9533 114.969 33.0787C115.31 33.2041 115.614 33.24 115.883 33.2041C116.152 33.1683 116.385 33.0787 116.6 32.9174C116.815 32.7562 117.012 32.5411 117.191 32.2903C117.567 31.7527 117.711 31.233 117.603 30.7492C117.496 30.2475 117.084 29.7458 116.331 29.2082L114.02 27.5775L111.654 30.9284L113.804 32.4336L113.822 32.4515ZM117.209 27.6313C117.908 28.133 118.499 28.3481 118.965 28.2764C119.431 28.2226 119.825 27.9359 120.166 27.4521C120.524 26.9504 120.614 26.4666 120.452 26.0186C120.291 25.5706 119.807 25.0689 119.001 24.4954L117.12 23.1694L115.059 26.1082L117.209 27.6134V27.6313Z" fill="white"/>
<path d="M129.161 30.6955L121.133 38.3828L125.613 43.0418L124.036 44.1707L118.23 38.114L127.638 29.1007" fill="white"/>
<path d="M136.185 38.7053L140.898 45.9805L139.303 47.0019L135.791 41.5903L132.888 43.4718L136.203 48.5788L134.591 49.6181L131.276 44.5111L128.05 46.6077L131.741 52.3239L130.021 53.1302L125.255 45.7834" fill="white"/>
<path d="M138.748 56.5169C139.106 56.3915 139.447 56.3377 139.787 56.3557C140.128 56.3557 140.45 56.4452 140.737 56.6065C141.042 56.7499 141.292 56.947 141.525 57.2158C141.758 57.4666 141.938 57.7713 142.063 58.1476C142.188 58.506 142.242 58.8464 142.224 59.2048C142.206 59.5453 142.117 59.8678 141.973 60.1724C141.83 60.4591 141.633 60.7279 141.364 60.9609C141.113 61.1938 140.809 61.3551 140.468 61.4805C140.074 61.6239 139.68 61.6776 139.321 61.6418C138.963 61.606 138.64 61.5164 138.354 61.3551C138.067 61.1938 137.816 60.9967 137.601 60.7279C137.386 60.4591 137.225 60.1903 137.117 59.8678C136.992 59.4915 136.938 59.151 136.956 58.8106C136.956 58.4701 137.046 58.1476 137.189 57.8429C137.332 57.5383 137.529 57.2695 137.78 57.0545C138.049 56.8216 138.354 56.6424 138.73 56.5169" fill="white"/>
<path d="M53.7216 102.892L56.7141 88.0726H61.606L58.6135 102.892M61.606 102.892L68.9887 88.0726H73.8089L76.8373 102.892H72.3037L72.0528 101.136H67.2326L66.4621 102.892H61.606ZM68.4332 98.0536H71.5332L70.7268 92.6241L68.4332 98.0536ZM81.317 102.892L82.9835 91.7461H78.7188L79.4534 88.001H92.5523L91.8177 91.7461H87.7679L86.1194 102.892H81.2991H81.317ZM103.071 88.0905H98.2506L90.8679 102.91H95.724L96.4945 101.154H101.315L101.53 102.91H106.099L103.071 88.0905ZM97.7131 98.0536L100.007 92.6241L100.813 98.0536H97.7131ZM116.743 71.3003H93.7888C92.9466 75.4755 90.0257 78.9339 84.2199 81.335C84.8829 83.3061 87.1408 85.1518 89.4702 85.1518H101.906C103.806 85.1518 105.311 83.6824 105.92 82.4281H93.2691C92.4986 82.2847 92.4627 81.335 93.2333 81.2634H105.669C107.282 81.2634 108.733 80.2957 109.576 78.8264H95.0969C94.3622 78.7188 94.3622 77.8587 95.0969 77.7512H109.701C111.152 77.7512 112.496 76.4969 113.052 75.35H97.0321C96.2258 75.2425 96.2258 74.0778 97.0321 74.0419H113.339C114.611 74.0419 115.865 72.7518 116.725 71.3182M43.2568 71.3003C44.1348 72.7338 45.3712 74.024 46.6435 74.024H62.9499C63.7563 74.0599 63.7563 75.2246 62.9499 75.3321H46.9302C47.4857 76.4789 48.8296 77.7333 50.2811 77.7333H64.8852C65.6199 77.8408 65.6199 78.683 64.8852 78.8084H50.4065C51.2487 80.2778 52.7002 81.2454 54.3129 81.2454H66.7488C67.5193 81.3171 67.4835 82.2668 66.7129 82.4102H54.0441C54.6713 83.6645 56.1586 85.1339 58.058 85.1339H70.4939C72.8234 85.1339 75.0812 83.3061 75.7442 81.3171C69.9384 78.916 67.0176 75.4576 66.1754 71.2824H43.2209M72.3933 58.739C73.2355 59.4558 74.1852 60.1008 75.2066 60.4951C76.0847 58.8107 77.2852 57.3771 78.665 56.1228C76.3534 56.4095 74.2031 57.2696 72.3933 58.739ZM68.3436 67.0176H73.4505C73.5581 64.9569 74.006 63.165 74.8482 61.3373C73.7193 60.8355 72.7338 60.2442 71.7841 59.4558C69.6696 61.5165 68.5049 64.1506 68.3615 67.0176M79.5251 62.3587V67.0356H74.4182C74.454 65.1899 74.8841 63.3263 75.6904 61.624C76.891 62.054 78.217 62.3407 79.5251 62.3587ZM87.5887 58.739C86.7465 59.4558 85.761 60.1008 84.7754 60.4951C83.8616 58.7748 82.7326 57.413 81.2991 56.1228C83.6107 56.4095 85.761 57.2696 87.5708 58.739M91.6385 67.0176H86.5315C86.4598 65.0107 85.976 63.1292 85.1876 61.3373C86.2806 60.8355 87.302 60.2084 88.2159 59.4558C90.402 61.5702 91.531 64.2223 91.6564 67.0176M80.439 62.3587V67.0356H85.5101C85.5101 65.154 85.0442 63.3621 84.2379 61.624C83.0373 62.054 81.7292 62.3407 80.439 62.3587ZM72.3933 76.2102C73.2355 75.5651 74.2211 74.8483 75.2066 74.4899C76.1205 76.1743 77.2494 77.572 78.665 78.8443C76.3534 78.5576 74.1673 77.6974 72.3933 76.2102ZM68.3436 67.9494H73.4505C73.5581 69.9922 74.006 71.7841 74.8482 73.6477C73.7193 74.1315 72.7338 74.7408 71.7841 75.5113C69.7054 73.4685 68.5049 70.8344 68.3615 67.9494M79.5251 72.5905V67.9494H74.4182C74.454 69.813 74.8841 71.6766 75.6904 73.3252C76.891 72.8951 78.217 72.6263 79.5251 72.5905ZM87.5887 76.2102C86.7824 75.5292 85.761 74.8841 84.7754 74.4899C83.8616 76.1743 82.7326 77.572 81.2991 78.8443C83.6107 78.5576 85.761 77.6974 87.5708 76.2102M91.6385 67.9494H86.5315C86.4598 69.9922 86.0119 71.82 85.1876 73.6477C86.2806 74.1315 87.2662 74.7408 88.2159 75.5113C90.2945 73.4685 91.531 70.7627 91.6564 67.9494M80.439 72.5905V67.9494H85.5101C85.5101 69.813 85.0442 71.6408 84.2379 73.3252C83.0731 72.8951 81.6933 72.6263 80.439 72.5905ZM79.5251 56.5887C78.1274 57.6997 76.891 59.2049 76.0846 60.7818C77.1777 61.1402 78.3425 61.4269 79.5251 61.4269V56.5887ZM80.439 56.5887C81.7829 57.6997 83.0373 59.1691 83.8436 60.7818C82.7506 61.176 81.5858 61.4269 80.439 61.4269V56.5887ZM79.5251 78.3784C78.1274 77.3032 76.891 75.798 76.0846 74.1674C77.1777 73.7732 78.3425 73.5581 79.5251 73.5581V78.3784ZM80.439 78.4142C81.7829 77.3032 83.0373 75.7801 83.8436 74.1674C82.7506 73.809 81.5858 73.5581 80.439 73.5581V78.4142Z" fill="#231F20"/>
<path d="M45.0308 131.777H47.7724V142.529H53.9724L53.6678 144.876H45.0308" fill="#231F20"/>
<path d="M55.7465 131.777H64.6881V134.107H58.4881V136.974H64.3118V139.321H58.4881V142.547H65.0644L64.7956 144.876H55.7465" fill="#231F20"/>
<path d="M65.9424 131.777H68.9886L72.1603 141.042L75.4395 131.777H78.3603L73.4505 144.876H70.8701" fill="#231F20"/>
<path d="M79.8835 131.777H88.8252V134.107H82.6252V136.974H88.4489V139.321H82.6252V142.547H89.2015L88.9327 144.876H79.8835" fill="#231F20"/>
<path d="M91.1547 131.777H93.8784V142.529H100.078L99.7917 144.876H91.1547" fill="#231F20"/>
<path d="M108.16 140.558C108.232 141.418 108.447 142.009 108.805 142.35C109.163 142.69 109.719 142.869 110.418 142.869C111.045 142.869 111.565 142.726 111.977 142.421C112.371 142.117 112.586 141.633 112.586 140.952C112.586 140.271 112.425 139.787 112.084 139.5C111.744 139.214 111.188 139.053 110.418 139.053H109.038V136.616H110.579C111.744 136.616 112.335 136.024 112.335 134.859C112.335 134.644 112.299 134.429 112.228 134.214C112.156 134.017 112.066 133.838 111.905 133.677C111.762 133.516 111.565 133.408 111.332 133.318C111.099 133.229 110.794 133.193 110.436 133.193C109.809 133.193 109.289 133.336 108.913 133.623C108.536 133.91 108.25 134.429 108.088 135.164L105.436 134.806C105.562 134.232 105.723 133.713 105.956 133.229C106.189 132.745 106.494 132.315 106.906 131.957C107.3 131.598 107.802 131.329 108.375 131.132C108.948 130.935 109.647 130.828 110.454 130.828C111.26 130.828 111.905 130.917 112.496 131.114C113.07 131.311 113.554 131.562 113.948 131.885C114.342 132.207 114.629 132.602 114.826 133.068C115.023 133.516 115.113 133.999 115.113 134.519C115.113 135.2 114.969 135.791 114.665 136.311C114.36 136.831 113.894 137.261 113.267 137.601C114.055 137.924 114.611 138.39 114.933 138.963C115.256 139.536 115.417 140.163 115.417 140.827C115.417 141.49 115.328 142.063 115.148 142.601C114.969 143.138 114.665 143.604 114.27 143.98C113.876 144.357 113.357 144.661 112.747 144.876C112.12 145.091 111.385 145.199 110.507 145.199C109.522 145.199 108.698 145.055 108.052 144.769C107.407 144.482 106.87 144.124 106.476 143.676C106.081 143.228 105.795 142.726 105.633 142.17C105.454 141.615 105.365 141.059 105.347 140.522" fill="#231F20"/>
</g>
<defs>
<clipPath id="clip0_150_3798">
<rect width="160" height="160" fill="white"/>
</clipPath>
</defs>
</svg>
