<svg width="160" height="160" viewBox="0 0 160 160" fill="none" xmlns="http://www.w3.org/2000/svg">
<g clip-path="url(#clip0_150_3770)">
<path d="M158.208 80.009C158.208 123.212 123.194 158.226 79.991 158.226C36.7879 158.226 1.79187 123.194 1.79187 80.009C1.79187 36.8239 36.8059 1.79193 80.0089 1.79193C123.212 1.79193 158.226 36.8059 158.226 80.009" fill="white"/>
<path d="M80.0089 158.226C123.212 158.226 158.226 123.212 158.226 80.0089C158.226 77.2315 158.083 74.4898 157.796 71.7841H2.22193C1.93522 74.4898 1.79187 77.2315 1.79187 80.0089C1.79187 123.212 36.8059 158.226 80.0089 158.226Z" fill="#ED1C24"/>
<path d="M31.7706 141.059C15.4642 128.193 5.14275 109.719 2.72366 89.076C-2.27577 46.4643 28.3301 7.72309 70.9418 2.72365C113.554 -2.25787 152.295 28.3301 157.294 70.9418C159.713 91.5847 153.961 111.941 141.059 128.229C128.193 144.536 109.719 154.839 89.076 157.276C68.4331 159.695 48.0949 153.943 31.7706 141.059ZM70.673 0.555435C26.8787 5.69823 -4.58734 45.5146 0.555449 89.3269C3.04621 110.561 13.6543 129.519 30.4267 142.78C47.181 156.022 68.1106 161.953 89.3269 159.462C110.561 156.972 129.519 146.381 142.78 129.609C156.022 112.837 161.953 91.9251 159.462 70.7089C154.302 26.8787 114.485 -4.58736 70.673 0.555435Z" fill="#231F20"/>
<path d="M126.778 80.0089C126.778 105.83 105.848 126.778 80.0089 126.778C54.1695 126.778 33.24 105.83 33.24 80.0089C33.24 54.1875 54.1875 33.24 80.0089 33.24C105.83 33.24 126.778 54.1875 126.778 80.0089Z" fill="#231F20"/>
<path d="M80.0089 127.835C53.632 127.835 32.1827 106.386 32.1827 80.0089C32.1827 53.632 53.632 32.1827 80.0089 32.1827C106.386 32.1827 127.835 53.632 127.835 80.0089C127.835 106.386 106.386 127.835 80.0089 127.835ZM80.0089 34.2972C54.7967 34.2972 34.2972 54.8146 34.2972 80.0089C34.2972 105.203 54.7967 125.721 80.0089 125.721C105.221 125.721 125.721 105.221 125.721 80.0089C125.721 54.7967 105.221 34.2972 80.0089 34.2972Z" fill="white"/>
<path d="M17.9908 67.1609C17.6325 67.0713 17.3099 66.9279 17.0232 66.7308C16.7544 66.5337 16.5215 66.2828 16.3602 65.9961C16.1989 65.7094 16.0914 65.4048 16.0377 65.0643C15.9839 64.7239 16.0018 64.3655 16.1093 63.9892C16.1989 63.6308 16.3602 63.3083 16.5573 63.0216C16.7544 62.7348 17.0053 62.5198 17.292 62.3585C17.5787 62.1973 17.8833 62.0898 18.2238 62.036C18.5643 61.9822 18.9047 62.0181 19.2631 62.1077C19.6752 62.2152 20.0157 62.3765 20.3024 62.5915C20.5891 62.8065 20.8041 63.0753 20.9654 63.362C21.1088 63.6487 21.2163 63.9713 21.2521 64.2938C21.288 64.6343 21.2521 64.9568 21.1804 65.2794C21.0909 65.6557 20.9475 65.9782 20.7325 66.247C20.5354 66.5337 20.2845 66.7487 20.0157 66.9279C19.729 67.1071 19.4244 67.2146 19.0839 67.2505C18.7434 67.3042 18.3851 67.2684 18.0088 67.1788" fill="#231F20"/>
<path d="M16.4139 51.177L17.3816 49.3851L28.5094 48.6325L20.2486 44.1169L21.2879 42.2354L32.7204 48.4712L31.7348 50.2631L20.6429 51.0336L28.8677 55.5314L27.8464 57.3949" fill="#231F20"/>
<path d="M27.6134 34.118C28.2406 33.4012 28.9215 32.8457 29.6203 32.4515C30.3192 32.0573 31.0539 31.8244 31.8065 31.7885C32.5591 31.7527 33.3296 31.8781 34.136 32.2007C34.9244 32.5232 35.7308 33.0429 36.5371 33.7596C37.3435 34.4764 37.9527 35.229 38.3649 35.9995C38.777 36.77 38.992 37.5585 39.0279 38.3469C39.0637 39.1354 38.9024 39.9417 38.5799 40.7302C38.2394 41.5365 37.7377 42.3071 37.0389 43.0955L34.2076 46.2851L24.4775 37.6302M35.6949 41.8053C36.1967 41.2319 36.555 40.6764 36.7521 40.1209C36.9493 39.5654 37.003 39.0278 36.9313 38.4903C36.8597 37.9527 36.6626 37.433 36.34 36.9492C36.0175 36.4475 35.5874 35.9637 35.0498 35.4799C33.9747 34.5301 32.9354 34.0105 31.9319 33.9209C30.9284 33.8492 29.9608 34.3151 29.0469 35.3544L27.3804 37.2359L34.2972 43.3822L35.7128 41.7874L35.6949 41.8053Z" fill="#231F20"/>
<path d="M49.5285 26.825C49.869 27.4342 50.084 28.0256 50.2095 28.6527C50.3349 29.262 50.3349 29.8712 50.2095 30.4805C50.084 31.0897 49.8332 31.6811 49.439 32.2365C49.0447 32.81 48.5072 33.3296 47.8083 33.8134C47.0378 34.351 46.2673 34.7094 45.4967 34.8707C44.7083 35.0319 43.9378 35.0319 43.1852 34.8348C42.4326 34.6556 41.7158 34.2793 40.999 33.7418C40.3002 33.2042 39.6372 32.5053 39.0459 31.6452C38.4366 30.7672 37.9886 29.9071 37.7378 29.0469C37.4869 28.1868 37.3973 27.3625 37.4869 26.5741C37.5765 25.7857 37.8274 25.0689 38.2395 24.388C38.6516 23.707 39.225 23.1157 39.9418 22.614C40.6048 22.1481 41.2499 21.8255 41.8412 21.6463C42.4505 21.4671 43.0239 21.4134 43.5973 21.4851C44.1528 21.5567 44.7083 21.7359 45.21 22.0226C45.7118 22.3093 46.2135 22.7036 46.6973 23.1695L45.1025 24.6747C44.7621 24.37 44.4395 24.1192 44.1349 23.9221C43.8123 23.725 43.4898 23.5995 43.1673 23.5458C42.8447 23.492 42.5042 23.5099 42.1459 23.5995C41.7875 23.6891 41.4291 23.8683 41.0349 24.155C40.5511 24.4955 40.1927 24.8897 39.9597 25.3377C39.7268 25.7857 39.6013 26.2695 39.6013 26.807C39.6013 27.3446 39.7089 27.9001 39.9239 28.4914C40.1389 29.0828 40.4794 29.6741 40.9094 30.3013C41.3574 30.9285 41.8054 31.4481 42.3071 31.8423C42.791 32.2365 43.2927 32.5412 43.7944 32.7024C44.2962 32.8816 44.7979 32.9175 45.2996 32.8458C45.8014 32.7741 46.2673 32.577 46.7332 32.2365C47.1453 31.9319 47.4678 31.6273 47.6829 31.3227C47.8979 31.018 48.0413 30.6776 48.095 30.3371C48.1488 29.9967 48.1488 29.6383 48.0592 29.2799C47.9696 28.9215 47.8262 28.5452 47.6291 28.151" fill="#231F20"/>
<path d="M66.8383 20.1591C66.9817 20.8221 67.0175 21.4672 66.9459 22.0943C66.8742 22.7215 66.695 23.2949 66.4083 23.8504C66.1037 24.388 65.6915 24.8718 65.154 25.3019C64.6164 25.7319 63.9354 26.0724 63.1291 26.3412C62.2331 26.6279 61.3909 26.7354 60.6025 26.6637C59.814 26.592 59.0794 26.3591 58.4164 25.9469C57.7533 25.5348 57.162 24.9793 56.6603 24.2625C56.1406 23.5458 55.7285 22.6857 55.4059 21.6822C55.0655 20.6608 54.9042 19.7111 54.9221 18.8151C54.9221 17.9192 55.1013 17.1128 55.4059 16.3781C55.7106 15.6614 56.1765 15.0342 56.7678 14.5145C57.3591 13.9949 58.0759 13.6007 58.9181 13.3319C59.6886 13.081 60.3875 12.9556 61.0325 12.9735C61.6597 12.9735 62.2331 13.1168 62.7528 13.3498C63.2724 13.5827 63.7383 13.9232 64.1326 14.3533C64.5268 14.7833 64.9031 15.303 65.2077 15.8764L63.2366 16.844C63.0037 16.4498 62.7707 16.1273 62.5198 15.8405C62.269 15.5718 62.0002 15.3388 61.7135 15.1955C61.4088 15.0342 61.0863 14.9625 60.71 14.9446C60.3516 14.9446 59.9395 14.9983 59.4915 15.1417C58.936 15.3209 58.488 15.5897 58.1296 15.9481C57.7713 16.3064 57.5204 16.7365 57.3591 17.2382C57.1978 17.74 57.1262 18.3134 57.1799 18.9406C57.2158 19.5677 57.3591 20.2487 57.5921 20.9475C57.825 21.6822 58.1117 22.3094 58.4701 22.829C58.8106 23.3487 59.2048 23.7787 59.6349 24.0834C60.0649 24.388 60.5308 24.5851 61.0325 24.6747C61.5164 24.7464 62.036 24.7105 62.5736 24.5313C63.0574 24.3701 63.4516 24.1729 63.7563 23.94C64.0609 23.7071 64.2759 23.4383 64.4372 23.1157C64.5985 22.8111 64.6881 22.4706 64.706 22.0943C64.7239 21.718 64.706 21.3238 64.6343 20.8758" fill="#231F20"/>
<path d="M68.8453 11.1636L77.4644 10.2856L77.6616 12.1671L71.2286 12.8301L71.587 16.2706L77.6436 15.6434L77.8407 17.5608L71.7841 18.17L72.1783 22.0047L78.9517 21.3059L78.8801 23.2232L70.1714 24.1192" fill="#231F20"/>
<path d="M86.9436 10.7336C87.9113 10.8232 88.7176 11.0382 89.3269 11.3249C89.9361 11.6116 90.402 11.97 90.7425 12.3821C91.065 12.7943 91.2801 13.2243 91.3876 13.6902C91.4951 14.1561 91.513 14.6041 91.4772 15.0342C91.3876 15.8764 91.1546 16.5752 90.7604 17.1128C90.3662 17.6504 89.7928 18.0446 89.0223 18.3313L91.1367 24.2625L88.7356 24.0116L86.9436 18.618C86.8361 18.618 86.7107 18.618 86.6032 18.618C86.4778 18.618 86.3523 18.618 86.2269 18.5821L83.9153 18.3492L83.3957 23.4562L81.2454 23.2411L82.5535 10.2856M86.5136 16.7365C87.0153 16.7902 87.4275 16.7723 87.7679 16.7006C88.1084 16.629 88.3772 16.5214 88.5743 16.3423C88.7893 16.181 88.9327 15.966 89.0402 15.6972C89.1477 15.4284 89.2194 15.1417 89.2373 14.8191C89.2731 14.5145 89.2373 14.2278 89.1835 13.9769C89.1119 13.7261 88.9864 13.4931 88.7893 13.296C88.5922 13.0989 88.3234 12.9376 87.983 12.7943C87.6425 12.6688 87.2124 12.5613 86.6928 12.5255L84.4708 12.3104L84.0407 16.4856L86.4777 16.7365H86.5136Z" fill="#231F20"/>
<path d="M98.824 14.9625L94.8818 13.7619L95.4373 11.9341L105.418 14.9983L104.845 16.8261L100.921 15.6255L97.6593 26.2336L95.5448 25.5885" fill="#231F20"/>
<path d="M108.733 16.611L110.722 17.5428L105.167 29.3157L103.178 28.366" fill="#231F20"/>
<path d="M121.868 24.2267L120.829 25.8215L115.722 22.4706L113.697 25.5527L118.517 28.7065L117.46 30.3013L112.658 27.1475L109.629 31.7707L107.784 30.5701L114.916 19.6752" fill="#231F20"/>
<path d="M124.968 26.8787L126.635 28.3301L118.087 38.1319L116.421 36.6804" fill="#231F20"/>
<path d="M130.111 31.5198L135.773 38.0961L134.34 39.3325L130.129 34.4406L127.495 36.6984L131.473 41.3215L130.021 42.558L126.043 37.9527L123.122 40.4614L127.566 45.6042L125.954 46.6614L120.255 40.0134" fill="#231F20"/>
<path d="M140.988 46.4464C141.436 47.2886 141.74 48.1129 141.866 48.9193C142.009 49.7256 141.955 50.4782 141.74 51.195C141.525 51.9297 141.131 52.5927 140.558 53.2378C139.984 53.8649 139.214 54.4384 138.264 54.958C137.314 55.4777 136.401 55.7823 135.54 55.9077C134.68 56.0332 133.856 55.9615 133.103 55.7285C132.351 55.4956 131.652 55.0655 131.007 54.4742C130.362 53.8829 129.806 53.1303 129.322 52.2343L127.298 48.4713L138.766 42.2892M131.007 51.41C131.365 52.091 131.777 52.6106 132.225 52.9869C132.673 53.3632 133.157 53.5962 133.695 53.7037C134.214 53.8112 134.77 53.7933 135.361 53.6678C135.935 53.5424 136.544 53.2915 137.171 52.969C138.425 52.2881 139.268 51.4817 139.698 50.5678C140.128 49.6539 140.002 48.5788 139.339 47.3603L138.139 45.1562L129.985 49.5464L131.007 51.4279V51.41Z" fill="#231F20"/>
<path d="M140.773 62.4124C141.131 62.3228 141.489 62.3048 141.83 62.3586C142.17 62.4124 142.475 62.5199 142.762 62.6991C143.048 62.8783 143.281 63.0933 143.496 63.38C143.694 63.6488 143.855 63.9713 143.944 64.3655C144.034 64.7239 144.052 65.0823 143.998 65.4228C143.944 65.7632 143.837 66.0858 143.658 66.3725C143.479 66.6592 143.263 66.8921 142.977 67.0893C142.708 67.2864 142.385 67.4297 142.027 67.5193C141.615 67.6268 141.239 67.6448 140.88 67.5731C140.522 67.5014 140.217 67.3939 139.948 67.1968C139.68 67.0176 139.447 66.7846 139.268 66.4979C139.07 66.2291 138.945 65.9245 138.873 65.602C138.784 65.2257 138.748 64.8673 138.802 64.5268C138.855 64.1864 138.963 63.8817 139.124 63.595C139.285 63.3083 139.518 63.0575 139.805 62.8603C140.092 62.6632 140.414 62.502 140.791 62.4124" fill="#231F20"/>
<path d="M53.7216 102.892L56.7141 88.0726H61.606L58.6135 102.892M61.606 102.892L68.9887 88.0726H73.791L76.8193 102.892H72.2858L72.0349 101.136H67.2147L66.4442 102.892H61.5881H61.606ZM68.4332 98.0536H71.5332L70.7268 92.6241L68.4332 98.0536ZM81.317 102.892L82.9835 91.7461H78.7188L79.4534 88.001H92.5523L91.8177 91.7461H87.7679L86.1194 102.892H81.2991H81.317ZM103.071 88.0905H98.2506L90.8679 102.91H95.724L96.4945 101.154H101.315L101.53 102.91H106.099L103.071 88.0905ZM97.7131 98.0536L100.007 92.6241L100.813 98.0536H97.7131ZM116.743 71.3003H93.7888C92.9466 75.4755 90.0257 78.9339 84.2199 81.335C84.8829 83.3061 87.1408 85.1518 89.4702 85.1518H101.906C103.806 85.1518 105.311 83.6824 105.92 82.4281H93.2691C92.4986 82.2847 92.4627 81.335 93.2333 81.2634H105.669C107.282 81.2634 108.733 80.2957 109.576 78.8264H95.0969C94.3622 78.7188 94.3622 77.8587 95.0969 77.7512H109.701C111.152 77.7512 112.514 76.4969 113.052 75.35H97.0321C96.2258 75.2425 96.2258 74.0778 97.0321 74.0419H113.356C114.629 74.0419 115.883 72.7518 116.743 71.3182M43.2568 71.3003C44.1348 72.7338 45.3712 74.024 46.6435 74.024H62.9499C63.7563 74.0599 63.7563 75.2246 62.9499 75.3321H46.9302C47.4857 76.4789 48.8296 77.7333 50.2811 77.7333H64.8852C65.6199 77.8408 65.6199 78.7009 64.8852 78.8084H50.4065C51.2487 80.2778 52.7002 81.2454 54.3129 81.2454H66.7488C67.5193 81.3171 67.4835 82.2668 66.7129 82.4102H54.0441C54.6713 83.6645 56.1586 85.1339 58.058 85.1339H70.4939C72.8234 85.1339 75.0812 83.3061 75.7442 81.3171C69.9384 78.916 67.0176 75.4576 66.1754 71.2824H43.2209M72.3933 58.739C73.2355 59.4558 74.1852 60.1008 75.2066 60.4951C76.0847 58.8107 77.2852 57.3771 78.665 56.1228C76.3534 56.4095 74.2031 57.2696 72.3933 58.739ZM68.3436 67.0176H73.4505C73.5581 64.9569 74.006 63.165 74.8482 61.3373C73.7193 60.8355 72.7338 60.2442 71.7841 59.4558C69.6696 61.4985 68.5049 64.1506 68.3615 67.0176M79.5251 62.3587V67.0356H74.4182C74.454 65.1899 74.8841 63.3263 75.6904 61.624C76.891 62.054 78.217 62.3407 79.5251 62.3587ZM87.5887 58.739C86.7465 59.4558 85.761 60.1008 84.7754 60.4951C83.8616 58.7748 82.7326 57.413 81.2991 56.1228C83.6107 56.4095 85.761 57.2696 87.5708 58.739M91.6385 67.0176H86.5315C86.4598 65.0107 85.976 63.1292 85.1876 61.3373C86.2806 60.8355 87.302 60.2084 88.2159 59.4558C90.402 61.5702 91.531 64.2223 91.6564 67.0176M80.439 62.3587V67.0356H85.5101C85.5101 65.154 85.0442 63.3621 84.2379 61.624C83.0373 62.054 81.7292 62.3407 80.439 62.3587ZM72.3933 76.2102C73.2355 75.5651 74.2211 74.8483 75.2066 74.4899C76.1205 76.1743 77.2494 77.5899 78.665 78.8443C76.3534 78.5576 74.1673 77.6974 72.3933 76.2102ZM68.3436 67.9494H73.4505C73.5581 69.9922 74.006 71.7841 74.8482 73.6477C73.7193 74.1495 72.7338 74.7408 71.7841 75.5113C69.7054 73.4685 68.5049 70.8344 68.3615 67.9494M79.5251 72.5905V67.9494H74.4182C74.454 69.813 74.8841 71.6766 75.6904 73.3252C76.891 72.8951 78.217 72.6263 79.5251 72.5905ZM87.5887 76.2102C86.7824 75.5292 85.761 74.8841 84.7754 74.4899C83.8616 76.1743 82.7326 77.5899 81.2991 78.8443C83.6107 78.5576 85.761 77.6974 87.5708 76.2102M91.6385 67.9494H86.5315C86.4598 69.9922 86.0119 71.82 85.1876 73.6477C86.2806 74.1495 87.2662 74.7408 88.2159 75.5113C90.2945 73.4685 91.531 70.7627 91.6564 67.9494M80.439 72.5905V67.9494H85.5101C85.5101 69.813 85.0442 71.6408 84.2379 73.3252C83.0731 72.8951 81.6933 72.6263 80.439 72.5905ZM79.5251 56.5887C78.1274 57.6997 76.891 59.187 76.0846 60.7639C77.1777 61.1222 78.3425 61.409 79.5251 61.409V56.5708V56.5887ZM80.439 56.5887C81.7829 57.6997 83.0373 59.1511 83.8436 60.7639C82.7506 61.1581 81.5858 61.409 80.439 61.409V56.5708V56.5887ZM79.5251 78.3784C78.1274 77.3032 76.891 75.798 76.0846 74.1674C77.1777 73.7732 78.3425 73.5581 79.5251 73.5581V78.3784ZM80.439 78.4142C81.7829 77.3032 83.0373 75.7801 83.8436 74.1674C82.7506 73.809 81.5858 73.5581 80.439 73.5581V78.4142Z" fill="white"/>
<path d="M45.0308 131.741H47.7724V142.493H53.9724L53.6678 144.84H45.0308" fill="white"/>
<path d="M55.7465 131.741H64.6881V134.089H58.4881V136.938H64.3118V139.285H58.4881V142.511H65.0644L64.7956 144.84H55.7465" fill="white"/>
<path d="M65.9424 131.741H68.9886L72.1603 141.006L75.4216 131.741H78.3603L73.4505 144.84H70.8701" fill="white"/>
<path d="M79.8835 131.741H88.8252V134.089H82.6252V136.938H88.4489V139.285H82.6252V142.511H89.2015L88.9327 144.84H79.8835" fill="white"/>
<path d="M91.1547 131.741H93.8784V142.493H100.078L99.7917 144.84H91.1547" fill="white"/>
<path d="M105.132 139.913L111.367 131.204H113.894V139.572H115.632L115.328 141.776H113.894V144.84H111.26V141.776H105.114M111.278 139.572V134.806L107.963 139.572H111.278Z" fill="white"/>
</g>
<defs>
<clipPath id="clip0_150_3770">
<rect width="160" height="160" fill="white"/>
</clipPath>
</defs>
</svg>
