<svg width="160" height="160" viewBox="0 0 160 160" fill="none" xmlns="http://www.w3.org/2000/svg">
<g clip-path="url(#clip0_150_3705)">
<path d="M108.8 0H0V109.333L50.6667 160H160V51.2L108.8 0Z" fill="white"/>
<path d="M107.467 3.34222L156.676 52.5511V156.676H52L3.34222 108V3.34222H107.467ZM108.8 0H0V109.333L50.6667 160H160V51.2L108.8 0Z" fill="#242E3D"/>
<path d="M35.5912 36.6578C35.5912 37.1911 35.5912 37.7245 35.8578 38.2578C35.9823 38.6667 36.2489 39.2 36.3912 39.5911C36.5156 39.7334 36.5156 39.8578 36.5156 40C36.5156 40.2667 36.3912 40.4089 36.1067 40.5333L34.8978 41.3334H34.5067C34.24 41.3334 34.0978 41.2089 33.9734 41.0667C33.7067 40.8 33.44 40.5333 33.2978 40.2667C33.1734 40 32.8889 39.5911 32.7645 39.2C31.4312 40.8 29.5645 41.7422 27.4312 41.7422C26.0978 41.8667 24.7645 41.3333 23.84 40.4089C22.8978 39.4667 22.5067 38.2756 22.5067 36.9422C22.5067 35.4845 23.04 34.1511 24.1067 33.2089C25.3156 32.2667 26.8978 31.7511 28.5156 31.7511C29.1912 31.7511 29.8489 31.7511 30.3823 31.8756L32.3734 32.2667V30.9333C32.4978 29.8667 32.2312 28.8 31.5734 28C30.7734 27.3245 29.7067 27.0756 28.64 27.2C27.9645 27.2 27.3067 27.3245 26.6489 27.4667C25.9912 27.6089 25.3156 27.8756 24.6578 28.1422C24.3912 28.2667 24.2489 28.2667 23.9823 28.4089H23.7156C23.4489 28.4089 23.3067 28.2667 23.3067 27.8756V26.9333C23.3067 26.6667 23.3067 26.5422 23.4312 26.2578C23.5556 26.1334 23.6978 25.9911 23.9645 25.8667C24.64 25.4578 25.4223 25.1911 26.2223 25.0667C27.1645 24.8 28.0889 24.6578 29.0312 24.6578C30.7556 24.5334 32.3734 25.0667 33.6889 26.1156C34.7556 27.3245 35.2889 28.9067 35.1467 30.5245L35.5378 36.6578H35.5912ZM28.2667 39.3245C28.9423 39.3245 29.4756 39.2 30.1334 39.0578C30.8089 38.7911 31.3423 38.3822 31.8756 37.8489C32.1423 37.5822 32.4089 37.1734 32.5512 36.64C32.6934 36.1067 32.6756 35.5733 32.6756 35.04V34.24C32.1423 34.1156 31.6089 33.9734 31.0756 33.9734C30.5423 33.8489 30.0089 33.8489 29.3334 33.8489C28.4089 33.7245 27.4667 33.9734 26.6667 34.5245C25.6 35.5911 25.4578 37.3156 26.4 38.5245C26.9334 39.2 27.5912 39.4489 28.2667 39.3245ZM42.7912 41.3334C42.5245 41.3334 42.2578 41.3334 42.1156 41.2089C41.9912 41.0845 41.8489 40.8 41.7245 40.5333L37.4578 26.5245C37.3334 26.2578 37.3334 25.9911 37.3334 25.8489C37.3334 25.5822 37.4578 25.44 37.6 25.44H39.4667C39.7334 25.44 40 25.44 40.1423 25.5645C40.2667 25.7067 40.4089 25.9734 40.5512 26.24L43.6089 38.1156L46.4178 26.24C46.4178 25.9734 46.5423 25.7067 46.8089 25.5645C47.0756 25.44 47.3423 25.44 47.4845 25.44H48.9423C49.2089 25.44 49.4756 25.44 49.6178 25.5645C49.76 25.7067 49.8845 25.9734 50.0267 26.24L52.8178 38.3822L55.8934 26.24C55.8934 25.9734 56.0178 25.7067 56.2845 25.5645C56.5512 25.44 56.6934 25.44 56.96 25.44H58.7023C58.9689 25.44 59.1112 25.5645 59.1112 25.7067V26.0978C59.1112 26.2222 58.9689 26.3645 58.9689 26.5067L54.7023 40.3733C54.7023 40.64 54.5778 40.9067 54.2934 41.0489C54.1689 41.3156 53.9023 41.3156 53.6178 41.3156H52.0178C51.7512 41.3156 51.4845 41.3156 51.3423 41.1911C51.2178 40.9245 51.0756 40.7822 50.9334 40.5156L48.1423 28.9067L45.3512 40.5156C45.3512 40.7822 45.2267 41.0489 44.9423 41.1911C44.8178 41.3156 44.5512 41.3156 44.4089 41.3156H42.8089L42.7912 41.3334ZM65.9912 41.8667C65.0667 41.8667 64.1245 41.7422 63.2 41.6C62.5245 41.4756 61.7423 41.2089 61.0667 40.9245C60.6578 40.8 60.3912 40.3911 60.3912 39.8578V38.9156C60.3912 38.5245 60.5156 38.3822 60.7823 38.3822H61.0489C61.1734 38.3822 61.3156 38.5067 61.4401 38.5067C62.1156 38.7734 62.7734 39.04 63.4312 39.1822C64.1067 39.3067 64.8889 39.4489 65.5645 39.4489C66.5067 39.4489 67.4312 39.3245 68.2312 38.7733C68.7645 38.3822 69.1734 37.7067 69.1734 37.0489C69.1734 36.5156 69.0489 36.1067 68.64 35.84C68.1067 35.4311 67.4312 35.04 66.7734 34.8978L64.1067 34.0978C63.0401 33.8311 61.9734 33.1733 61.1734 32.2311C60.64 31.4311 60.2312 30.5067 60.2312 29.5645C60.2312 28.8889 60.3734 28.2311 60.7645 27.5734C61.0312 27.04 61.5645 26.5067 62.0978 26.1156C62.6312 25.7245 63.3067 25.3156 63.9645 25.1911C64.7645 24.9245 65.4223 24.9245 66.2223 24.9245C66.6312 24.9245 67.0223 24.9245 67.4312 25.0667C67.84 25.0667 68.2312 25.1911 68.64 25.3334C69.0489 25.4756 69.3156 25.4578 69.7067 25.6C69.9734 25.7422 70.24 25.7422 70.5067 25.8667C70.7734 25.9911 70.8978 26.1334 71.04 26.2578C71.1645 26.4 71.1645 26.6667 71.1645 26.9333V27.7334C71.1645 28.1245 71.04 28.2667 70.7556 28.2667C70.4712 28.2667 70.2223 28.1422 70.08 28C69.0134 27.4667 67.8223 27.3245 66.6134 27.3245C65.8134 27.3245 65.0134 27.4489 64.2134 27.8578C63.68 28.1245 63.2889 28.7822 63.4134 29.4578C63.4134 29.9911 63.5378 30.4 63.9467 30.7911C64.48 31.3245 65.1556 31.5911 65.9378 31.7334L68.48 32.5333C69.5467 32.8 70.4712 33.4578 71.2712 34.2578C71.8045 34.9334 72.0712 35.8578 72.0712 36.8C72.0712 37.4756 71.9467 38.2578 71.5378 38.9333C71.2712 39.6089 70.7378 40.1422 70.2045 40.5333C69.6712 40.9245 68.8712 41.3333 68.2134 41.6C67.68 41.7422 66.7556 41.8667 65.9556 41.8667H65.9912Z" fill="#242E3D"/>
<path d="M69.3333 50.5422C63.3244 54.9333 54.7911 57.2089 47.3244 57.2089C37.4577 57.2089 27.8577 53.6 20.5333 46.9333C19.9999 46.4 20.5333 45.7422 21.2088 46.1333C29.3333 50.9333 38.6666 53.3333 47.9999 53.3333C55.0755 53.3333 62.0088 51.8755 68.5333 49.2089C69.4577 48.8 70.3999 49.8844 69.3333 50.5422ZM70.2577 54.5422C69.9911 55.0755 70.5244 55.3422 71.0577 54.9333C74.2577 52.2667 75.0577 46.6667 74.3999 45.8667C73.7244 45.0667 68.1244 44.4089 64.7999 46.7911C64.2666 47.2 64.4088 47.7333 64.9244 47.5911C66.7911 47.3244 71.0577 46.7911 71.8577 47.8578C72.6577 48.9244 70.9155 52.7822 70.2577 54.5244V54.5422Z" fill="#FF9900"/>
<path d="M61.4934 85.5289C61.4934 84.1778 61.7422 82.9867 62.2222 81.9734C62.72 80.9423 63.4489 80.16 64.3911 79.5912C65.3511 79.04 66.4889 78.7556 67.8045 78.7556C69.12 78.7556 70.1867 79.0223 71.1467 79.5734C72.0889 80.1067 72.8178 80.8712 73.3334 81.8845C73.8489 82.8978 74.0978 84.1067 74.0978 85.5289C74.0978 87.1823 73.7423 88.5689 73.0311 89.6889C72.3378 90.8089 71.3423 91.5734 70.0445 91.9823C70.5778 92.2667 71.1289 92.4978 71.7334 92.6578C72.32 92.8178 73.0311 92.9245 73.8311 92.9956V95.2712C72.7111 95.1467 71.5911 94.8267 70.4889 94.3111C69.3867 93.7956 68.4089 93.1378 67.5378 92.32C65.6534 92.2845 64.16 91.6623 63.0756 90.4711C62.0089 89.2623 61.4756 87.6267 61.4756 85.5467L61.4934 85.5289ZM64.3734 85.5289C64.3734 87.0045 64.6578 88.1245 65.2445 88.9067C65.8311 89.6711 66.6845 90.0445 67.8045 90.0445C68.9245 90.0445 69.76 89.6711 70.3467 88.9067C70.9334 88.1245 71.2178 87.0045 71.2178 85.5289C71.2178 84.0534 70.9334 82.9334 70.3467 82.1689C69.76 81.4045 68.9245 81.0312 67.8045 81.0312C66.6845 81.0312 65.8311 81.4223 65.2445 82.1689C64.6578 82.9334 64.3734 84.0534 64.3734 85.5289Z" fill="#242E3D"/>
<path d="M82.88 92L82.6311 91.0045C81.5289 91.8578 80.3556 92.2667 79.1467 92.2667C78.2934 92.2667 77.6356 92.0178 77.1734 91.52C76.7111 91.0223 76.4622 90.3289 76.4622 89.44V82.4534H79.2V88.6756C79.2 89.6712 79.6445 90.1689 80.5156 90.1689C81.1556 90.1689 81.7956 89.9734 82.4178 89.5645V82.4356H85.1378V91.9823H82.88V92Z" fill="#242E3D"/>
<path d="M93.2089 92L92.9778 91.1645C92.6045 91.52 92.1422 91.7867 91.6445 92C91.1467 92.1956 90.6489 92.2845 90.1867 92.2845C89.2622 92.2845 88.5334 92.0178 87.9823 91.52C87.4311 90.9867 87.1467 90.2934 87.1467 89.4223C87.1467 88.8356 87.2889 88.3023 87.5911 87.8578C87.8934 87.3956 88.32 87.04 88.8889 86.7734C89.4578 86.5067 90.1156 86.3823 90.8623 86.3823C91.4489 86.3823 92.1245 86.4712 92.8356 86.6312V85.6889C92.8356 85.12 92.7111 84.7289 92.48 84.5156C92.2311 84.3023 91.8045 84.1778 91.1823 84.1778C90.1511 84.1778 89.0311 84.3734 87.7867 84.7645V82.9512C88.2667 82.72 88.8356 82.5245 89.5289 82.3823C90.2223 82.24 90.9334 82.1689 91.6623 82.1689C92.9423 82.1689 93.8667 82.4356 94.4534 82.9334C95.0578 83.4489 95.3423 84.2667 95.3423 85.3689V91.9645H93.1911L93.2089 92ZM90.9511 90.4889C91.2534 90.4889 91.5734 90.4178 91.9111 90.2756C92.2489 90.1334 92.5511 89.9556 92.8356 89.7067V88.0889C92.2845 88 91.8045 87.9645 91.3778 87.9645C90.2934 87.9645 89.7422 88.3911 89.7422 89.2623C89.7422 89.6534 89.8489 89.9556 90.0622 90.1867C90.2756 90.4 90.56 90.5067 90.9511 90.5067V90.4889Z" fill="#242E3D"/>
<path d="M102.116 91.8223C101.6 92.0356 101.031 92.1245 100.444 92.1245C98.7556 92.1245 97.92 91.1823 97.92 89.3156V78.1867H100.64V89.0845C100.64 89.44 100.693 89.6889 100.8 89.8311C100.924 89.9734 101.12 90.0445 101.387 90.0445C101.564 90.0445 101.796 90.0267 102.098 89.9734V91.8045L102.116 91.8223Z" fill="#242E3D"/>
<path d="M104.071 92V82.4534H106.791V92H104.071ZM105.44 80.9778C104.96 80.9778 104.587 80.8534 104.302 80.6045C104.018 80.3378 103.858 79.9823 103.858 79.52C103.858 79.0578 104 78.7378 104.302 78.4889C104.587 78.2223 104.978 78.0978 105.44 78.0978C105.902 78.0978 106.276 78.2223 106.56 78.4889C106.844 78.7378 107.004 79.0756 107.004 79.52C107.004 79.9645 106.862 80.3378 106.56 80.6045C106.276 80.8534 105.902 80.9778 105.44 80.9778Z" fill="#242E3D"/>
<path d="M109.938 92V84.48H108.444V82.7912L109.938 82.5245V81.6711C109.938 80.4089 110.222 79.4667 110.791 78.8623C111.378 78.24 112.249 77.92 113.458 77.92C113.796 77.92 114.133 77.9556 114.507 78.0267C114.862 78.0978 115.182 78.1867 115.449 78.2934V80.1423C114.969 80.0712 114.542 80.0356 114.204 80.0356C113.618 80.0356 113.227 80.1245 112.996 80.3378C112.782 80.5156 112.676 80.8534 112.676 81.3156V82.4534H115.342V84.48H112.676V92H109.938Z" fill="#242E3D"/>
<path d="M116.782 92V82.4534H119.52V92H116.782ZM118.169 80.9778C117.689 80.9778 117.316 80.8534 117.013 80.6045C116.729 80.3378 116.569 79.9823 116.569 79.52C116.569 79.0578 116.711 78.7378 117.013 78.4889C117.298 78.2223 117.689 78.0978 118.169 78.0978C118.649 78.0978 119.004 78.2223 119.289 78.4889C119.573 78.7378 119.733 79.0756 119.733 79.52C119.733 79.9645 119.591 80.3378 119.289 80.6045C119.004 80.8534 118.631 80.9778 118.169 80.9778Z" fill="#242E3D"/>
<path d="M124.231 87.8934C124.284 88.7111 124.533 89.3156 124.978 89.6889C125.422 90.0445 126.116 90.2223 127.076 90.2223C127.929 90.2223 128.889 90.0623 129.991 89.7423V91.5556C129.564 91.7867 129.031 91.9645 128.427 92.0712C127.822 92.1956 127.2 92.2667 126.56 92.2667C124.978 92.2667 123.787 91.84 122.951 91.0045C122.116 90.1334 121.707 88.8889 121.707 87.2356C121.707 85.5823 122.116 84.4089 122.933 83.52C123.769 82.6312 124.907 82.1867 126.364 82.1867C127.591 82.1867 128.533 82.5423 129.191 83.2178C129.867 83.8934 130.187 84.8534 130.187 86.1156C130.187 86.4 130.169 86.72 130.116 87.0578C130.08 87.4134 130.044 87.6978 129.991 87.9112H124.196L124.231 87.8934ZM126.276 84.0712C125.653 84.0712 125.173 84.2667 124.818 84.64C124.462 85.0134 124.267 85.5289 124.213 86.2223H127.876V85.9023C127.876 84.6756 127.342 84.0712 126.276 84.0712Z" fill="#242E3D"/>
<path d="M138.756 92L138.524 91.1645C137.76 91.8756 136.853 92.2134 135.769 92.2134C134.987 92.2134 134.293 92.0178 133.707 91.6267C133.102 91.2178 132.64 90.6667 132.32 89.92C131.982 89.1734 131.822 88.2845 131.822 87.2712C131.822 85.7245 132.178 84.4978 132.924 83.5912C133.653 82.6667 134.631 82.1867 135.84 82.1867C136.836 82.1867 137.689 82.4712 138.4 83.0223V78.1867H141.138V92H138.756ZM136.676 90.1511C137.262 90.1511 137.849 89.9734 138.4 89.6356V84.7112C137.849 84.3912 137.244 84.2312 136.551 84.2312C135.858 84.2312 135.396 84.48 135.076 84.9778C134.756 85.4578 134.596 86.2045 134.596 87.2C134.596 88.1956 134.756 88.9245 135.093 89.4045C135.431 89.9023 135.964 90.1334 136.676 90.1334V90.1511Z" fill="#242E3D"/>
<path d="M66.3467 104.356C65.2445 103.947 64.4445 103.449 63.9467 102.862C63.4489 102.276 63.2178 101.511 63.2178 100.587C63.2178 99.4134 63.6445 98.4889 64.5156 97.7956C65.3867 97.1023 66.5422 96.7467 68 96.7467C69.2089 96.7467 70.4178 96.9778 71.5911 97.4223V99.5556C70.3823 99.1823 69.28 98.9867 68.2311 98.9867C66.7556 98.9867 66.0267 99.4667 66.0267 100.409C66.0267 100.764 66.1511 101.067 66.4 101.28C66.6667 101.511 67.1289 101.742 67.84 101.991L69.2445 102.489C70.4 102.898 71.2178 103.396 71.6978 103.964C72.1956 104.533 72.4445 105.262 72.4445 106.169C72.4445 107.467 71.9823 108.48 71.0578 109.209C70.1334 109.938 68.8889 110.311 67.2889 110.311C66.5778 110.311 65.8845 110.24 65.1911 110.098C64.4978 109.973 63.8934 109.796 63.3956 109.582V107.449C64.0178 107.644 64.6934 107.804 65.3867 107.911C66.0978 108.036 66.72 108.071 67.3067 108.071C68.0356 108.071 68.6045 107.947 69.0134 107.68C69.4222 107.396 69.6178 107.004 69.6178 106.507C69.6178 106.133 69.4934 105.831 69.2445 105.618C69.0134 105.387 68.5156 105.138 67.7867 104.871L66.3645 104.356H66.3467Z" fill="#242E3D"/>
<path d="M78.7911 110.276C77.2978 110.276 76.1423 109.831 75.3067 108.942C74.4711 108.053 74.0622 106.827 74.0622 105.227C74.0622 103.627 74.4711 102.4 75.3067 101.511C76.1423 100.622 77.2978 100.178 78.7911 100.178C80.2845 100.178 81.44 100.622 82.2756 101.511C83.1111 102.4 83.52 103.644 83.52 105.227C83.52 106.809 83.1111 108.053 82.2756 108.942C81.44 109.831 80.2845 110.276 78.7911 110.276ZM78.7911 108.196C80.0889 108.196 80.7467 107.218 80.7467 105.244C80.7467 103.271 80.0889 102.293 78.7911 102.293C77.4934 102.293 76.8356 103.271 76.8356 105.244C76.8356 107.218 77.4934 108.196 78.7911 108.196Z" fill="#242E3D"/>
<path d="M86.0978 110.009V102.489H84.6045V100.8L86.0978 100.533V99.68C86.0978 98.4178 86.3822 97.4756 86.9511 96.8712C87.5378 96.2489 88.4089 95.9289 89.6178 95.9289C89.9556 95.9289 90.2934 95.9645 90.6667 96.0356C91.0222 96.1067 91.3422 96.1956 91.6089 96.3023V98.1511C91.1289 98.08 90.7023 98.0445 90.3645 98.0445C89.7778 98.0445 89.3867 98.1334 89.1556 98.3289C88.9423 98.5067 88.8356 98.8445 88.8356 99.3067V100.444H91.5023V102.471H88.8356V109.991H86.1156L86.0978 110.009Z" fill="#242E3D"/>
<path d="M98.56 109.742C97.8845 110.009 97.1378 110.133 96.3022 110.133C95.2534 110.133 94.4534 109.884 93.9556 109.387C93.4578 108.889 93.2089 108.124 93.2089 107.076V102.471H91.7689V100.782L93.2978 100.498L93.6889 97.8667H95.9467V100.444H98.5067V102.471H95.9467V106.951C95.9467 107.36 96.0356 107.644 96.2311 107.804C96.4267 107.947 96.7645 108.036 97.2267 108.036C97.6178 108.036 98.0622 108 98.56 107.929V109.742Z" fill="#242E3D"/>
<path d="M108.018 110.009L106.4 103.307L104.729 110.009H102.08L99.04 100.462H101.92L103.52 107.36L105.227 100.462H107.662L109.44 107.378L110.916 100.462H113.724L110.667 110.009H108.018Z" fill="#242E3D"/>
<path d="M120.604 110.009L120.373 109.173C120 109.529 119.556 109.796 119.04 110.009C118.542 110.204 118.044 110.293 117.582 110.293C116.658 110.293 115.929 110.027 115.378 109.529C114.827 108.996 114.542 108.302 114.542 107.431C114.542 106.844 114.684 106.311 114.987 105.867C115.289 105.404 115.716 105.049 116.284 104.782C116.853 104.516 117.511 104.391 118.258 104.391C118.844 104.391 119.52 104.48 120.231 104.64V103.698C120.231 103.129 120.107 102.738 119.876 102.524C119.627 102.311 119.2 102.187 118.578 102.187C117.547 102.187 116.409 102.382 115.182 102.773V100.96C115.662 100.729 116.231 100.533 116.924 100.391C117.618 100.249 118.329 100.178 119.058 100.178C120.338 100.178 121.262 100.444 121.849 100.942C122.453 101.458 122.738 102.276 122.738 103.378V109.973H120.587L120.604 110.009ZM118.347 108.48C118.649 108.48 118.969 108.409 119.307 108.267C119.644 108.124 119.947 107.947 120.231 107.698V106.08C119.698 105.991 119.2 105.956 118.773 105.956C117.689 105.956 117.156 106.382 117.156 107.253C117.156 107.644 117.262 107.947 117.476 108.178C117.689 108.391 117.991 108.498 118.364 108.498L118.347 108.48Z" fill="#242E3D"/>
<path d="M125.333 110.009V100.462H127.556L127.893 101.884C128.391 101.333 128.853 100.96 129.316 100.747C129.76 100.516 130.24 100.391 130.738 100.391C130.969 100.391 131.218 100.391 131.484 100.427V102.951C131.111 102.88 130.738 102.844 130.311 102.844C129.511 102.844 128.747 102.987 128.053 103.289V110.027H125.316L125.333 110.009Z" fill="#242E3D"/>
<path d="M134.916 105.902C134.969 106.72 135.218 107.324 135.662 107.698C136.107 108.053 136.8 108.231 137.76 108.231C138.613 108.231 139.573 108.071 140.676 107.751V109.564C140.249 109.796 139.716 109.973 139.111 110.08C138.507 110.204 137.884 110.276 137.244 110.276C135.662 110.276 134.471 109.849 133.636 109.013C132.8 108.16 132.391 106.898 132.391 105.244C132.391 103.591 132.8 102.418 133.618 101.529C134.453 100.64 135.591 100.196 137.049 100.196C138.276 100.196 139.218 100.551 139.876 101.227C140.551 101.902 140.871 102.862 140.871 104.124C140.871 104.409 140.853 104.729 140.818 105.067C140.782 105.422 140.747 105.707 140.693 105.92H134.898L134.916 105.902ZM136.96 102.062C136.338 102.062 135.858 102.258 135.502 102.631C135.147 103.004 134.951 103.52 134.898 104.213H138.56V103.893C138.56 102.667 138.027 102.062 136.96 102.062Z" fill="#242E3D"/>
</g>
<defs>
<clipPath id="clip0_150_3705">
<rect width="160" height="160" fill="white"/>
</clipPath>
</defs>
</svg>
