<svg width="200" height="200" viewBox="0 0 200 200" fill="none" xmlns="http://www.w3.org/2000/svg">
<g clip-path="url(#clip0_52_7733)">
<rect width="200" height="200" rx="18" fill="#00416A"/>
<g clip-path="url(#clip1_52_7733)">
<path d="M233.865 81.0809C230.355 53.1262 219.767 53.5509 213.041 43.4326C206.315 33.3142 174.774 17.1397 157.996 10.548C145.616 5.67343 135.49 8.94159 124.607 11.1942C141.459 13.1514 169.656 21.1279 177.158 27.258C179.016 29.0056 180.693 30.9356 182.165 33.0188C182.165 33.0188 182.276 33.2035 182.35 33.2589C190.057 35.6765 196.928 40.2132 202.176 46.3499C204.024 48.1963 205.687 50.2089 207.535 52.0553C208.847 53.3663 210.454 54.2525 211.766 55.5635C215.332 59.2563 218.843 62.8199 222.428 66.5127C222.798 66.8187 223.101 67.1983 223.318 67.6273C223.534 68.0564 223.659 68.5256 223.684 69.0054C223.684 69.43 223.499 70.1317 222.964 69.6516C222.428 69.1716 221.467 68.8761 221.116 69.467C220.635 70.3533 221.596 71.6088 222.483 72.7906C223.451 74.4562 224.267 76.2049 224.922 78.0159C226.799 81.7579 228.273 85.6881 229.32 89.7406C230.474 93.6162 231.888 97.4099 233.551 101.096C236.715 108.896 237.822 117.377 236.766 125.727C235.935 131.026 235.103 136.252 234.512 141.495C235.344 137.803 236.471 133.168 238.208 127.278C242.975 111.214 237.376 109.017 233.921 81.1178M108.513 226.947C103.69 227.594 100.365 228.314 97.2048 227.963C83.6977 226.357 57.9214 220.577 48.1652 204.772C38.409 188.967 21.3172 175.636 18.3977 155.584C15.5337 136.012 11.9121 118.471 15.6076 103.423C15.5504 107.59 15.7293 111.757 16.1434 115.904C16.7347 121.794 19.2292 127.444 21.2617 143.914C22.278 152.242 25.6594 158.372 30.6114 164.963C32.644 167.641 34.7135 170.263 36.5058 173.106C36.7985 174.532 37.2381 175.925 37.8177 177.261C40.2013 182.8 45.024 191.884 51.1585 193.878C52.3123 194.11 53.4064 194.575 54.3737 195.245C55.2589 196.183 55.9999 197.247 56.5725 198.402C58.2721 200.421 60.2578 202.182 62.4668 203.627C62.8918 204.218 63.2984 204.809 63.6494 205.474C75.2534 222.258 94.8951 225.47 108.513 226.947Z" fill="#B1D78A"/>
<path d="M33.8819 161.954C33.1613 160.107 32.219 158.39 31.3136 156.599C31.1288 156.248 30.9625 155.879 30.7223 155.473C27.8797 150.196 25.6244 144.623 23.9964 138.855C22.2072 132.661 21.985 126.12 23.3497 119.819C24.7528 115.261 26.4249 110.792 28.3571 106.432C31.0918 98.9357 32.0527 90.9038 34.3624 83.2966C35.5027 80.1743 36.9771 77.1842 38.76 74.3784C40.6802 71.1506 42.9144 68.1201 45.4304 65.331C51.445 58.0338 58.4116 51.5753 66.1439 46.1283C67.8781 44.7042 69.7991 43.5239 71.8535 42.6201C73.4988 42.3222 75.1003 41.8197 76.6207 41.1245C80.3162 38.9272 82.164 34.8836 85.8595 32.7972C90.7376 30.0645 96.0407 25.0607 101.695 24.119C103.87 23.9592 106.035 23.6819 108.181 23.2882C111.34 22.328 114.371 21.0909 117.586 20.2046C118.993 19.6301 120.473 19.2511 121.983 19.0784C125.143 19.0784 128.414 19.7984 131.573 19.503C135.029 19.1522 138.41 17.6566 141.921 17.1211C142.096 17.0675 142.283 17.0615 142.461 17.1036C142.64 17.1458 142.804 17.2347 142.937 17.3611C143.177 17.712 142.937 18.1367 142.697 18.4321C141.68 19.7984 140.738 21.7002 141.81 22.9558C142.163 23.2929 142.586 23.5474 143.05 23.7007C143.513 23.854 144.005 23.9023 144.489 23.8421C148.185 23.8421 151.991 22.4757 155.576 23.602C157.611 24.0577 159.682 24.3357 161.766 24.4329C164.02 24.7284 166.348 24.9684 168.602 25.2638C169.051 25.305 169.492 25.4043 169.914 25.5592C170.114 25.6558 170.282 25.8085 170.397 25.9986C170.512 26.1888 170.569 26.4082 170.561 26.6302C170.561 27.3503 169.545 27.7011 169.378 28.4766C169.339 28.7437 169.388 29.0165 169.518 29.2532C169.648 29.4899 169.852 29.6776 170.099 29.7875C172.937 30.9552 175.892 31.8155 178.913 32.354C179.024 32.354 179.098 32.3541 179.209 32.4648C179.403 32.5136 179.601 32.5506 179.8 32.5756C180.631 32.8157 181.407 33.1111 182.183 33.3511C182.183 33.3511 182.073 33.1664 181.999 33.111C180.527 31.0277 178.85 29.0978 176.991 27.3502C168.843 20.6293 135.564 11.6558 119.858 10.8803C104.152 10.1048 87.6519 17.6566 68.971 24.7468C50.2901 31.837 40.9958 51.1505 27.8952 63.9462C14.7945 76.7418 14.6282 102.721 15.9956 116.052C16.5869 121.942 19.0814 127.592 21.1139 144.062C22.1302 152.389 25.5116 158.519 30.4636 165.111C32.4961 167.788 34.5656 170.41 36.358 173.254C35.8698 169.449 35.0095 165.701 33.7896 162.064" fill="#46A8C6"/>
<path d="M233.329 101.17C231.666 97.4838 230.252 93.6901 229.098 89.8145C228.077 85.7536 226.602 81.8206 224.7 78.0898C224.07 76.2686 223.253 74.5175 222.261 72.8644C221.374 71.6827 220.414 70.4826 220.894 69.5409C221.319 68.95 222.261 69.1901 222.742 69.7255C223.222 70.261 223.462 69.4855 223.462 69.0793C223.453 68.5964 223.335 68.1218 223.117 67.6904C222.9 67.259 222.589 66.8818 222.206 66.5866C218.64 62.8938 215.129 59.3302 211.544 55.6374C210.232 54.2711 208.625 53.4402 207.313 52.1292C205.465 50.2828 203.747 48.3256 201.954 46.4238C194.212 37.8011 188.078 35.1238 179.781 32.4465C179.588 32.3919 179.39 32.3548 179.19 32.3357C183.292 33.5174 182.885 35.4192 184.733 38.5766C186.877 42.0848 191.644 45.1867 194.859 47.6794C196.945 49.219 198.915 50.9099 200.753 52.7385C203.543 55.7112 204.855 59.4595 206.759 62.9677C207.479 64.334 207.645 65.9958 208.717 67.0667C209.789 68.1376 211.803 68.3776 212.653 69.744C213.503 71.1103 212.653 73.0121 212.653 74.6739C212.838 78.0713 227.287 87.5988 217.716 90.8485C217.464 90.8823 217.234 91.0071 217.069 91.1993C216.993 91.322 216.943 91.4595 216.924 91.6028C216.905 91.7461 216.916 91.8918 216.958 92.0302C217.254 94.4674 219.213 96.3692 220.765 98.3264C223.67 102.097 225.353 106.665 225.587 111.417C225.698 112.839 225.476 121.056 223.74 123.308C223.499 123.659 223.629 123.844 223.98 123.955C225.403 124.305 227.065 125.561 226.955 126.687C226.604 130.085 224.46 133.113 224.091 136.436C223.499 141.606 227.065 146.721 225.938 151.835C224.978 156.23 220.635 159.683 220.635 164.206C220.798 165.282 220.716 166.38 220.395 167.419C219.802 168.284 218.975 168.963 218.011 169.376C213.004 172.405 210.62 178.35 206.223 182.172C203.654 184.369 200.458 185.736 197.705 187.711C194.489 190.038 190.313 196.814 186.211 197.054C184.823 196.959 183.448 196.717 182.109 196.334C179.965 196.289 177.853 196.866 176.03 197.996C172.095 199.842 168.233 200.728 164.241 202.335C159.899 204.181 155.797 207.56 151.972 210.238C144.064 215.777 136.137 221.648 126.861 224.861C125.494 225.341 123.461 225.452 122.999 224.086C122.538 222.719 124.958 221.353 125.198 219.617C123.702 219.322 122.464 220.504 121.207 221.464C118.549 223.064 115.496 223.889 112.393 223.846C106.531 224.234 100.643 223.691 94.9504 222.239C91.6793 221.498 88.5562 220.212 85.7116 218.436C78.8749 213.746 70.9295 211.715 64.8873 205.88C64.0173 205.058 63.0844 204.305 62.0972 203.627C62.5222 204.218 62.9286 204.809 63.2797 205.474C76.0108 224.086 98.8122 226.043 112.135 227.354C118.084 227.889 124.09 226.578 140.646 227.834C157.202 229.089 158.403 223.255 184.641 213.875C194.526 210.367 203.802 205.492 209.456 196.334C212.542 191.33 215.646 186.345 218.695 181.23C220.063 178.904 221.67 176.651 222.853 174.269C224.035 171.887 226.068 168.268 227.01 168.97C227.491 169.266 227.25 170.521 227.731 170.817C228.211 171.112 228.267 170.706 228.451 170.466C232.387 164.391 232.738 158.279 233.219 151.078C233.81 142.4 235.066 134.239 236.489 125.746C237.649 117.431 236.584 108.958 233.403 101.188" fill="#0F7BB6"/>
<path d="M211.433 150.414C210.787 150.765 210.417 151.836 209.937 152.445C209.205 153.379 208.527 154.353 207.904 155.362C207.257 156.433 206.297 157.209 205.65 158.335C205.467 158.617 205.306 158.914 205.169 159.221C204.78 160.077 204.615 161.017 204.689 161.954C204.689 162.729 205.04 163.449 205.114 164.151C205.354 165.813 204.467 166.884 203.858 168.379C202.768 170.731 201.534 173.012 200.162 175.211C200.513 175.396 200.883 175.1 201.123 174.786C203.451 172.149 205.635 169.388 207.664 166.514C208.788 164.78 209.705 162.921 210.399 160.975C211.526 157.947 210.75 154.494 212.006 151.632C212.246 150.802 212.302 149.786 211.359 150.377M201.77 85.6047C202.546 87.0264 203.192 88.522 203.858 89.9991C207.183 97.7963 208.808 106.212 208.625 114.686C208.625 116.237 208.736 118.138 210.232 118.619C211.729 119.099 211.655 102.259 211.415 100.838C210.935 98.4557 210.528 96.1477 210.232 93.7658C209.881 91.0331 208.274 89.0759 207.257 86.6202C206.363 84.3428 205.223 82.1696 203.858 80.1393C202.666 78.8278 201.883 77.1982 201.603 75.4494C201.603 74.8032 201.788 74.0831 201.788 73.4183C201.788 69.5593 196.245 68.0083 195.007 64.5001C194.672 62.5844 193.901 60.7713 192.753 59.2009C190.491 56.6344 187.936 54.3416 185.14 52.3693C182.35 50.2828 177.638 50.0427 174.312 49.3965C173.795 49.2317 173.248 49.1893 172.712 49.2727C172.177 49.356 171.668 49.5628 171.226 49.8766C172.578 51.4091 174.216 52.6635 176.049 53.5694C179.732 55.8742 182.994 58.7903 185.694 62.1921C188.429 65.6449 190.166 69.744 193.085 73.0121C196.45 76.8647 199.381 81.0751 201.825 85.5677M97.9807 147.552C97.4448 146.592 96.558 147.367 95.9482 147.736C95.3384 148.106 93.5646 149.398 92.2527 150.358C91.2281 151.199 90.497 152.344 90.1647 153.626C89.8136 154.697 89.8136 156.248 90.6451 156.655C90.9675 156.755 91.3067 156.79 91.6429 156.759C91.9792 156.727 92.3058 156.629 92.6037 156.47C93.2108 156.246 93.788 155.949 94.3222 155.584C95.0635 155.089 95.7619 154.533 96.4101 153.922C97.21 153.1 97.8381 152.127 98.2579 151.06C98.5242 150.499 98.6322 149.875 98.5703 149.257C98.5084 148.639 98.2791 148.049 97.9068 147.552M110.712 156.285C118.36 157.425 126.077 158.042 133.809 158.132C136.048 157.94 138.239 157.378 140.295 156.47C141.958 155.75 142.493 155.399 142.789 154.753C142.927 153.413 142.808 152.059 142.438 150.765C141.895 149.732 141.147 148.82 140.239 148.087C139.486 147.42 138.69 146.803 137.855 146.241C137.024 145.65 136.008 145.521 130.354 146.001C126.671 146.188 123.056 147.059 119.692 148.567C117.806 149.438 116.125 150.696 114.758 152.26C113.262 153.386 111.248 154.106 110.361 155.233C109.585 156.119 110.25 156.304 110.712 156.359M173.536 120.963C171.998 119.931 170.309 119.147 168.528 118.637C167.609 118.449 166.676 118.332 165.738 118.286C165.018 118.175 164.851 118.175 164.722 118.286C164.593 118.397 164.833 118.711 165.553 119.117C166.588 119.672 167.566 120.328 168.473 121.074C169.304 121.85 170.136 122.681 169.6 123.511C169.064 124.342 167.457 124.047 166.274 123.401C165.092 122.754 163.41 121.444 162.763 121.148C162.117 120.853 161.636 120.853 161.803 121.499C161.969 122.145 162.283 122.921 161.803 123.345C161.241 123.577 160.621 123.632 160.027 123.504C159.433 123.375 158.892 123.069 158.476 122.625C157.165 121.499 156.758 120.779 155.021 119.302C153.988 118.548 152.915 117.852 151.806 117.215C150.941 116.416 149.932 115.789 148.831 115.369C145.553 114.589 142.147 114.507 138.835 115.129C133.661 116.015 132.46 116.975 130.852 116.791C129.892 116.68 129.725 116.366 129.43 115.424C129.134 114.483 128.949 114.353 128.413 114.113C127.878 113.873 127.342 114.002 126.455 113.578C124.328 112.772 122.528 111.285 121.336 109.35C119.673 106.912 119.082 105.417 118.306 104.29C117.53 103.164 116.939 102.869 115.978 102.924C114.611 102.924 113.835 104.881 113.299 107.799C112.763 110.716 112.523 113.338 111.155 114.224C110.59 114.524 109.967 114.696 109.328 114.727C108.689 114.759 108.052 114.651 107.46 114.409C106.521 114.01 105.504 113.827 104.485 113.873C102.874 113.874 101.299 114.349 99.9578 115.24C98.4027 116.311 96.6698 117.099 94.8395 117.566C92.6961 118.046 92.0494 118.046 91.4396 118.157C90.8299 118.268 90.5527 118.157 90.1831 119.468C89.8136 120.779 89.056 122.33 88.2245 122.441C87.555 122.493 86.8917 122.281 86.3767 121.85C85.4519 121.128 84.4762 120.474 83.4573 119.893C82.7721 119.548 81.9966 119.425 81.2384 119.541C80.4802 119.657 79.7769 120.006 79.2259 120.539C76.5191 123.784 74.8233 127.751 74.3478 131.95C73.4609 137.784 72.8511 143.36 74.3478 143.896C75.8445 144.431 78.2835 137.286 80.7226 138.357C82.866 139.243 81.8498 156.562 81.7389 160.31C81.628 164.059 80.8519 169.653 82.3301 173.512C83.8083 177.371 85.1942 179.218 91.144 184.092C94.0303 186.323 96.7936 188.708 99.4219 191.238C101.16 192.78 103.055 194.135 105.076 195.281C105.396 195.467 105.752 195.583 106.12 195.62C106.488 195.656 106.86 195.614 107.21 195.495C107.56 195.376 107.881 195.183 108.15 194.93C108.42 194.676 108.632 194.368 108.772 194.026C109.392 191.646 110.719 189.508 112.578 187.896C115.146 185.939 115.738 184.203 115.073 183.077C114.407 181.95 113.354 181.895 111.617 182.19C108.608 183.005 105.466 183.206 102.378 182.781C97.7959 182.061 90.8853 180.215 90.294 177.021C89.8691 174.768 91.6614 172.497 92.1418 170.65C92.6222 168.804 93.6385 165.296 91.7168 163.745C90.4603 162.729 89.3886 164.225 88.7419 165.111C88.0952 165.997 86.3583 166.958 86.4137 164.52C86.4692 162.083 86.5246 159.701 86.7648 157.559C86.8417 155.586 86.6991 153.611 86.3398 151.669C86.209 150.895 86.2778 150.101 86.5397 149.361C86.8016 148.621 87.2479 147.961 87.8365 147.441C89.2038 146.555 91.994 145.188 93.0657 144.524C94.1374 143.859 95.2645 143.213 95.3199 141.495C95.6537 139.21 96.3788 136.999 97.4633 134.959C98.1492 133.873 98.6139 132.662 98.8307 131.396C98.9416 130.565 99.422 129.845 100.789 129.549C102.157 129.254 102.637 129.365 102.341 130.509C101.796 131.678 101.435 132.924 101.27 134.202C101.299 134.706 101.478 135.19 101.784 135.591C102.09 135.993 102.51 136.294 102.988 136.455C103.677 136.909 104.472 137.175 105.295 137.227C106.119 137.279 106.941 137.114 107.681 136.75C109.937 135.417 112.514 134.724 115.134 134.743C117.755 134.763 120.32 135.495 122.556 136.861C123.923 137.286 124.108 137.341 126.603 137.987C126.979 138.138 127.384 138.2 127.788 138.168C128.192 138.136 128.583 138.011 128.931 137.803C129.193 137.583 129.38 137.287 129.467 136.956C129.553 136.625 129.533 136.276 129.411 135.956C129.171 134.941 127.988 132.744 129.06 132.263C130.132 131.783 131.259 133.279 132.09 135.292C132.949 137.579 134.111 139.74 135.546 141.717C136.96 142.941 138.655 143.797 140.479 144.21C142.512 144.93 143.805 144.745 144.637 148.198C145.218 150.231 145.56 152.326 145.653 154.439C145.653 157.892 145.062 158.427 145.062 160.864C145.062 163.726 145.357 164.557 144.286 165.868C143.935 166.293 143.51 166.644 143.103 166.293C142.697 165.942 143.103 165.573 143.214 165.037C143.402 163.937 143.402 162.814 143.214 161.714C143.221 161.274 143.183 160.835 143.103 160.403C143.103 159.812 142.752 159.517 142.272 159.572C141.2 159.683 140.553 160.532 138.946 160.643C137.338 160.754 133.716 160.828 131.444 160.994C129.171 161.16 124.478 161.474 120.782 161.584C117.449 161.742 114.108 161.661 110.786 161.344C107.09 160.92 106.388 160.754 105.723 160.754C105.058 160.754 101.732 161.104 101.14 163.376C100.845 164.557 100.956 165.037 101.787 165.222C102.619 165.407 106.259 165.647 107.977 165.868C109.696 166.09 113.52 166.644 115.479 166.699C117.438 166.754 119.821 166.514 121.244 166.514C122.667 166.514 125.882 166.754 126.011 171.334C126.011 172.885 126.122 174.251 127.194 175.026C130.054 176.661 133.017 178.11 136.063 179.365C138.851 180.809 142.069 181.189 145.117 180.436C146.965 179.661 147.686 178.479 147.076 176.744C146.466 175.008 146.355 173.66 147.076 173.051C147.796 172.441 148.683 171.795 152.25 171.98C154.208 172.091 156.832 173.051 158.015 171.334C159.154 169.352 160.799 167.709 162.782 166.57C165.757 164.539 167.253 163.172 167.124 158.132C166.745 151.63 166.782 145.112 167.235 138.615C167.956 133.316 171.282 130.713 173.185 127.02C174.903 123.807 175.624 122.201 173.185 120.89M73.5902 56.099C73.4794 55.9882 72.9989 56.339 72.7033 56.5237C71.8164 57.0591 70.8556 57.4838 69.8393 57.9454C67.8067 58.9055 66.1438 59.7918 65.7927 62.2291C65.7023 62.5428 65.7023 62.8755 65.7927 63.1892C65.7927 63.3 65.7927 63.3739 65.9035 63.4846C66.4394 64.2047 68.5273 63.0599 69.1186 62.7091C69.8464 62.1947 70.4211 61.4928 70.7816 60.6781C71.1327 60.0873 71.6131 59.4226 71.9642 58.8317C72.3153 58.2408 72.8511 57.5208 73.3315 56.8745C73.4424 56.5791 73.6272 56.2282 73.5163 56.099M88.2984 109.202C88.5386 109.922 89.2593 110.919 91.2734 110.217C93.2874 109.516 97.2231 108.371 99.2557 107.835C101.191 107.416 103.179 107.297 105.15 107.485C106.222 107.595 106.277 106.525 105.686 106.303C105.095 106.081 100.993 104.992 99.1448 104.457C98.0724 104.056 96.8912 104.056 95.8188 104.457C95.0982 104.641 91.5875 105.767 89.9245 106.303C88.2615 106.838 87.7256 107.799 88.3169 109.331M91.8831 89.8699C92.1787 90.7008 93.195 91.1808 95.6895 90.9408C98.4796 90.7007 107.885 89.3344 110.472 91.2916C111.894 92.3625 112.135 92.6026 112.319 95.3352C112.504 98.0679 112.8 97.8279 113.206 97.9017C113.613 97.9756 114.758 97.3663 115.996 95.1691C117.234 92.9718 122.482 90.6453 129.504 90.0545C136.525 89.4636 142.438 89.4637 149.626 93.2119C156.814 96.9601 164.408 102.721 168.103 101.004C169.951 100.117 171.189 97.0709 169.286 89.5191C168.214 84.5905 165.992 79.9848 162.8 76.0772C161.618 74.7662 159.825 73.2891 158.643 73.9907C157.46 74.6924 158.938 78.7544 160.139 80.6009C161.341 82.4473 161.451 83.5182 159.253 82.7427C156.763 81.8999 154.5 80.4976 152.638 78.6437C150.439 76.4464 146.983 70.0763 145.08 71.0918C143.177 72.1074 145.616 76.391 144.6 76.8526C143.584 77.3142 141.569 75.0062 139.722 72.4582C137.874 69.9101 136.562 66.919 134.178 66.0881C131.795 65.2572 125.494 64.5925 116.255 68.6546C108.717 72.0954 101.839 76.8256 95.9297 82.6319C91.6983 87.1002 91.532 89.0574 91.8277 89.8883M163.613 114.63C163.613 114.335 162.782 114.206 162.246 114.279C159.923 114.035 157.715 113.146 155.871 111.713C153.672 109.682 151.584 107.078 150.328 105.767C149.62 104.847 148.676 104.134 147.596 103.705C146.517 103.276 145.341 103.146 144.193 103.33C140.683 103.681 137.357 104.752 137.708 106.303C137.892 107.134 139.851 106.894 141.81 106.488C143.768 106.081 146.688 105.657 147.464 106.912C148.6 109.067 150.115 110.999 151.935 112.618C154.338 114.729 157.42 115.908 160.62 115.941C164.075 115.941 163.595 114.87 163.539 114.63M167.641 108.777C166.385 108.962 162.634 109.553 162.098 109.553C161.562 109.553 160.675 109.663 160.731 110.328C160.786 110.993 162.985 111.75 166.145 111.344C169.304 110.937 170.672 110.568 170.542 109.497C170.413 108.426 168.879 108.611 167.568 108.777M58.5494 74.637C58.9744 72.6059 60.933 71.3688 60.7483 69.3378C60.7483 69.227 60.7482 68.9869 60.2124 69.227C57.8842 70.2979 55.5191 74.1569 53.8376 75.8371C51.103 78.5698 48.4237 81.3764 45.8553 84.3491C43.7455 86.5878 41.9604 89.1112 40.5522 91.8455C37.3264 99.2534 36.0969 107.376 36.986 115.406C37.3554 119.725 38.091 124.006 39.1849 128.201C40.1457 131.765 40.0718 135.809 41.1435 139.151C41.4563 140.153 42.1099 141.016 42.9913 141.588C43.2869 141.773 44.0075 141.772 44.0075 140.572C44.0075 132.54 44.0075 124.509 44.4325 116.569C44.5557 114.427 44.7343 112.285 44.9683 110.143C45.6527 104.341 47.139 98.6617 49.3845 93.2673C51.5834 87.9681 58.8451 83.5736 58.6233 77.6282C58.4755 76.6613 58.4755 75.6776 58.6233 74.7108M226.105 151.909C225.144 156.304 220.802 159.757 220.802 164.28C220.964 165.356 220.882 166.454 220.561 167.493C219.968 168.358 219.142 169.036 218.178 169.45C213.17 172.478 210.787 178.424 206.389 182.246C203.821 184.443 200.624 185.809 197.871 187.785C194.656 190.112 190.48 196.888 186.378 197.128C184.989 197.033 183.614 196.791 182.276 196.408C180.131 196.362 178.019 196.94 176.197 198.07C172.261 199.916 168.399 200.802 164.463 202.409C160.121 204.255 156.019 207.634 152.194 210.311C144.286 215.851 136.359 221.722 127.083 224.935C125.716 225.415 123.683 225.526 123.221 224.159C122.759 222.793 125.18 221.427 125.42 219.691C123.923 219.396 122.685 220.577 121.429 221.538C118.771 223.138 115.718 223.963 112.615 223.919C106.752 224.307 100.865 223.765 95.1721 222.313C91.901 221.571 88.7779 220.286 85.9333 218.509C79.0966 213.819 71.1512 211.788 65.109 205.954C62.6145 203.572 58.2723 201.135 56.4799 198.457C55.9073 197.302 55.1663 196.238 54.2811 195.3C53.2884 194.678 52.2032 194.216 51.066 193.934C44.9314 191.903 39.9794 182.855 37.7251 177.316C35.6372 172.386 35.8774 166.976 33.8633 161.972C33.1427 160.126 32.2003 158.409 31.2949 156.618C31.1101 156.267 30.9439 155.898 30.7037 155.491C27.8611 150.214 25.6057 144.642 23.9778 138.874C22.1885 132.679 21.9663 126.138 23.331 119.837C24.7342 115.28 26.4062 110.81 28.3385 106.451C31.0732 98.9542 32.034 90.9223 34.3437 83.3151C35.484 80.1928 36.9585 77.2028 38.7414 74.3969C40.6615 71.1691 42.8958 68.1386 45.4118 65.3495C51.3917 58.0395 58.3418 51.579 66.0698 46.1468C67.804 44.7227 69.725 43.5424 71.7794 42.6386C73.4247 42.3407 75.0262 41.8383 76.5467 41.143C80.2422 38.9458 82.09 34.9022 85.7855 32.8157C90.6636 30.083 95.9666 25.0793 101.621 24.1376C103.796 23.9778 105.961 23.7004 108.106 23.3067C111.266 22.3466 114.296 21.1095 117.512 20.2232C118.919 19.6487 120.399 19.2697 121.909 19.0969C125.069 19.0969 128.339 19.817 131.499 19.5216C134.954 19.1708 138.336 17.6751 141.847 17.1397C142.022 17.0861 142.209 17.08 142.387 17.1222C142.566 17.1644 142.73 17.2533 142.863 17.3797C143.103 17.7305 142.863 18.1552 142.623 18.4506C141.606 19.817 140.664 21.7188 141.736 22.9744C142.089 23.3115 142.512 23.566 142.975 23.7193C143.439 23.8726 143.931 23.9209 144.415 23.8607C148.111 23.8607 151.917 22.4943 155.502 23.6206C157.536 24.0801 159.608 24.3581 161.692 24.4515C163.946 24.7469 166.274 24.9869 168.528 25.2824C168.977 25.3236 169.418 25.4229 169.84 25.5778C170.04 25.6744 170.208 25.8271 170.323 26.0172C170.438 26.2074 170.495 26.4267 170.487 26.6487C170.487 27.3688 169.471 27.7196 169.36 28.4951C169.32 28.7623 169.369 29.035 169.499 29.2718C169.63 29.5085 169.834 29.6961 170.08 29.8061C172.918 30.9737 175.873 31.8341 178.894 32.3726C183.366 33.5543 182.756 35.4561 184.733 38.7427C186.71 42.0293 191.644 45.3529 194.859 47.8455C196.945 49.3851 198.915 51.0761 200.753 52.9047C203.543 55.8774 204.855 59.6256 206.759 63.1338C207.479 64.5002 207.645 66.1619 208.717 67.2329C209.789 68.3038 211.803 68.5438 212.653 69.9102C213.503 71.2765 212.653 73.1783 212.653 74.9139C212.893 78.3113 227.287 87.8388 217.716 91.0885C217.464 91.1223 217.234 91.2471 217.069 91.4393C216.918 91.6885 216.853 91.9805 216.884 92.2702C217.18 94.7075 219.139 96.6093 220.691 98.5665C223.596 102.337 225.279 106.905 225.513 111.658C225.624 113.079 225.403 121.296 223.666 123.548C223.425 123.899 223.555 124.084 223.906 124.195C225.329 124.545 226.992 125.801 226.881 126.927C226.53 130.325 224.386 133.353 224.017 136.676C223.481 141.791 226.992 146.906 225.864 152.02M149.866 147.016C149.145 147.016 148.979 147.127 148.609 147.552C148.24 147.976 148.314 148.198 148.609 149.509C149.134 151.594 149.431 153.73 149.496 155.879C149.643 158.763 149.344 161.653 148.609 164.446C147.963 166.108 149.441 166.108 149.681 166.108H151.104C151.695 166.108 151.88 165.573 152.12 164.742C152.475 162.061 152.617 159.357 152.545 156.655C152.636 153.895 152.046 151.156 150.827 148.678C150.402 147.496 150.346 146.961 149.866 147.016ZM105.002 119.32C104.226 118.84 103.746 118.729 103.154 118.305C102.563 117.88 102.508 118.009 102.027 118.305C100.624 119.446 98.972 120.243 97.2047 120.631C95.5065 121.16 93.7507 121.482 91.9755 121.591C91.3842 121.591 90.7929 121.407 90.3679 122.311C89.9429 123.216 90.1277 123.733 90.719 123.973C92.2533 124.564 93.9056 124.786 95.5417 124.619C97.5173 124.456 99.4494 123.95 101.251 123.124C102.659 122.652 103.987 121.967 105.187 121.093C105.834 120.446 105.723 119.782 104.947 119.246M145.838 121.868C143.755 122.912 141.439 123.401 139.112 123.29C137.022 123.322 134.933 123.18 132.866 122.865C132.146 122.865 131.85 122.034 131.795 121.019C131.684 119.062 132.866 119.468 134.123 119.523C135.379 119.579 136.507 119.283 138.28 119.339C140.495 119.612 142.736 119.612 144.951 119.339C146.064 119.177 147.101 118.681 147.926 117.917C148.406 117.566 148.646 117.732 149.053 118.692C149.459 119.652 147.926 120.539 145.838 121.72" fill="#00416A"/>
<path d="M205.17 159.166C204.78 160.021 204.615 160.962 204.689 161.898C204.689 162.619 205.04 163.32 205.114 164.096C205.354 165.757 204.467 166.828 203.858 168.324C202.768 170.675 201.534 172.957 200.162 175.156C200.513 175.34 200.883 175.045 201.123 174.731C203.451 172.094 205.635 169.332 207.664 166.459C208.776 164.718 209.693 162.861 210.399 160.92C211.526 157.892 210.75 154.439 212.006 151.577C212.302 150.857 212.357 149.86 211.415 150.395C210.768 150.746 210.399 151.817 209.918 152.426C209.187 153.36 208.509 154.334 207.886 155.344C207.239 156.415 206.278 157.19 205.632 158.316C205.399 158.555 205.217 158.837 205.096 159.147M208.606 114.833C208.606 116.384 208.717 118.286 210.214 118.766C211.711 119.246 211.637 102.407 211.397 100.985C210.916 98.6034 210.51 96.2954 210.214 93.9136C209.863 91.1809 208.255 89.2236 207.239 86.7679C206.345 84.4905 205.205 82.3174 203.839 80.287C202.648 78.9756 201.865 77.346 201.585 75.5971C201.585 74.9509 201.77 74.2308 201.77 73.5661C201.77 69.7071 196.226 68.1561 194.988 64.6479C194.653 62.7322 193.882 60.9191 192.734 59.3487C190.472 56.7822 187.917 54.4893 185.121 52.517C182.331 50.4305 177.619 50.1351 174.293 49.5443C173.777 49.3795 173.23 49.3371 172.694 49.4204C172.158 49.5038 171.65 49.7105 171.208 50.0243C172.56 51.5569 174.198 52.8112 176.03 53.7171C179.713 56.0219 182.975 58.9381 185.676 62.3399C188.41 65.7927 190.147 69.8917 193.067 73.1599C196.482 76.9892 199.44 81.2027 201.881 85.7155C202.657 87.1372 203.303 88.6328 203.969 90.11C207.27 97.9122 208.87 106.328 208.662 114.796M66.0145 63.4108C66.5504 64.1309 68.6383 62.9308 69.2296 62.6354C69.9574 62.1209 70.5321 61.419 70.8927 60.6043C71.2437 59.958 71.7241 59.3487 72.0752 58.7579C72.4263 58.167 72.9621 57.4469 73.4425 56.8007C73.5534 56.616 73.7382 56.2652 73.6273 56.1544C73.5164 56.0436 73.0361 56.3945 72.7404 56.5791C71.8535 57.1146 70.8926 57.5392 69.8764 58.0008C67.8438 58.961 66.1808 59.8473 65.8297 62.2845C65.7394 62.5982 65.7394 62.931 65.8297 63.2446C65.8587 63.3106 65.896 63.3727 65.9406 63.4293M44.987 110.051C44.6902 112.182 44.5113 114.327 44.4511 116.477C44.1 124.564 43.9707 132.54 44.0262 140.48C44.0262 141.662 43.3055 141.662 43.0098 141.496C42.1112 140.942 41.4522 140.073 41.1621 139.058C40.0904 135.735 40.1458 131.673 39.2035 128.109C38.0809 123.92 37.3448 119.637 37.0046 115.313C36.1155 107.284 37.345 99.1611 40.5708 91.7532C41.9791 89.019 43.7642 86.4956 45.8739 84.2568C48.4423 81.3395 51.1031 78.496 53.8563 75.7448C55.5747 74.0831 57.9028 70.2056 60.231 69.1347C60.7114 68.8947 60.7669 69.1347 60.8223 69.2455C61.0071 71.3319 58.9746 72.5136 58.6235 74.5447C58.5337 75.4965 58.5337 76.4548 58.6235 77.4066C58.8083 83.3521 51.5465 87.7466 49.3847 93.0458C47.2023 98.4627 45.7424 104.143 45.0424 109.94" fill="#7FA9C8"/>
<path d="M134.179 119.671C135.435 119.671 136.562 119.431 138.336 119.486C140.551 119.76 142.792 119.76 145.007 119.486C146.12 119.325 147.157 118.829 147.982 118.065C148.462 117.714 148.702 117.88 149.109 118.84C149.515 119.8 147.982 120.687 145.894 121.868C143.811 122.912 141.495 123.401 139.168 123.29C137.078 123.322 134.989 123.18 132.922 122.865C132.202 122.865 131.906 122.034 131.851 121.019C131.74 119.173 132.922 119.523 134.179 119.523M92.0497 121.554C93.825 121.445 95.5807 121.123 97.2789 120.594C99.0558 120.234 100.714 119.434 102.102 118.268C102.582 117.843 102.693 117.788 103.229 118.268C103.765 118.748 104.245 118.748 105.077 119.228C105.24 119.311 105.381 119.432 105.488 119.582C105.594 119.732 105.662 119.906 105.685 120.088C105.709 120.27 105.688 120.455 105.623 120.627C105.559 120.799 105.454 120.952 105.317 121.074C104.109 121.936 102.783 122.62 101.381 123.105C99.567 123.897 97.6407 124.402 95.6713 124.601C94.0354 124.761 92.3848 124.539 90.8487 123.955C90.2574 123.715 90.0726 123.068 90.4976 122.293C90.9226 121.517 91.5693 121.573 92.1052 121.573M150.014 165.997C149.774 165.997 148.166 165.998 148.942 164.336C150.157 159.437 150.157 154.316 148.942 149.417C148.647 148.106 148.517 147.866 148.942 147.46C149.367 147.053 149.478 146.979 150.199 146.869C150.624 146.869 150.679 147.349 151.16 148.715C152.388 151.222 152.972 153.995 152.86 156.784C152.931 159.487 152.789 162.191 152.435 164.871C152.195 165.702 152.01 166.238 151.418 166.238C150.945 166.207 150.469 166.207 149.996 166.238M116.089 103.016C114.722 103.016 113.946 104.974 113.41 107.891C112.874 110.808 112.634 113.43 111.266 114.316C110.702 114.616 110.078 114.788 109.439 114.82C108.801 114.852 108.163 114.743 107.571 114.501C106.632 114.102 105.615 113.919 104.596 113.966C102.985 113.966 101.411 114.441 100.069 115.332C98.5139 116.404 96.781 117.191 94.9507 117.658C93.8329 117.935 92.6967 118.133 91.5509 118.249C90.9596 118.249 90.664 118.249 90.2944 119.56C89.9248 120.871 89.1672 122.422 88.3357 122.533C87.6662 122.585 87.0029 122.373 86.488 121.942C85.5631 121.221 84.5874 120.566 83.5685 119.985C82.8833 119.641 82.1078 119.518 81.3496 119.634C80.5915 119.749 79.8881 120.098 79.3371 120.631C76.6294 123.871 74.9503 127.844 74.5145 132.042C73.6276 137.877 73.0178 143.453 74.5145 143.988C76.0112 144.524 78.4502 137.378 80.8892 138.449C83.0326 139.335 82.0164 156.655 81.9055 160.403C81.7947 164.151 81.0186 169.746 82.4968 173.605C83.975 177.464 85.3608 179.31 91.3106 184.185C94.197 186.416 96.9604 188.801 99.5886 191.33C101.326 192.873 103.221 194.228 105.243 195.374C105.563 195.56 105.918 195.675 106.287 195.712C106.655 195.749 107.026 195.706 107.377 195.587C107.727 195.468 108.048 195.276 108.317 195.022C108.586 194.769 108.798 194.46 108.938 194.118C109.559 191.738 110.886 189.601 112.745 187.988C115.313 186.031 115.904 184.295 115.239 183.169C114.574 182.043 113.521 181.987 111.784 182.283C108.775 183.097 105.633 183.298 102.545 182.874C97.9626 182.154 91.052 180.307 90.4607 177.113C90.0357 174.86 91.828 172.589 92.3085 170.743C92.7889 168.896 93.8051 165.388 91.8834 163.837C90.627 162.822 89.5553 164.317 88.9086 165.204C88.2619 166.09 86.5249 167.05 86.5804 164.613C86.6358 162.175 86.6912 159.794 86.9315 157.652C87.0083 155.679 86.8658 153.703 86.5064 151.762C86.3855 150.974 86.4777 150.168 86.7733 149.428C87.069 148.688 87.5574 148.04 88.1879 147.552C89.5553 146.666 92.3454 145.299 93.4171 144.634C94.4888 143.97 95.6159 143.324 95.6713 141.606C96.0052 139.321 96.7302 137.11 97.8148 135.07C98.5006 133.984 98.9653 132.773 99.1821 131.507C99.293 130.676 99.7734 129.956 101.141 129.66C102.508 129.365 102.989 129.476 102.693 130.62C102.147 131.789 101.786 133.034 101.621 134.313C101.65 134.817 101.829 135.301 102.135 135.702C102.441 136.104 102.861 136.404 103.34 136.566C104.028 137.02 104.824 137.286 105.647 137.338C106.47 137.389 107.293 137.225 108.033 136.861C110.289 135.528 112.865 134.834 115.486 134.854C118.106 134.873 120.672 135.606 122.907 136.972C124.275 137.397 124.46 137.452 126.954 138.098C127.33 138.249 127.736 138.311 128.14 138.279C128.544 138.247 128.935 138.122 129.282 137.914C129.545 137.694 129.732 137.398 129.818 137.067C129.904 136.736 129.885 136.387 129.763 136.067C129.522 135.052 128.34 132.854 129.412 132.374C130.483 131.894 131.61 133.39 132.442 135.347C133.3 137.634 134.462 139.795 135.897 141.773C137.312 142.996 139.006 143.852 140.831 144.265C142.863 144.985 144.157 144.801 144.988 148.254C145.57 150.287 145.911 152.382 146.004 154.494C146.004 157.947 145.413 158.483 145.413 160.92C145.413 163.782 145.709 164.613 144.637 165.924C144.286 166.348 143.861 166.699 143.454 166.348C143.048 165.997 143.454 165.628 143.565 165.093C143.753 163.993 143.753 162.869 143.565 161.769C143.572 161.33 143.535 160.891 143.454 160.458C143.454 159.867 143.104 159.572 142.623 159.627C141.551 159.738 140.905 160.588 139.297 160.698C137.689 160.809 134.068 160.883 131.795 161.049C129.522 161.215 124.829 161.529 121.134 161.64C117.8 161.797 114.459 161.717 111.137 161.4C107.442 160.975 106.739 160.809 106.074 160.809C105.409 160.809 102.083 161.16 101.492 163.431C101.196 164.613 101.307 165.093 102.139 165.277C102.97 165.462 106.61 165.702 108.329 165.924C110.047 166.145 113.872 166.699 115.83 166.755C117.789 166.81 120.173 166.644 121.595 166.57C123.018 166.496 126.233 166.81 126.363 171.389C126.363 172.94 126.474 174.306 127.545 175.082C130.406 176.716 133.368 178.165 136.415 179.421C139.202 180.864 142.421 181.245 145.469 180.492C147.316 179.716 148.037 178.535 147.427 176.799C146.817 175.063 146.707 173.716 147.427 173.106C148.148 172.497 149.035 171.851 152.601 172.035C154.56 172.146 157.183 173.106 158.366 171.389C159.506 169.408 161.151 167.764 163.133 166.625C166.108 164.594 167.605 163.228 167.475 158.187C167.096 151.686 167.133 145.167 167.586 138.671C168.307 133.371 171.633 130.768 173.536 127.075C175.199 123.862 175.92 122.201 173.536 120.945C171.999 119.913 170.309 119.128 168.529 118.619C167.609 118.431 166.676 118.313 165.739 118.268C165.018 118.157 164.852 118.157 164.722 118.268C164.593 118.379 164.833 118.692 165.554 119.099C166.589 119.654 167.567 120.309 168.473 121.056C169.305 121.831 170.136 122.662 169.6 123.493C169.065 124.324 167.457 124.029 166.274 123.382C165.092 122.736 163.41 121.425 162.764 121.13C162.117 120.834 161.637 120.834 161.803 121.481C161.969 122.127 162.283 122.902 161.803 123.327C161.241 123.559 160.622 123.614 160.028 123.485C159.433 123.357 158.892 123.05 158.477 122.607C157.165 121.481 156.758 120.76 155.022 119.283C153.988 118.53 152.915 117.834 151.806 117.197C150.942 116.397 149.932 115.771 148.832 115.35C145.553 114.571 142.147 114.489 138.835 115.11C133.661 115.997 132.46 116.957 130.853 116.772C129.892 116.661 129.726 116.347 129.43 115.406C129.134 114.464 128.95 114.335 128.414 114.095C127.878 113.855 127.342 113.984 126.455 113.559C124.328 112.754 122.528 111.267 121.337 109.331C119.674 106.894 119.083 105.398 118.306 104.272C117.53 103.146 116.995 102.85 115.978 102.906M133.772 158.095C136.006 157.875 138.194 157.315 140.258 156.433C141.921 155.713 142.457 155.362 142.752 154.716C142.891 153.376 142.771 152.023 142.401 150.728C141.859 149.695 141.111 148.784 140.203 148.05C139.449 147.383 138.653 146.767 137.819 146.204C136.987 145.613 135.971 145.484 130.317 145.964C126.635 146.151 123.019 147.022 119.655 148.531C117.769 149.401 116.088 150.66 114.722 152.223C113.225 153.35 111.211 154.07 110.324 155.196C109.437 156.322 110.324 156.322 110.749 156.378C118.384 157.465 126.08 158.081 133.791 158.224M92.5486 156.507C93.1557 156.283 93.7329 155.986 94.2671 155.621C95.0084 155.126 95.7068 154.57 96.3551 153.959C97.1549 153.137 97.783 152.164 98.2028 151.097C98.492 150.535 98.6176 149.903 98.5654 149.273C98.5131 148.643 98.2851 148.04 97.9072 147.533C97.3713 146.573 96.4844 147.349 95.8746 147.718C95.2649 148.087 93.491 149.38 92.1791 150.34C91.1545 151.181 90.4234 152.325 90.0911 153.608C89.74 154.679 89.7401 156.23 90.5716 156.636C90.8685 156.756 91.1884 156.808 91.5079 156.788C91.8274 156.769 92.1387 156.679 92.4193 156.525M160.62 110.365C160.62 111.141 162.875 111.787 166.034 111.381C169.194 110.974 170.561 110.605 170.432 109.534C170.303 108.463 168.769 108.574 167.457 108.814C166.145 109.054 162.45 109.59 161.914 109.59C161.378 109.59 160.546 109.7 160.546 110.365M137.579 106.266C137.763 107.097 139.722 106.857 141.681 106.451C143.639 106.045 146.559 105.62 147.335 106.875C148.449 109.044 149.967 110.98 151.806 112.581C154.21 114.692 157.291 115.872 160.491 115.904C163.891 115.794 163.41 114.833 163.355 114.538C163.3 114.243 162.579 114.113 161.988 114.187C159.655 113.943 157.442 113.033 155.613 111.565C153.414 109.534 151.326 106.931 150.07 105.62C149.362 104.699 148.418 103.986 147.338 103.557C146.258 103.128 145.082 102.999 143.935 103.183C140.48 103.607 137.154 104.678 137.505 106.266M90.9041 110.254C92.9921 109.534 96.8539 108.408 98.8865 107.872C100.821 107.453 102.81 107.334 104.781 107.522C105.853 107.632 105.908 106.562 105.317 106.34C104.725 106.118 100.623 105.029 98.7756 104.494C97.7032 104.093 96.522 104.093 95.4496 104.494C94.729 104.678 91.2182 105.804 89.5552 106.34C87.8923 106.875 87.3564 107.762 87.9477 109.313C88.1879 110.033 88.8347 111.03 90.9226 110.384M149.312 93.3781C142.161 89.6853 136.211 89.6853 129.19 90.2208C122.168 90.7562 116.921 93.0827 115.683 95.3353C114.445 97.588 113.244 98.1234 112.893 98.068C112.541 98.0127 112.246 98.2527 112.006 95.5015C111.765 92.7503 111.525 92.5288 110.158 91.4579C107.589 89.5007 98.2028 90.867 95.3757 91.107C92.8813 91.3471 91.8649 90.867 91.5693 90.0361C91.2737 89.2053 91.3845 87.2481 95.8007 82.8905C101.71 77.0843 108.588 72.354 116.126 68.9132C125.365 64.8141 131.592 65.5158 134.049 66.3466C136.507 67.1775 137.745 70.1503 139.593 72.7168C141.44 75.2833 143.399 77.5913 144.471 77.1113C145.543 76.6312 143.048 72.3475 144.951 71.3505C146.854 70.3534 150.31 76.705 152.509 78.9023C154.362 80.7679 156.628 82.172 159.124 83.0013C161.322 83.7768 161.212 82.6505 160.01 80.8595C158.809 79.0684 157.331 74.9694 158.514 74.2493C159.696 73.5292 161.433 75.0248 162.671 76.3357C165.814 80.274 168.031 84.8679 169.157 89.7776C171.005 97.274 169.878 100.358 167.974 101.262C164.279 102.869 156.37 96.9786 149.497 93.3597" fill="white"/>
</g>
</g>
<defs>
<clipPath id="clip0_52_7733">
<rect width="200" height="200" rx="18" fill="white"/>
</clipPath>
<clipPath id="clip1_52_7733">
<rect width="226" height="220" fill="white" transform="translate(14 8)"/>
</clipPath>
</defs>
</svg>
