<svg width="200" height="200" viewBox="0 0 200 200" fill="none" xmlns="http://www.w3.org/2000/svg">
<path d="M97.0969 116.776L84.3791 132.276C76.5426 141.233 69.7347 143.996 55.2193 143.996C6.25918 143.996 48.8386 144.005 18.3591 143.996H0L19.468 124.636C27.1279 117.6 32.9396 114.911 49.6458 114.911C49.6458 114.911 45.0971 114.891 51.3179 114.891C61.9248 114.891 62.6494 114.522 68.8117 108.237L104.37 66.6807C110.824 58.9596 118.014 56 129.621 56H200L187.503 71.9071C180.038 80.6217 170.819 83.229 159.867 83.229C159.867 83.229 124.546 83.229 123.134 83.229C121.014 83.229 119.978 83.7328 118.801 85.0597C118.118 85.829 110.877 94.6519 110.877 94.6519H158.445L148.919 106.091C142.476 112.902 135.523 116.773 124.483 116.773H97.0969V116.776Z" fill="#0B2D72"/>
</svg>
