<svg width="200" height="200" viewBox="0 0 200 200" fill="none" xmlns="http://www.w3.org/2000/svg">
<path d="M185.656 94.1462C180 99.7199 167.787 104.556 161.803 106.769C153.606 109.884 150 110.949 145.41 112.425C140.246 114.146 129.836 117.261 129.836 117.261C151.393 123.654 166.557 125.622 166.557 125.622C166.557 125.622 173.606 123.408 184.836 117.425C190.902 114.31 193.852 112.261 195.983 110.294C196.803 109.556 198.77 107.507 199.344 104.802C199.344 104.638 199.508 104.064 199.508 103.572C199.508 103.572 199.508 103.245 199.508 102.917C199.508 102.589 199.426 102.343 199.426 102.343C199.426 102.343 199.344 101.687 199.18 101.277C199.016 100.867 198.361 99.474 197.213 98.5724C196.475 97.9986 195.164 96.4412 190.492 94.8019C188.934 94.2281 186.311 93.7363 186.311 93.7363L185.656 94.1462Z" fill="url(#paint0_linear_52_7565)"/>
<path d="M199.426 103.491C199.426 103.491 199.426 102.917 199.262 102.425C199.18 101.933 198.934 101.523 198.607 101.114C198.279 100.54 197.705 99.966 197.049 99.2283C196.475 98.7365 195.902 98.2447 195.164 97.7529C192.213 95.8677 188.443 94.7201 185.082 94.3103C179.918 93.6545 173.934 93.7365 173.361 93.7365C171.475 93.7365 159.016 93.8185 155.902 93.9004C141.721 94.2283 124.426 94.2283 119.918 94.2283C73.1147 94.4742 52.7049 93.4086 30 88.9004C10.7377 85.048 0 81.4414 0 81.4414C17.0492 80.8677 116.311 76.7693 134.426 76.2775C146.311 75.9496 154.672 75.8677 161.475 76.2775C164.918 76.4414 168.115 76.7693 172.213 77.425C175.82 78.0808 179.098 79.0644 181.066 79.8021C185.082 81.2775 188.525 83.4906 190.164 85.7037C190.164 85.7037 190.656 86.1955 191.311 87.0972C192.049 88.1627 192.951 89.4742 193.279 89.966C195.738 93.6545 196.885 96.0316 197.295 96.8513C197.705 97.6709 198.115 98.5726 198.525 99.4742C198.852 100.376 199.016 100.868 199.18 101.196C199.426 102.097 199.508 102.917 199.508 103.163L199.426 103.491Z" fill="#CE210F"/>
<defs>
<linearGradient id="paint0_linear_52_7565" x1="130.93" y1="81.5996" x2="125.38" y2="127.503" gradientUnits="userSpaceOnUse">
<stop stop-color="#E6EBEF"/>
<stop offset="0.0764" stop-color="#BBCEE5"/>
<stop offset="0.1854" stop-color="#85A9D8"/>
<stop offset="0.2796" stop-color="#5D8FCF"/>
<stop offset="0.3543" stop-color="#457EC9"/>
<stop offset="0.4" stop-color="#3C78C7"/>
<stop offset="0.9" stop-color="#2E5C99"/>
</linearGradient>
</defs>
</svg>
