<svg width="200" height="200" viewBox="0 0 200 200" fill="none" xmlns="http://www.w3.org/2000/svg">
<path fill-rule="evenodd" clip-rule="evenodd" d="M108.789 23.5903C111.536 20.7135 106.959 14.9597 104.784 12.7733C98.4911 6.55926 98.7199 0 98.7199 0C98.7199 0 96.7747 1.8412 91.3967 7.24971C88.536 10.1266 89.337 16.3406 95.2871 22.3245C95.2871 22.3245 95.4016 33.2566 95.4016 37.3993C95.2871 38.435 94.8294 39.3556 94.1429 40.1611C94.1429 40.1611 85.4465 32.2209 77.5512 32.2209H65.7653C58.2132 32.2209 52.1487 38.8953 51.5766 39.5857C47.5717 43.4983 47.4572 50.9781 50.7756 54.3153L58.8998 62.4856C58.8998 62.4856 56.8401 48.9068 58.8998 39.931C59.5864 37.0541 63.9345 34.2923 67.1384 36.4787C73.7751 40.9666 83.8446 50.4028 83.8446 50.4028C83.8446 50.4028 62.2181 72.9574 61.4172 73.878C60.6162 74.7986 57.6411 77.1001 54.6661 77.1001C51.1699 77.1001 49.5514 75.2117 48.1174 73.5385L48.1164 73.5373C48.0489 73.4585 47.9818 73.3802 47.9149 73.3027C47.9149 73.3027 47.8005 83.4292 47.8005 84.3498C47.8005 88.0322 52.6064 91.7146 57.2978 91.7146H86.9341C89.337 91.8297 91.6255 90.9091 93.4563 89.298C94.715 88.2624 102.61 80.2071 103.411 79.2865C104.899 77.7906 105.7 75.6041 105.585 73.5328V62.2555C105.585 51.2083 97.0035 42.6928 97.0035 42.6928C97.0035 42.6928 98.7199 41.4269 98.8343 36.7089V25.0863C98.8343 25.0863 102.382 28.5386 102.61 29.9195C102.61 29.9195 106.386 26.0069 108.789 23.5903ZM66.4137 73.8559C66.7621 73.4878 67.1512 73.0766 67.5962 72.6119C68.1683 72.0365 86.5908 52.9341 86.5908 52.9341C86.5908 52.9341 97.118 63.7512 100.436 69.62C102.038 72.4968 103.869 78.1355 94.8295 78.1355H61.4172C63.7525 76.6677 64.4329 75.9488 66.4137 73.8559Z" fill="#D72027"/>
<path d="M116.341 29.5746C116.341 24.5113 118.058 19.5631 121.147 15.5354C121.674 15.0061 124.1 12.7687 126.938 10.1523C131.502 5.94361 137.131 0.754064 137.625 0.115412L141.629 0.230487C141.206 0.709515 139.901 1.87786 138.463 3.16617L138.462 3.16693C136.79 4.6638 134.938 6.32247 134.077 7.25005C131.102 10.3571 129.5 14.6148 129.615 18.8726V61.2201C129.615 66.8588 127.441 72.2673 123.665 76.41C122.619 77.7488 113.433 86.0015 109.637 89.4128C108.865 90.1064 108.315 90.5999 108.103 90.7944L104.327 90.6793C104.651 90.2885 106.953 88.1656 109.099 86.1876C110.744 84.6707 112.298 83.2386 112.794 82.7391C114.854 80.0924 116.113 76.9854 116.341 73.6482V29.5746Z" fill="#D72027"/>
<path d="M104.899 189.758L88.9938 175.834L115.54 175.604C125.839 175.604 133.276 168.469 135.908 165.938C150.898 151.323 150.898 142.117 146.207 137.054C145.291 136.018 140.142 130.725 140.142 130.725V113.118C140.142 113.118 144.833 117.606 145.52 118.297C149.41 121.749 151.585 126.697 151.699 131.876V154.776C151.699 163.061 149.296 171.922 142.774 178.481C135.565 185.731 125.724 189.758 115.54 189.758H104.899Z" fill="#D72027"/>
<path fill-rule="evenodd" clip-rule="evenodd" d="M129.844 92.4051C129.844 88.2624 131.56 83.6595 133.276 81.8183L133.391 82.0484C134.376 80.8928 138.069 77.5463 140.29 75.5343L140.292 75.5323C141.166 74.7404 141.811 74.1557 141.973 73.9932H137.968C136.48 75.259 122.864 87.6871 121.147 89.6433C118.058 93.0956 116.341 99.5398 116.341 101.266L53.1785 101.381C45.512 101.381 40.134 93.671 40.134 86.8815C40.134 85.961 40.3628 70.5409 40.3628 70.5409C40.3628 57.1923 36.9301 55.8114 36.2435 55.5812H30.7511C34.2983 57.4224 36.5868 63.4063 36.5868 66.9736V88.7227C36.7012 94.5916 40.8205 116.226 60.2729 116.226H116.113C116.113 116.226 116.341 150.633 116.341 152.129C116.341 157.883 114.396 161.335 112.794 163.061C111.421 164.557 104.212 171.116 104.212 171.116L108.217 171.001C109.934 169.735 122.177 158.458 123.321 157.192L123.551 156.935C126.476 153.662 129.844 149.893 129.844 139.241V116.341C129.844 116.341 134.764 111.047 136.251 109.781C137.739 108.516 147.351 99.3096 147.351 99.3096C147.351 112.313 156.39 114.73 161.654 109.666C162.442 108.918 163.883 107.58 165.445 106.13L165.446 106.129C167.968 103.788 170.805 101.154 171.723 100.23C176.186 95.7423 178.703 81.5881 167.604 81.7032C160.967 81.8183 152.958 91.4845 152.042 92.6353C150.211 91.2544 148.609 89.5283 147.351 87.6871V96.3177C146.435 97.9287 141.973 101.036 138.54 101.036H129.844V92.4051ZM159.365 101.151C157.42 99.1952 155.589 97.0088 153.987 94.8223C156.047 92.6359 163.027 91.9455 164.858 94.4771C169.435 100.691 166.231 106.675 159.365 101.151Z" fill="#D72027"/>
<path d="M75.9492 147.525C76.5214 147.065 86.2475 138.895 86.2475 135.788C86.2475 132.323 84.4519 130.592 80.121 126.417C78.9854 125.323 77.6756 124.06 76.1781 122.554L65.5365 133.256C72.7453 140.621 75.2627 144.188 75.9492 147.525Z" fill="#D72027"/>
<path d="M24 103.223H29.4924C29.4924 103.223 33.6118 103.223 33.4973 117.952V132.452C33.4973 150.173 49.4025 160.645 61.0739 160.415H92.9986C100.093 160.415 106.043 150.058 98.4911 144.074C96.8891 142.808 93.2275 138.896 93.2275 138.896V120.944C93.2275 120.944 96.8891 124.511 98.2622 125.892C98.5155 126.147 98.7983 126.414 99.1004 126.7C101.391 128.864 104.784 132.071 104.784 138.781V147.526C104.784 155.626 102.083 158.665 99.3691 161.718C99.0754 162.049 98.7816 162.379 98.4911 162.716L98.342 162.885C97.3251 164.037 94.9609 166.715 93.1131 168.355C87.8495 173.073 84.76 175.144 76.0636 175.144H61.5316C44.1389 175.144 29.8357 159.034 29.8357 141.658V114.845C29.8357 106.445 24 103.223 24 103.223Z" fill="#D72027"/>
<path d="M64.5067 135.903C64.5067 139.01 54.7805 147.18 54.2084 147.641C53.5218 144.304 51.0045 140.736 43.7956 133.372L54.4372 122.67C55.9708 124.212 57.312 125.496 58.4722 126.607C62.6788 130.635 64.5067 132.385 64.5067 135.903Z" fill="#D72027"/>
<path d="M76.0637 192.866C76.0637 196.663 73.0886 199.885 69.1981 200C65.3077 200 62.1037 196.893 62.1037 192.981C62.1037 189.183 65.1932 186.076 68.9693 185.961C72.7453 185.961 75.9492 188.953 76.0637 192.866Z" fill="#D72027"/>
</svg>
