<svg width="200" height="200" viewBox="0 0 200 200" fill="none" xmlns="http://www.w3.org/2000/svg">
<path fill-rule="evenodd" clip-rule="evenodd" d="M79.7609 164.165C40.6684 157.417 11 123.56 11 82.8389C11 37.2309 48.2309 0.232693 93.9552 0C106.404 0 118.039 2.67597 128.627 7.56254L127.928 7.32984C121.995 5.81734 117.108 5.4683 111.873 5.35195C104.892 5.35195 98.6091 6.39907 93.2571 7.91158C88.7196 9.19139 84.9965 10.9366 81.8551 12.6818C78.8301 14.427 76.5032 16.2885 74.9907 17.801C72.8965 20.128 71.1513 22.5713 69.9878 24.8982C67.0709 29.4558 66.225 34.2991 65.8276 36.5746C65.7178 37.2036 65.6422 37.6363 65.5666 37.8127C61.6108 41.8848 58.9348 46.655 57.0733 52.1233C55.5608 56.8935 54.8627 58.2897 54.1646 59.4532C52.5358 61.7801 51.954 63.409 52.8848 65.1542C53.2339 65.8522 53.4665 66.2013 54.7464 68.0628C56.4685 70.5886 55.0185 73.001 54.6445 73.6234L54.63 73.6475C52.7685 77.6033 46.4857 84.0023 43.5771 86.3293C39.5049 89.7033 39.854 91.7976 41.9482 93.8918C42.4503 94.4943 43.299 95.0967 44.5691 95.9984C44.7707 96.1415 44.9828 96.2921 45.2059 96.4514C47.3831 97.9411 47.1903 99.0922 47.0728 99.7935L47.0675 99.8255C47.0675 100.394 46.451 101.27 45.9706 101.953C45.8607 102.109 45.7579 102.255 45.6713 102.385C45.2059 103.083 44.9732 103.665 45.0896 104.247C45.282 104.952 45.6865 104.456 46.2447 103.77C46.6991 103.213 47.2554 102.53 47.8819 102.269C49.8419 101.398 51.1905 101.851 53.3583 102.581C53.5067 102.631 53.659 102.682 53.8156 102.734C54.2216 102.85 54.7217 103.024 55.2689 103.214C56.9167 103.787 58.9919 104.509 60.2147 104.247C61.2618 104.014 64.6358 103.432 64.9849 103.898C65.4503 104.712 63.1233 107.155 59.4002 107.853C58.0041 108.086 56.2589 108.086 54.5137 108.086C53.1175 108.086 51.8377 108.086 50.6742 108.202C48.2309 108.435 46.6021 109.948 46.1367 110.878C45.555 112.042 45.7877 113.089 46.2531 113.787C46.4857 114.136 46.9511 114.834 47.0675 115.183C47.3002 116.579 46.7184 118.325 46.4857 118.906C46.3694 119.172 46.2507 119.438 46.1319 119.704C45.4196 121.3 44.7073 122.895 44.5079 124.491C43.5771 131.006 50.0925 131.937 50.0925 131.937C59.4002 133.682 68.0099 133.915 75.2234 132.984C83.484 131.937 89.8831 129.727 93.8389 127.981C95.3514 127.4 95.8167 127.981 94.4206 129.145C92.559 130.774 88.4869 134.148 83.833 137.056C83.7167 137.056 83.6003 137.056 83.6003 137.173L83.7167 137.289C83.7524 137.325 83.7948 137.366 83.8435 137.414C85.0631 138.609 90.2185 143.66 92.7917 157.533C94.7696 168.703 95.1187 177.778 94.1879 185.34C91.861 186.736 89.3013 187.9 86.8581 188.831C87.02 188.831 87.9839 188.856 89.0171 188.883C90.21 188.914 91.4952 188.947 91.7446 188.947C85.4619 194.997 74.9907 198.837 61.8435 200C66.8464 197.091 75.9215 185.108 78.5974 172.077C79.0628 169.866 79.4119 167.074 79.7609 164.165ZM44.6242 93.5431C44.2751 93.4268 44.0424 93.3104 44.1588 92.9614C44.1588 92.7287 44.3915 92.7287 44.8569 92.7287C45.0896 92.7287 45.3223 92.7287 45.6713 92.845C46.2145 92.9614 46.874 93.1037 47.5336 93.2459C48.8519 93.5303 50.1701 93.8146 50.5579 93.8921C51.1396 94.0085 52.8848 94.3575 53.5829 93.6594C54.1646 93.0777 54.7463 92.7287 55.0954 93.1941C55.4444 93.5431 55.2117 94.9393 54.979 95.2883C54.281 96.5681 52.8848 98.0806 49.6271 96.2191C46.8348 94.5902 46.1367 94.2412 44.6242 93.5431Z" fill="url(#paint0_linear_52_5743)"/>
<path d="M176.974 67.7178C177.207 69.2303 178.254 76.5601 178.254 80.2832C178.487 109.719 172.437 125.193 164.06 138.34C162.315 141.482 160.337 144.39 158.126 147.299C152.309 155.211 147.306 158.817 146.259 159.05C149.205 149.87 149.061 143.781 148.944 138.848C148.941 138.717 148.938 138.586 148.935 138.457C148.818 134.85 148.237 130.778 148.237 130.778C148.237 130.778 147.422 136.479 147.073 138.224C145.009 150.609 141.626 157.212 140.429 159.548C140.344 159.713 140.27 159.857 140.209 159.981C137.998 164.518 134.508 169.288 130.086 173.826C117.288 186.973 102.396 188.951 91.8084 189.067C91.6339 189.067 90.4995 189.038 89.3651 189.009C88.2308 188.98 87.0964 188.951 86.9219 188.951C89.187 188.127 91.27 187.03 93.4126 185.902C93.6911 185.755 93.9706 185.608 94.2517 185.461C106.817 178.364 117.288 165.682 118.917 148.811C119.15 142.296 118.568 135.432 116.707 128.567C114.496 120.074 112.984 112.628 112.285 105.88V105.647C111.238 94.2448 112.402 84.4717 115.776 74.2332C117.366 69.4053 118.955 66.2459 120.138 63.8955C121.292 61.6014 122.059 60.0781 122.059 58.5264C122.059 56.8975 116.009 49.5677 110.191 47.4735C102.861 45.0302 95.6479 42.9359 95.6479 42.9359C95.6479 42.9359 89.8305 41.4234 84.5949 38.7475C79.4757 36.1878 76.7997 33.5119 75.6362 31.534C71.3778 32.7224 67.5408 36.4397 66.2779 37.6632C66.0571 37.8771 65.915 38.0148 65.8631 38.0494C65.903 37.9296 65.9498 37.6419 66.0187 37.2181C66.3515 35.1722 67.2001 29.9539 70.2843 25.1349C71.4477 22.808 73.0766 20.3647 75.2872 18.0377C80.0574 12.9185 93.67 5.2396 112.169 5.58864C117.405 5.70499 122.408 6.05403 128.225 7.56654C128.225 7.56654 128.458 7.68288 128.923 7.79923C131.948 8.61366 144.863 13.0348 155.799 23.6224C165.107 32.6974 168.248 39.2128 171.971 48.5206C175.462 57.1302 176.509 63.2966 176.974 67.7178Z" fill="#413691"/>
<path d="M81.9762 54.8327C81.5108 54.7163 70.5742 52.273 66.8511 52.5057C63.128 52.7384 60.103 54.8327 58.1251 57.0433C57.078 58.2067 56.6126 59.3702 56.3799 60.4173C56.2636 62.1625 57.5434 62.9769 58.9396 62.5116C59.9867 62.1625 60.8011 61.3481 61.9646 59.8356C62.1542 59.5512 62.3266 59.2496 62.4982 58.9495C62.9584 58.1448 63.4124 57.3507 64.1752 56.9269C65.9204 55.7635 68.9454 55.6471 73.8319 55.6471C76.0795 55.7173 78.1151 55.83 79.5291 55.9082C80.4572 55.9596 81.1179 55.9961 81.3945 55.9961C82.907 55.8798 82.5579 54.949 81.9762 54.8327Z" fill="#413691"/>
<path d="M75.5933 64.7714C74.0171 63.8443 71.9237 63.656 70.844 63.5588C70.5689 63.5341 70.3595 63.5153 70.2413 63.4916C69.6596 63.3753 69.5433 62.7935 70.3577 62.4445C70.9735 62.1982 71.85 62.18 72.5388 62.1657C73.1514 62.153 73.6154 62.1434 73.6154 61.9791C73.7317 61.6301 73.2664 60.932 71.6375 60.3503C70.8231 60.0012 69.1942 59.8849 67.9144 59.8849C64.7226 60.2151 62.8843 62.107 62.3996 62.6059C62.3719 62.6344 62.3486 62.6583 62.3298 62.6772C61.9807 63.0262 61.399 63.608 61.1663 64.5387C60.9662 65.5391 61.5403 66.3675 62.1489 67.2457C62.2481 67.3888 62.3483 67.5334 62.4461 67.6801C62.558 67.8665 62.6698 68.041 62.774 68.2035C62.9949 68.5481 63.1815 68.8391 63.2605 69.0763C63.3769 69.658 63.3769 70.007 62.7952 70.3561C62.2134 70.8215 62.5625 71.6359 63.7259 71.2869C65.1221 70.9378 65.8202 70.5888 66.8673 69.658C67.6298 69.0226 67.9759 68.4913 68.3035 67.9883C68.5758 67.5703 68.8353 67.1718 69.3106 66.7493C70.2413 65.8186 73.4991 65.8186 75.1279 66.0513C77.2222 66.5166 77.6875 66.0513 75.5933 64.7714Z" fill="#413691"/>
<path fill-rule="evenodd" clip-rule="evenodd" d="M187.58 33.6658C185.951 28.3138 185.37 22.3802 185.602 20.2859C182.059 21.0128 178.515 18.9723 175.747 17.3785C174.971 16.9315 174.256 16.5196 173.619 16.2138C168.616 14.0032 163.38 12.9561 159.075 18.6571C158.494 19.3551 157.563 19.5878 158.145 17.959C159.192 14.7013 161.402 12.7234 162.682 12.0253C162.449 9.81471 159.89 4.23007 148.837 3.29929C143.95 2.83391 139.18 1.67044 137.435 0.390625C137.435 0.390625 135.806 3.18295 126.149 9.58202C120.681 13.1888 118.936 20.984 125.917 25.9869C126.615 26.5686 126.847 27.3831 125.218 26.9177C122.31 26.2196 119.401 24.1254 118.47 21.2167C118.47 21.2167 108.581 17.6099 101.716 29.5937C100.696 31.3242 100.268 33.1732 99.8508 34.9729C99.1746 37.8919 98.5286 40.6812 95.4337 42.6245C95.4337 42.6245 102.415 44.9514 104.276 51.9322C105.672 58.3313 112.42 62.8688 119.75 58.3313C120.565 57.8659 121.379 57.9823 120.332 59.2621C118.47 61.589 115.213 64.1486 109.395 62.8688C109.395 62.8688 108.581 66.3592 109.628 69.6169C110.833 73.4232 114.391 75.5692 117.603 77.5072C120.283 79.1234 122.722 80.5949 123.357 82.7641C123.357 82.7641 145.463 83.5785 147.673 72.5256C145.695 70.315 145.23 66.8246 145.812 63.9159C146.161 62.2871 146.743 62.8688 146.859 63.7996C147.441 68.6861 151.396 71.2458 153.956 72.4092C157.097 73.8054 161.286 74.8525 167.336 73.9218C167.732 73.8631 168.133 73.7989 168.54 73.7338C171.363 73.2825 174.452 72.7885 177.807 73.8054C177.807 73.8054 177.342 69.7333 178.971 66.7083C180.6 63.6832 184.904 49.6053 172.572 44.486C171.641 44.2533 171.175 43.4389 172.921 43.5553C175.946 43.7879 179.32 44.9514 180.949 47.511C186.184 44.6024 189.326 39.3668 187.58 33.6658ZM133.13 51.7006C132.548 52.0497 132.316 51.9333 132.432 51.3516C132.8 49.4393 133.493 47.9454 133.924 47.017C134.175 46.4768 134.336 46.128 134.294 45.9996C132.781 45.8833 128.593 48.0939 127.895 48.5592C127.313 49.0246 126.615 48.9083 127.196 47.7448C129.291 43.5563 132.083 42.5092 133.945 42.0438C133.247 40.1823 130.454 39.2515 129.174 38.9025C128.942 38.9025 128.942 38.5534 129.291 38.4371C135.719 35.2795 143.13 39.7731 144.639 40.6881C144.687 40.7171 144.729 40.7426 144.765 40.764C145.812 41.4621 146.626 41.9275 146.859 41.6948C147.208 41.4621 147.092 40.9967 146.51 40.415C140.925 34.9467 134.526 34.2486 134.526 34.2486C132.548 36.4592 127.895 34.365 128.593 31.689C129.407 28.664 134.294 29.4784 134.992 32.3871C139.529 32.9688 142.438 34.5976 142.438 34.5976C142.438 34.58 142.437 34.5553 142.437 34.5239C142.422 33.934 142.352 31.0015 145.114 29.013C145.23 28.7803 145.579 28.664 145.463 29.1293C144.532 31.9217 146.161 33.0851 146.161 33.0851C146.626 31.5726 148.023 29.4784 150 27.8495C150.582 27.5005 150.931 27.7332 150.815 28.1986C150.582 29.7111 150.349 32.2707 152.211 34.1323C154.887 31.3399 159.075 30.1765 159.774 30.0601C160.588 29.9438 161.519 30.1765 160.588 30.8745C158.22 32.514 157.207 35.1516 156.432 37.1688C156.217 37.7284 156.02 38.2402 155.818 38.6698C154.073 42.0438 150.699 44.9525 144.416 46.116C139.18 47.1631 135.457 49.8391 133.13 51.7006Z" fill="#EF3138"/>
<defs>
<linearGradient id="paint0_linear_52_5743" x1="37.7917" y1="15.6749" x2="24.5936" y2="127.242" gradientUnits="userSpaceOnUse">
<stop stop-color="#D2068A"/>
<stop offset="0.737" stop-color="#413691"/>
<stop offset="1" stop-color="#413691"/>
</linearGradient>
</defs>
</svg>
