<svg width="200" height="200" viewBox="0 0 200 200" fill="none" xmlns="http://www.w3.org/2000/svg">
<path fill-rule="evenodd" clip-rule="evenodd" d="M39.7525 134.37L39.1611 134.755C51.2036 155.79 73.9955 170 100 170C138.676 170 170 138.64 170 100.001C170 89.3597 165.346 80.4001 159.842 73.6099C152.528 64.5798 142.111 60.24 131.731 60.1699C123.161 60.1002 114.297 62.8302 108.053 68.1848C100.923 74.3099 99.3353 82.1854 97.4883 94.9599C95.457 108.96 83.5623 118.62 68.2697 118.62C48.4699 118.62 36.2065 107.07 37.0187 89.395C37.0929 88.1698 37.2034 86.9455 37.4253 85.7556C41.156 64.8956 64.8345 43.3707 100.444 43.4402C124.343 43.4402 142.296 48.5151 160.248 65.6299L160.84 65.2458C148.797 44.2107 126.043 30 100 30C61.3616 30 30 61.3598 30 100.001C30 110.64 34.6543 119.6 40.159 126.39C47.4357 135.42 57.8902 139.724 68.2697 139.83C76.8395 139.935 85.7049 137.169 91.9473 131.815C99.0775 125.69 100.666 117.815 102.512 105.04C104.544 91.0396 116.475 81.3796 131.731 81.3796C151.567 81.3796 163.832 92.9299 163.018 110.605C162.945 111.83 162.834 113.055 162.613 114.245C158.808 135.105 135.241 156.63 99.5573 156.559C75.6572 156.559 57.7054 151.485 39.7525 134.37Z" fill="#051766"/>
</svg>
