<svg width="200" height="200" viewBox="0 0 200 200" fill="none" xmlns="http://www.w3.org/2000/svg">
<path fill-rule="evenodd" clip-rule="evenodd" d="M100 200C44.7005 200 0 155.3 0 100C0 44.7005 44.7005 0 100 0C155.3 0 200 44.7005 200 100C200 155.3 155.3 200 100 200ZM100 193.998C48.1013 193.998 5.99953 151.899 5.99953 99.9971C5.99953 48.0983 48.0983 5.99662 100 5.99662C151.899 5.99662 194 48.0954 194 99.9971C194 151.896 151.902 193.998 100 193.998ZM138.771 80.1114C138.01 80.1114 137.371 80.1318 137.012 80.1698C136.592 80.931 135.971 81.9489 135.052 83.3693C149.37 83.3693 162.369 84.5476 176.746 87.1289L172.686 91.0488C159.707 88.7505 148.93 87.8289 135.192 87.8289C133.191 87.8289 132.771 87.8289 132.293 87.8493C131.812 88.5697 130.733 89.9697 129.654 91.2676C130.873 91.1888 133.232 91.148 136.493 91.148C147.792 91.148 158.35 91.988 169.81 93.8284L165.75 97.7688C157.032 96.4096 146.372 95.628 136.814 95.628C133.416 95.628 129.554 95.7475 126.095 95.9488C125.526 96.6073 124.283 97.9589 123.413 98.9042C123.093 99.2526 122.823 99.5458 122.656 99.7288C127.236 99.2504 132.276 99.0288 138.275 99.0288C146.815 99.0288 154.973 99.5888 162.693 100.729L158.633 104.629C153.135 103.949 146.456 103.55 140.556 103.55C125.337 103.55 113.341 106.848 100.942 114.429C112.76 127.107 132.118 135.125 150.875 135.125H152.634L146.074 141.466C119.017 136.385 90.5413 124.488 66.4849 108.19C43.3471 92.5713 35.2505 87.9543 17.1907 79.9743L17.0711 75.334L29.2889 80.5722L33.4481 77.2735L73.3419 95.5521L70.7432 97.6317L50.2654 88.733L48.2471 90.3138L58.887 96.2521C67.8644 101.251 74.704 103.491 81.0243 103.491C94.8434 103.491 107.242 93.6913 115.239 76.4744C121.259 75.6927 127.679 75.334 135.396 75.334C151.234 75.334 166.613 76.8535 184.028 80.1143L179.788 84.2122C168.949 81.9518 150.531 80.1143 138.774 80.1143L138.771 80.1114Z" fill="#0A1D3D"/>
</svg>
