<svg width="200" height="200" viewBox="0 0 200 200" fill="none" xmlns="http://www.w3.org/2000/svg">
<path d="M153.981 98.6565C153.981 99.5338 141.649 100.357 124.044 101.048C120.934 99.2838 118.575 97.511 116.848 95.9837C138.199 96.7383 153.981 97.6701 153.981 98.6565Z" fill="#747F8A"/>
<path d="M141.334 68.9341C141.334 69.666 130.997 70.3524 116.22 70.9433C118.338 69.7069 120.52 68.4614 122.811 67.2113C133.975 67.725 141.334 68.3205 141.334 68.9341Z" fill="#747F8A"/>
<path d="M49.2954 42.2482C49.2954 41.0527 51.3364 40.0845 53.8592 40.0845C66.8051 40.0845 106.234 41.0527 106.234 42.2482C106.234 43.4346 66.8097 44.4074 53.8592 44.4074C51.3364 44.4074 49.2954 43.4346 49.2954 42.2482Z" fill="#747F8A"/>
<path d="M35.7472 57.1264C31.3334 57.1264 27.7469 55.7673 27.7469 54.0809C27.7469 52.399 31.3334 51.0308 35.7472 51.0308C52.3978 51.0308 93.9266 51.7672 115.018 52.8172C113.846 53.5857 112.673 54.3784 111.491 55.1772L110.968 55.5309C88.9855 56.481 51.3978 57.1264 35.7472 57.1264Z" fill="#747F8A"/>
<path d="M24.3145 72.8088C37.7695 72.8088 63.9978 72.4315 88.2077 71.8179C89.3715 70.9258 90.5579 70.0427 91.7624 69.1461L91.776 69.136C92.8778 68.3134 93.967 67.5222 95.049 66.7363L95.7125 66.254C69.6116 65.5176 39.165 65.054 24.3145 65.054C18.687 65.054 14.1323 66.795 14.1323 68.9359C14.1323 71.0769 18.687 72.8088 24.3145 72.8088Z" fill="#747F8A"/>
<path d="M17.442 88.1316C11.0963 88.1316 5.95067 86.177 5.95067 83.7587C5.95067 81.345 11.0963 79.3813 17.442 79.3813C30.4561 79.3813 54.0615 79.6995 77.7396 80.2222C74.835 82.6723 72.0803 85.0951 69.4802 87.4725C48.6977 87.8907 28.9424 88.1316 17.442 88.1316Z" fill="#747F8A"/>
<path d="M13.6946 103.306C23.0949 103.306 37.7 103.152 54.0006 102.874C56.4416 100.22 59.1144 97.4379 62.0054 94.5787C42.5547 94.2105 24.6132 94.0014 13.6946 94.0014C6.95343 94.0014 1.48505 96.0878 1.48505 98.6561C1.48505 101.229 6.95343 103.306 13.6946 103.306Z" fill="#747F8A"/>
<path d="M13.6955 132.991C18.382 132.991 24.3822 132.959 31.2234 132.877C31.288 132.785 31.3538 132.694 31.4167 132.607C31.4775 132.522 31.5356 132.442 31.587 132.368C31.6228 132.324 31.7368 132.133 31.9328 131.803C32.6084 130.667 34.2585 127.893 37.0418 123.877C27.7596 123.759 19.6684 123.695 13.6955 123.695C6.9498 123.695 1.48596 125.772 1.48596 128.336C1.48596 130.914 6.9498 132.991 13.6955 132.991Z" fill="#747F8A"/>
<path d="M42.2224 146.621C39.3269 144.116 37.1632 141.825 34.9085 139.103C34.9085 139.103 34.8813 139.039 34.8858 138.975C28.0492 138.898 22.0763 138.866 17.4397 138.866C11.0986 138.866 5.95294 140.821 5.95294 143.244C5.95294 145.653 11.0986 147.621 17.4397 147.621C32.663 147.621 62.3822 147.198 89.765 146.489C87.7423 143.484 86.1013 141.048 85.2922 139.871C75.4691 139.648 65.4915 139.439 56.082 139.28C52.8592 143.603 50 145.471 46.6271 146.844C43.3134 148.18 42.2224 146.621 42.2224 146.621Z" fill="#747F8A"/>
<path d="M24.3159 161.938C18.6884 161.938 14.1291 160.206 14.1291 158.07C14.1291 155.929 18.6884 154.193 24.3159 154.193C39.2028 154.193 69.7221 154.647 95.8594 155.388C97.1185 157.193 98.3776 158.988 99.5731 160.638C72.6631 161.429 39.9073 161.938 24.3159 161.938Z" fill="#747F8A"/>
<path d="M35.749 175.965C51.4314 175.965 89.1737 175.32 111.124 174.356C110.197 173.438 109.215 172.424 108.211 171.347C85.9781 170.46 50.7496 169.869 35.749 169.869C31.3352 169.869 27.7487 171.238 27.7487 172.92C27.7487 174.588 31.3352 175.965 35.749 175.965Z" fill="#747F8A"/>
<path d="M53.8574 182.589C66.8079 182.589 106.232 183.566 106.232 184.748C106.232 185.948 66.8033 186.916 53.8574 186.916C51.3346 186.916 49.2936 185.948 49.2936 184.748C49.2936 183.566 51.3346 182.589 53.8574 182.589Z" fill="#747F8A"/>
<path d="M0 113.495C0 116.118 5.57293 118.231 12.4368 118.231C19.6007 118.231 29.7374 118.145 41.3333 117.99C43.3697 115.318 45.7471 112.336 48.4836 109.117C33.9194 108.895 21.0417 108.767 12.4368 108.767C5.57293 108.767 0 110.89 0 113.495Z" fill="#747F8A"/>
<path d="M149.513 83.7615C149.513 83.1705 143.503 82.6023 133.953 82.0841C133.917 82.2023 133.389 83.7796 130.985 85.5888C142.24 85.0342 149.513 84.4115 149.513 83.7615Z" fill="#747F8A"/>
<path d="M155.273 109.995C155.364 112.354 155.35 114.695 155.232 116.99C132.295 117.899 110.544 119.281 110.544 120.836C110.544 122.363 131.808 123.731 154.482 124.636C154.082 127.254 153.568 129.823 152.941 132.341C130.59 133.255 109.848 134.6 109.848 136.114C109.848 137.573 129.213 138.887 150.654 139.8C149.672 142.537 148.559 145.196 147.309 147.741C128.894 148.628 113.676 149.81 113.676 151.101C113.676 152.305 126.972 153.419 143.731 154.278C142.79 155.81 141.809 157.31 140.781 158.728C139.69 160.274 138.504 161.806 137.249 163.31C126.772 164.106 119.58 165.01 119.58 165.978C119.58 166.81 124.731 167.588 132.667 168.283C128.335 172.57 123.217 176.574 117.185 180.07C117.185 180.07 110.08 173.951 104.216 166.806C98.9888 160.433 87.8975 143.632 85.2883 139.873C82.6746 136.114 80.9564 135.014 77.9017 136.105C73.8061 137.555 69.0469 138.282 67.5832 138.282C66.1195 138.282 65.3149 137.714 67.7695 136.741C70.2151 135.755 79.8836 131.191 84.6429 121.759C89.9885 111.136 85.2883 96.4669 85.2883 96.4669C83.4928 104.308 79.4109 107.235 79.4109 107.235C80.7291 99.9534 79.2927 93.3531 75.6971 88.7212L73.6925 97.9397C73.6925 97.9397 72.4379 97.876 69.3332 100.485C66.2331 103.099 65.3785 106.908 65.3785 106.908C67.8195 107.89 70.756 105.44 70.756 105.44C67.0059 119.472 61.6284 130.895 57.7055 136.936C53.7872 142.978 50.5553 145.255 46.6279 146.85C43.3141 148.178 42.2232 146.619 42.2232 146.619C39.3276 144.119 37.1639 141.828 34.9093 139.105C34.9093 139.105 34.7274 138.787 35.3365 138.796C36.9502 138.818 39.8231 136.059 40.4504 134.914C41.1686 133.6 41.0913 132.595 40.7322 132.527C40.3776 132.468 39.764 133.509 36.6502 135.473C33.5547 137.432 32.1319 136.073 31.1 134.982C30.3 134.114 31.0864 133.041 31.5864 132.368C32.0592 131.768 48.437 101.226 91.7749 69.1386C148.568 27.0872 184.837 15.7322 186.915 14.914C188.288 14.3731 190.528 13.6594 191.038 14.1822C191.601 14.7731 191.879 15.2458 191.801 15.9322C191.729 16.6141 191.365 16.9641 188.738 18.1232C166.937 27.7281 141.486 43.7378 127.026 53.0563C109.244 61.7202 92.2659 74.0934 91.6477 74.3888C90.2794 75.2389 91.2886 76.4753 92.1159 75.9571C122.144 55.9836 157.35 42.3786 196.256 31.2328C198.115 30.7055 199.133 30.7055 199.442 31.1146C199.792 31.5691 199.942 32.0873 199.997 32.6601C200.047 33.3738 199.456 33.751 197.861 34.3738C156.064 49.9016 125.258 64.3248 105.444 77.6571C105.444 77.6571 103.394 78.8935 103.366 80.3254C103.357 80.8709 104.466 80.9345 104.466 80.9345C114.385 81.1118 127.644 81.6936 133.954 82.0618C133.954 82.0618 133.054 85.2574 127.013 87.8302C122.349 89.8212 118.03 89.503 113.758 89.5394C112.808 89.5212 112.003 90.4803 112.762 91.5031C113.144 92.0122 122.235 106.649 155.273 109.995" fill="#5C0632"/>
</svg>
