<svg width="200" height="200" viewBox="0 0 200 200" fill="none" xmlns="http://www.w3.org/2000/svg">
<path d="M110.458 0.548116C160.754 5.78636 199.981 48.2902 200 99.9688C200.019 155.192 155.26 199.981 100.031 200C44.8022 200.019 0.018692 155.266 5.84961e-06 100.037C-0.0186803 44.8085 44.7337 0.0186862 99.9626 0C103.5 0 107.007 0.193087 110.458 0.548116Z" fill="white"/>
<path fill-rule="evenodd" clip-rule="evenodd" d="M115.615 193.017C166.995 184.39 201.638 135.745 193.005 84.3777C185.824 41.6309 150.969 10.4755 109.866 6.17156C101.57 5.29956 92.9991 5.53625 84.3538 6.98128C74.1078 8.70037 64.5532 12.0327 55.8518 16.648C101.134 32.0077 125.481 55.3525 127.169 79.2765C127.998 94.0445 121.134 104.727 112.115 113.434L176.145 108.962C177.957 108.837 178.524 110.943 176.331 111.578L23.6064 155.365C39.1467 176.779 63.3012 191.024 90.1028 193.826C98.4055 194.699 106.976 194.474 115.615 193.017ZM20.2492 150.396C13.7341 140.118 9.10628 128.39 6.96987 115.634C0.485912 77.029 18.4367 39.9689 49.561 20.2617C72.4199 37.7391 81.9745 70.7195 73.6033 102.193C65.992 130.788 44.5905 143.619 20.2492 150.396Z" fill="#C70A0C"/>
</svg>
