<svg width="400" height="300" viewBox="0 0 400 300" fill="none" xmlns="http://www.w3.org/2000/svg">
<rect width="400" height="300" fill="#FAFAFA"/>
<g clip-path="url(#clip0_150_4092)">
<path d="M312.627 139L301.319 155.61C299.832 157.794 297.417 159.9 294.5 160.124V160.634H307.076C310.415 160.634 312.851 158.428 314.498 155.997L326.109 139H312.628H312.627Z" fill="#FF0000"/>
<path d="M104.39 160.634V140.825H110.082V160.634H104.39ZM235.681 160.634L222.002 148.871V160.634H217.195V140.825H221.279L234.775 152.403V140.825H239.582V160.634H235.681ZM265.43 147.215C262.858 145.929 259.96 144.888 256.119 144.888C251.532 144.888 248.111 147.297 248.111 150.646C248.111 154.078 251.593 156.509 256.077 156.509C259.78 156.509 262.714 155.549 265.611 153.852V158.755C263.056 160.041 259.658 161 255.836 161C248.032 161 241.895 156.958 241.895 150.646C241.895 144.438 248.151 140.455 255.815 140.455C259.436 140.455 262.714 141.149 265.43 142.274V147.215ZM141.763 160.634V140.825H160.792V145.072H147.456V149.994H160.492V154.242H147.456V160.636L141.763 160.634ZM268.871 160.634V140.825H288.622V145.072H274.562V148.504H288.401V152.751H274.562V156.387H288.562V160.634H268.871ZM180.565 153.2L188.429 160.636H182.355C181.007 160.636 180.123 160.207 179.418 159.51L174.067 154.241C173.941 154.128 173.775 154.07 173.606 154.079H169.965V160.634H164.272V140.825H176.603C182.999 140.825 185.695 143.745 185.695 146.971C185.695 150.729 182.395 152.523 180.565 153.2ZM176.021 149.932C178.271 149.932 179.358 148.769 179.358 147.462C179.358 146.154 178.393 145.072 176.021 145.072H169.965V149.932H176.021ZM131.704 153.201L139.569 160.634H133.496C132.148 160.634 131.262 160.206 130.559 159.51L125.208 154.241C125.081 154.128 124.915 154.07 124.746 154.079H121.106V160.634H115.412V140.825H127.743C134.139 140.825 136.836 143.745 136.836 146.971C136.836 150.729 133.536 152.525 131.704 153.201ZM127.16 149.932C129.413 149.932 130.5 148.769 130.5 147.462C130.5 146.154 129.534 145.072 127.16 145.072H121.106V149.932H127.16ZM95.4776 160.634L92.9844 156.284H82.0828L79.8093 160.634H74.3779L85.2406 140.845H90.1896L102.501 160.634H95.4776ZM84.2546 152.158H90.6117L87.3119 146.113L84.2546 152.158ZM209.149 160.634L206.714 156.284H196.097L193.904 160.634H188.612L199.192 140.845H203.999L215.968 160.634H209.149ZM198.227 152.158H204.422L201.204 146.113L198.227 152.158Z" fill="#051039"/>
</g>
<defs>
<clipPath id="clip0_150_4092">
<rect width="252" height="60" fill="white" transform="translate(74 120)"/>
</clipPath>
</defs>
</svg>
