<svg width="400" height="300" viewBox="0 0 400 300" fill="none" xmlns="http://www.w3.org/2000/svg">
<rect width="400" height="300" fill="#FAFAFA"/>
<g clip-path="url(#clip0_150_4064)">
<path d="M72.3809 161.657C72.9782 161.352 73.2453 160.627 73.2453 160.007V144.8C73.2453 144.156 72.9782 143.453 72.3809 143.129H79.6291C82.8615 143.129 86.0151 144.453 86.0151 148.122C86.0151 150.069 84.3188 151.604 82.4896 151.949C85.1247 151.925 87.6708 153.535 87.6708 156.442C87.6708 160.598 83.3124 161.658 80.2467 161.658L72.3809 161.657ZM78.2484 144.725C77.9125 144.725 77.6792 144.725 77.0605 144.8V151.285H77.7942C80.0157 151.285 82.1628 150.599 82.1628 148.024C82.1628 145.47 80.4462 144.725 78.2484 144.725ZM78.7105 152.954C78.1808 152.954 77.7052 152.954 77.0605 153.003V159.851C77.8641 160.008 78.7331 160.06 79.5344 160.06C81.3941 160.06 83.2853 159.231 83.2853 156.389C83.2853 153.585 81.0492 152.954 78.7105 152.954ZM94.839 144.725C94.5076 144.725 94.2157 144.779 93.8888 144.826V151.233C94.192 151.254 94.467 151.286 94.7668 151.286C96.8519 151.286 98.3949 150.135 98.3949 147.868C98.3949 145.55 96.8778 144.725 94.839 144.725ZM104.181 161.767C103.471 161.767 102.688 161.793 102.009 161.592C100.748 161.22 99.0069 158.378 98.3149 157.263C97.2385 155.451 96.303 152.954 93.89 152.927V160.007C93.89 160.627 94.1706 161.378 94.768 161.657H89.2036C89.7885 161.352 90.0669 160.655 90.0669 160.007V144.8C90.0669 144.156 89.7874 143.453 89.2036 143.129H95.9029C98.8175 143.129 102.465 144.249 102.465 147.75C102.465 150.689 100.034 152.194 97.323 152.194C101.18 152.217 103.445 161.264 107.703 161.29C106.562 161.628 105.371 161.767 104.181 161.767ZM107.983 161.657C108.443 161.447 108.924 160.839 108.924 160.007V144.8C108.924 143.956 108.443 143.358 107.983 143.129H113.685C113.196 143.358 112.749 143.956 112.749 144.8V160.007C112.749 160.839 113.196 161.447 113.685 161.657H107.983ZM120.356 161.657C120.967 161.378 121.266 160.655 121.266 160.007V145.254H117.171C116.226 145.254 115.1 145.37 114.289 145.851L115.561 143.128H129.143C130.243 143.128 131.367 143.105 132.436 142.877C131.919 144.271 130.379 145.305 129.492 145.305C128.413 145.28 126.629 145.208 125.092 145.208V160.006C125.092 160.654 125.413 161.377 126.013 161.656L120.356 161.657ZM133.114 161.657C133.57 161.447 134.048 160.839 134.048 160.007V144.8C134.048 143.956 133.57 143.358 133.114 143.129H138.816C138.332 143.358 137.867 143.956 137.867 144.8V160.007C137.867 160.839 138.332 161.447 138.816 161.657H133.114ZM149.918 157.466C149.918 153.937 141.606 153.14 141.606 147.507C141.606 144.02 144.923 142.878 147.84 142.878C149.141 142.878 151.025 143.058 152.215 143.606L152.422 147.07C151.691 145.54 149.859 144.432 148.159 144.432C146.814 144.432 145.405 145.097 145.405 146.635C145.405 150.294 153.858 151.188 153.858 156.524C153.858 160.396 150.475 162 147.06 162C145.273 162 142.843 161.656 141.336 160.626C141.245 160.006 141.203 159.358 141.203 158.724C141.203 157.967 141.27 157.209 141.382 156.463C142.322 158.605 144.267 160.281 146.697 160.281C148.543 160.282 149.918 159.478 149.918 157.466ZM167.726 161.657C168.128 161.476 168.559 160.839 168.559 160.007V153.113C167.567 153.001 166.182 152.953 164.627 152.953C163.05 152.953 161.653 153.001 160.637 153.113V160.007C160.637 160.839 161.056 161.447 161.464 161.657H155.974C156.381 161.476 156.815 160.839 156.815 160.007V144.8C156.815 143.956 156.381 143.333 155.974 143.129H161.464C161.056 143.335 160.637 143.956 160.637 144.8V151.029C161.653 151.136 163.025 151.188 164.627 151.188C166.182 151.188 167.567 151.12 168.559 151.029V144.8C168.559 143.956 168.129 143.333 167.726 143.129H173.208C172.798 143.335 172.391 143.956 172.391 144.8V160.007C172.391 160.839 172.798 161.447 173.208 161.657H167.726Z" fill="#2E5C99"/>
<path d="M193.557 161.657C193.734 161.476 193.894 161.341 193.894 161.013C193.894 160.902 193.853 160.717 193.717 160.373C193.717 160.373 192.196 156.232 192.018 155.749C190.875 155.608 189.683 155.608 188.517 155.608C187.41 155.608 186.286 155.634 185.19 155.749C185.034 156.164 183.403 160.282 183.403 160.282C183.184 160.839 183.108 161.03 183.108 161.151C183.108 161.426 183.345 161.56 183.545 161.657H179.816C180.366 161.378 180.843 160.803 181.078 160.23L187.207 144.411C187.235 144.346 187.246 144.272 187.246 144.183C187.246 143.747 186.956 143.333 186.566 143.128H191.374L197.608 160.215C197.863 160.901 198.406 161.402 198.862 161.656L193.557 161.657ZM188.716 146.656L185.907 153.869C186.744 153.962 187.613 153.983 188.461 153.983C189.432 153.983 190.392 153.983 191.337 153.869L188.716 146.656ZM199.811 161.657C200.271 161.447 200.747 160.839 200.747 160.007V144.8C200.747 143.956 200.271 143.358 199.811 143.129H205.51C205.025 143.358 204.573 143.956 204.573 144.8V160.007C204.573 160.839 205.024 161.447 205.51 161.657H199.811ZM214.173 144.725C213.865 144.725 213.57 144.779 213.249 144.826V151.233C213.547 151.254 213.819 151.286 214.108 151.286C216.198 151.286 217.738 150.135 217.738 147.868C217.736 145.55 216.214 144.725 214.173 144.725ZM223.98 161.767C223.27 161.767 222.504 161.793 221.81 161.592C220.546 161.22 218.809 158.378 218.116 157.263C217.044 155.451 215.649 152.927 213.249 152.927V160.007C213.249 160.627 213.518 161.378 214.108 161.657H208.548C209.146 161.352 209.424 160.655 209.424 160.007V144.8C209.424 144.156 209.146 143.453 208.548 143.129H215.262C218.169 143.129 221.811 144.249 221.811 147.75C221.811 150.689 219.154 152.194 217.144 152.194C221.141 152.424 223.552 161.29 227.518 161.29C226.369 161.628 225.178 161.767 223.98 161.767ZM247.097 144.938L241.466 161.657C241.001 161.657 240.546 161.497 240.288 161.316C239.731 160.779 238.856 158.54 238.54 157.714L235.995 151.285L232.33 161.657H230.585L224.284 144.897C224.013 144.183 223.551 143.499 222.863 143.129H228.34C228.109 143.309 227.95 143.513 227.95 143.903C227.95 144.09 228.042 144.348 228.109 144.547L232.213 155.635L236.582 143.129L241.395 155.186L245.04 144.272C245.13 143.976 245.183 143.866 245.183 143.679C245.183 143.453 245.085 143.309 244.856 143.129H248.483C247.812 143.481 247.328 144.249 247.097 144.938ZM253.828 146.656L251.019 153.869C251.866 153.962 252.733 153.983 253.579 153.983C254.54 153.983 255.511 153.983 256.45 153.869L253.828 146.656ZM258.663 161.657C258.854 161.476 259 161.341 259 161.013C259 160.902 258.943 160.717 258.832 160.373C258.832 160.373 257.32 156.232 257.137 155.749C255.984 155.608 254.795 155.608 253.628 155.608C252.531 155.608 251.407 155.634 250.304 155.749C250.145 156.164 248.526 160.282 248.526 160.282C248.293 160.839 248.228 161.03 248.228 161.151C248.228 161.426 248.455 161.56 248.653 161.657H244.923C245.474 161.378 245.949 160.803 246.18 160.23L252.331 144.411C252.349 144.346 252.366 144.272 252.366 144.183C252.366 143.747 252.075 143.333 251.675 143.128H256.487L262.719 160.215C262.977 160.901 263.527 161.402 263.98 161.656L258.663 161.657ZM275.405 145.075L271.017 152.77V160.007C271.017 160.596 271.258 161.378 271.844 161.657H266.383C266.941 161.352 267.198 160.577 267.198 160.007V152.747L263.383 146.635C263.041 146.063 261.45 143.4 259.51 143.4C260.038 143.199 261.642 142.894 262.718 142.894C264.513 142.894 265.403 143.058 266.502 144.779L270.032 150.374C270.328 149.825 273.123 144.965 273.123 144.965C273.46 144.374 273.691 143.956 273.691 143.748C273.691 143.482 273.576 143.309 273.306 143.129H277.239C276.468 143.499 275.826 144.347 275.405 145.075ZM285.679 157.466C285.679 153.937 277.365 153.14 277.365 147.507C277.365 144.02 280.673 142.878 283.591 142.878C284.898 142.878 286.77 143.058 287.966 143.606L288.173 147.07C287.434 145.54 285.61 144.432 283.908 144.432C282.561 144.432 281.161 145.097 281.161 146.635C281.161 150.294 289.614 151.188 289.614 156.524C289.614 160.396 286.255 162 282.815 162C281.03 162 278.594 161.656 277.085 160.626C276.987 160.006 276.939 159.358 276.939 158.724C276.939 157.967 277.012 157.209 277.126 156.463C278.065 158.605 280.017 160.281 282.447 160.281C284.301 160.282 285.679 159.478 285.679 157.466Z" fill="#2E5C99"/>
<path d="M336.822 130.16C333.706 133.256 326.958 135.914 323.637 137.158C319.101 138.862 317.088 139.465 314.55 140.291C311.677 141.223 305.93 142.963 305.93 142.963C317.835 146.517 326.225 147.589 326.225 147.589C326.225 147.589 330.134 146.381 336.326 143.07C339.679 141.366 341.329 140.218 342.509 139.122C342.944 138.728 344.068 137.558 344.347 136.061C344.365 135.952 344.419 135.666 344.419 135.384C344.419 135.384 344.419 135.186 344.401 135.013C344.395 134.815 344.36 134.682 344.36 134.682C344.36 134.682 344.293 134.327 344.205 134.078C344.114 133.829 343.731 133.06 343.11 132.561C342.695 132.224 341.978 131.384 339.381 130.471C338.499 130.165 337.07 129.882 337.07 129.882L336.822 130.16Z" fill="url(#paint0_linear_150_4064)"/>
<path d="M344.419 135.305C344.419 135.305 344.401 134.974 344.32 134.693C344.257 134.443 344.145 134.204 343.977 133.953C343.774 133.654 343.501 133.304 343.096 132.916C342.791 132.627 342.456 132.373 342.052 132.102C340.428 131.038 338.332 130.439 336.477 130.185C333.602 129.803 330.304 129.87 329.991 129.859C328.931 129.845 322.078 129.901 320.317 129.932C312.494 130.094 302.917 130.115 300.408 130.115C274.509 130.233 263.236 129.675 250.689 127.16C240.016 125.04 234.094 123.026 234.094 123.026C243.509 122.7 298.44 120.421 308.461 120.155C315.022 119.97 319.68 119.931 323.407 120.146C325.319 120.253 327.097 120.415 329.331 120.795C331.334 121.138 333.153 121.719 334.212 122.113C336.444 122.939 338.325 124.134 339.255 125.358C339.255 125.358 339.53 125.639 339.903 126.14C340.321 126.721 340.807 127.437 340.971 127.704C342.33 129.762 342.974 131.055 343.199 131.506C343.441 131.979 343.655 132.471 343.864 132.952C344.068 133.43 344.151 133.719 344.216 133.921C344.359 134.427 344.394 134.888 344.401 134.992L344.419 135.305Z" fill="#CE210F"/>
</g>
<defs>
<linearGradient id="paint0_linear_150_4064" x1="332.853" y1="126.4" x2="318.949" y2="150.482" gradientUnits="userSpaceOnUse">
<stop stop-color="#E6EBEF"/>
<stop offset="0.0764" stop-color="#BBCEE5"/>
<stop offset="0.1854" stop-color="#85A9D8"/>
<stop offset="0.2796" stop-color="#5D8FCF"/>
<stop offset="0.3543" stop-color="#457EC9"/>
<stop offset="0.4" stop-color="#3C78C7"/>
<stop offset="0.9" stop-color="#2E5C99"/>
</linearGradient>
<clipPath id="clip0_150_4064">
<rect width="272" height="60" fill="white" transform="translate(72 112)"/>
</clipPath>
</defs>
</svg>
