<svg width="400" height="300" viewBox="0 0 400 300" fill="none" xmlns="http://www.w3.org/2000/svg">
<rect width="400" height="300" fill="#FAFAFA"/>
<g clip-path="url(#clip0_150_3638)">
<path d="M251.382 171.834C251.382 171.685 251.307 171.61 251.158 171.61H250.86C250.823 171.61 250.823 171.61 250.823 171.648V171.983C250.823 172.02 250.823 172.02 250.86 172.02H251.158C251.307 172.02 251.382 171.945 251.382 171.834ZM250.6 172.839C250.562 172.839 250.562 172.802 250.562 172.802V171.461C250.562 171.424 250.6 171.424 250.6 171.424H251.158C251.494 171.424 251.68 171.573 251.68 171.871C251.68 172.094 251.568 172.206 251.382 172.281L251.68 172.839C251.717 172.876 251.68 172.876 251.643 172.876H251.494C251.456 172.876 251.456 172.839 251.419 172.839L251.121 172.318H250.86C250.823 172.318 250.823 172.318 250.823 172.355V172.876C250.823 172.913 250.786 172.913 250.786 172.913H250.6V172.839ZM252.164 172.132C252.164 171.499 251.68 171.052 251.084 171.052C250.451 171.052 250.004 171.499 250.004 172.132C250.004 172.765 250.488 173.211 251.084 173.211C251.68 173.174 252.164 172.727 252.164 172.132ZM249.743 172.132C249.743 171.387 250.302 170.828 251.047 170.828C251.791 170.828 252.35 171.387 252.35 172.132C252.35 172.876 251.791 173.472 251.047 173.472C250.302 173.435 249.743 172.876 249.743 172.132Z" fill="#413691"/>
<path d="M108.105 132.995V152.988C108.105 153.882 108.105 155.148 106.876 155.148H103.487V146.101H93.618V152.988C93.618 153.882 93.6925 155.148 92.4635 155.148H89V135.155C89 134.261 89 132.995 90.229 132.995H93.618V142.527H103.524V135.155C103.524 134.299 103.45 132.995 104.679 132.995H108.105Z" fill="#413691"/>
<path d="M124.812 145.502L121.647 136.194L117.14 148.48L117.327 148.518C117.922 147.401 119.412 145.465 122.019 145.465L124.812 145.502ZM132.149 155.145H128.089L125.967 148.965H117.14L115.613 153.507C115.353 154.214 115.018 155.145 113.863 155.145H110.511L117.736 134.817C117.997 134.109 118.332 132.992 119.561 132.992H125.036L132.67 154.437C132.782 154.847 132.596 155.145 132.149 155.145Z" fill="#413691"/>
<path d="M163.753 132.995L156.38 153.51C156.231 153.956 155.933 155.148 154.778 155.148H151.948L147.739 143.346L144.015 153.547C143.866 153.994 143.568 155.185 142.414 155.185H139.323L131.688 133.74C131.539 133.293 131.763 133.033 132.209 133.033H136.269L141.781 149.526L145.766 137.761L144.313 133.74C144.164 133.293 144.388 133.033 144.835 133.033H148.931L154.033 149.079L158.465 134.634C158.689 133.926 159.061 133.033 160.215 133.033H163.753V132.995Z" fill="#413691"/>
<path d="M176.599 145.502L173.433 136.194L168.927 148.48L169.113 148.518C169.709 147.401 171.199 145.465 173.806 145.465L176.599 145.502ZM183.935 155.145H179.876L177.753 148.965H168.964L167.437 153.507C167.176 154.214 166.841 155.145 165.687 155.145H162.335L169.56 134.817C169.821 134.109 170.156 132.992 171.385 132.992H176.859L184.494 154.437C184.606 154.847 184.382 155.145 183.935 155.145Z" fill="#413691"/>
<path d="M187.072 135.143C187.072 134.249 187.072 132.983 188.152 132.983H191.69V150.035V152.976C191.69 153.87 191.69 155.136 190.61 155.136H187.072V135.143Z" fill="#413691"/>
<path d="M196.448 135.143C196.448 134.249 196.448 132.983 197.528 132.983H201.066V149.663V152.976C201.066 153.87 201.066 155.136 199.986 155.136H196.448V135.143Z" fill="#413691"/>
<path d="M217.718 145.502L214.552 136.194L210.046 148.48L210.232 148.518C210.828 147.401 212.318 145.465 214.925 145.465L217.718 145.502ZM225.054 155.145H220.995L218.872 148.965H210.046L208.519 153.507C208.258 154.214 207.923 155.145 206.769 155.145H203.417L210.642 134.817C210.902 134.109 211.238 132.992 212.467 132.992H217.941L225.576 154.437C225.725 154.847 225.501 155.145 225.054 155.145Z" fill="#413691"/>
<path d="M247.61 132.995V152.988C247.61 153.882 247.61 155.148 246.53 155.148H243.626L232.676 140.516V152.988C232.676 153.882 232.676 155.148 231.485 155.148H228.207V135.155C228.207 134.261 228.207 132.995 229.287 132.995H232.304L243.141 147.925V135.155C243.141 134.261 242.955 132.995 244.184 132.995H247.61Z" fill="#413691"/>
<path d="M174.06 169.512L172.31 164.485H172.273L170.485 169.512H174.06ZM171.565 162.512C171.602 162.438 171.64 162.363 171.751 162.363H172.831C172.943 162.363 173.018 162.438 173.055 162.512L176.891 173.272C176.928 173.346 176.854 173.421 176.779 173.421H175.625C175.513 173.421 175.438 173.384 175.401 173.272L174.545 170.852H170.001L169.145 173.272C169.107 173.384 169.033 173.421 168.921 173.421H167.767C167.655 173.421 167.618 173.346 167.655 173.272L171.565 162.512Z" fill="#413691"/>
<path d="M180.411 162.496C180.411 162.422 180.485 162.348 180.56 162.348H181.677C181.789 162.348 181.826 162.422 181.826 162.496V171.022V173.256C181.826 173.331 181.752 173.405 181.677 173.405H180.56C180.448 173.405 180.411 173.331 180.411 173.256V162.496Z" fill="#413691"/>
<path d="M193.205 165.514C193.205 164.36 192.423 163.69 191.12 163.69H188.476C188.401 163.69 188.364 163.727 188.364 163.764V167.264C188.364 167.338 188.401 167.338 188.476 167.338H191.12C192.423 167.376 193.205 166.668 193.205 165.514ZM193.466 173.407C193.354 173.407 193.317 173.37 193.243 173.258L191.008 168.716H188.513C188.438 168.716 188.401 168.753 188.401 168.79V173.221C188.401 173.295 188.327 173.37 188.252 173.37H187.135C187.023 173.37 186.986 173.295 186.986 173.221V162.461C186.986 162.387 187.06 162.312 187.135 162.312H191.194C193.28 162.312 194.695 163.578 194.695 165.477C194.695 167.003 193.838 168.083 192.498 168.492L194.881 173.146C194.956 173.221 194.918 173.332 194.769 173.332L193.466 173.407Z" fill="#413691"/>
<path d="M199.125 162.496C199.125 162.422 199.2 162.348 199.274 162.348H200.391C200.503 162.348 200.54 162.422 200.54 162.496V171.953C200.54 172.028 200.578 172.028 200.652 172.028H206.015C206.127 172.028 206.164 172.102 206.164 172.177V173.182C206.164 173.256 206.09 173.331 206.015 173.331H199.274C199.162 173.331 199.125 173.256 199.125 173.182V162.496Z" fill="#413691"/>
<path d="M209.472 162.496C209.472 162.422 209.547 162.348 209.621 162.348H210.739C210.85 162.348 210.888 162.422 210.888 162.496V170.352V173.219C210.888 173.293 210.813 173.368 210.739 173.368H209.621C209.51 173.368 209.472 173.293 209.472 173.219V162.496Z" fill="#413691"/>
<path d="M216.048 162.496C216.048 162.422 216.122 162.348 216.197 162.348H217.239C217.388 162.348 217.463 162.385 217.537 162.496L222.602 170.799H222.677V162.496C222.677 162.422 222.751 162.348 222.826 162.348H223.868C223.98 162.348 224.017 162.422 224.017 162.496V173.256C224.017 173.331 223.943 173.405 223.868 173.405H222.826C222.714 173.405 222.602 173.368 222.528 173.256L217.426 164.991H217.388V173.256C217.388 173.331 217.314 173.405 217.239 173.405H216.197C216.085 173.405 216.048 173.331 216.048 173.256V162.496Z" fill="#413691"/>
<path d="M229.119 162.496C229.119 162.422 229.194 162.348 229.268 162.348H236.009C236.121 162.348 236.158 162.422 236.158 162.496V163.502C236.158 163.576 236.083 163.651 236.009 163.651H230.683C230.609 163.651 230.572 163.688 230.572 163.725V166.964C230.572 167.039 230.609 167.039 230.683 167.039H235.227C235.339 167.039 235.376 167.113 235.376 167.188V168.193C235.376 168.267 235.301 168.342 235.227 168.342H230.683C230.609 168.342 230.572 168.379 230.572 168.416V171.767C230.572 171.841 230.609 171.841 230.683 171.841H236.009C236.121 171.841 236.158 171.916 236.158 171.99V172.996C236.158 173.07 236.083 173.145 236.009 173.145H229.268C229.156 173.145 229.119 173.07 229.119 172.996V162.496Z" fill="#413691"/>
<path d="M239.934 172.199C239.86 172.124 239.822 172.05 239.897 171.938L240.642 171.119C240.716 171.045 240.791 171.045 240.865 171.082C241.61 171.677 242.727 172.236 243.993 172.236C245.558 172.236 246.451 171.454 246.451 170.337C246.451 169.369 245.893 168.773 244.105 168.513L243.547 168.438C241.349 168.141 240.269 167.098 240.269 165.385C240.269 163.412 241.722 162.146 243.919 162.146C245.222 162.146 246.489 162.556 247.345 163.152C247.457 163.226 247.457 163.3 247.382 163.375L246.824 164.268C246.749 164.343 246.675 164.343 246.6 164.306C245.669 163.747 244.85 163.487 243.882 163.487C242.504 163.487 241.759 164.231 241.759 165.274C241.759 166.205 242.392 166.837 244.105 167.024L244.664 167.098C246.861 167.396 247.941 168.364 247.941 170.188C247.941 172.124 246.563 173.539 243.844 173.539C242.28 173.613 240.753 172.943 239.934 172.199Z" fill="#413691"/>
<path d="M255.779 138.508C255.779 151.539 265.276 162.373 277.789 164.533C277.677 165.464 277.566 166.357 277.417 167.065C276.56 171.234 273.655 175.069 272.054 176C276.262 175.628 279.614 174.399 281.625 172.463C281.476 172.463 280.173 172.426 280.061 172.426C280.843 172.128 281.662 171.756 282.407 171.309C282.705 168.889 282.593 165.985 281.96 162.411C281.104 157.794 279.353 156.23 279.055 155.933C279.018 155.895 279.018 155.895 279.018 155.895C279.018 155.858 279.055 155.858 279.093 155.858C280.582 154.927 281.886 153.848 282.482 153.326C282.929 152.954 282.78 152.768 282.295 152.954C281.029 153.513 278.981 154.22 276.337 154.555C274.028 154.853 271.272 154.778 268.292 154.22C268.292 154.22 266.207 153.922 266.505 151.837C266.579 151.241 266.877 150.646 267.138 150.05C267.212 149.864 267.399 149.305 267.324 148.859C267.287 148.747 267.138 148.524 267.063 148.412C266.914 148.188 266.84 147.853 267.026 147.481C267.175 147.183 267.697 146.699 268.479 146.625C268.851 146.588 269.261 146.588 269.708 146.588C270.266 146.588 270.825 146.588 271.272 146.513C272.463 146.29 273.208 145.508 273.059 145.247C272.948 145.098 271.868 145.284 271.532 145.359C271.011 145.471 270.006 145.024 269.484 144.875C268.702 144.614 268.255 144.428 267.585 144.726C267.138 144.912 266.803 145.768 266.691 145.359C266.654 145.173 266.728 144.987 266.877 144.763C267.026 144.54 267.324 144.168 267.324 143.944C267.361 143.721 267.436 143.348 266.728 142.864C266.207 142.492 265.872 142.269 265.685 142.045C265.015 141.375 264.903 140.705 266.207 139.625C267.138 138.881 269.149 136.833 269.745 135.567C269.857 135.381 270.341 134.599 269.782 133.78C269.372 133.184 269.298 133.073 269.186 132.849C268.888 132.291 269.074 131.77 269.596 131.025C269.819 130.653 270.043 130.206 270.527 128.679C271.123 126.93 271.979 125.403 273.246 124.1C273.357 123.839 273.469 121.829 274.661 119.967C275.033 119.223 275.592 118.441 276.262 117.696C276.746 117.212 277.491 116.617 278.459 116.058C279.465 115.5 280.657 114.941 282.109 114.532C283.822 114.048 285.833 113.713 288.068 113.713C289.744 113.75 291.308 113.862 293.207 114.346C293.207 114.346 293.319 114.383 293.431 114.42C290.042 112.856 286.318 112 282.333 112C267.697 112.074 255.779 123.914 255.779 138.508ZM266.393 141.748C266.356 141.859 266.43 141.896 266.542 141.934C267.026 142.157 267.25 142.269 268.143 142.79C269.186 143.386 269.633 142.902 269.857 142.492C269.931 142.38 270.006 141.934 269.894 141.822C269.782 141.673 269.596 141.785 269.41 141.971C269.186 142.194 268.628 142.083 268.441 142.045C268.255 142.008 267.399 141.822 266.877 141.71C266.765 141.673 266.691 141.673 266.616 141.673C266.468 141.673 266.393 141.673 266.393 141.748Z" fill="url(#paint0_linear_150_3638)"/>
<path d="M278.498 129.546C278.349 129.509 274.849 128.727 273.657 128.802C272.465 128.876 271.497 129.546 270.864 130.254C270.529 130.626 270.38 130.998 270.305 131.333C270.268 131.892 270.678 132.152 271.124 132.003C271.46 131.892 271.72 131.631 272.093 131.147C272.316 130.812 272.465 130.403 272.8 130.216C273.359 129.844 274.327 129.807 275.891 129.807C277.083 129.844 278.089 129.919 278.312 129.919C278.796 129.881 278.685 129.583 278.498 129.546Z" fill="#413691"/>
<path d="M276.455 132.727C275.822 132.354 274.928 132.354 274.742 132.317C274.556 132.28 274.519 132.094 274.779 131.982C275.152 131.833 275.822 131.945 275.822 131.833C275.859 131.721 275.71 131.498 275.189 131.312C274.928 131.2 274.407 131.163 273.997 131.163C272.917 131.275 272.321 131.945 272.21 132.056C272.098 132.168 271.912 132.354 271.837 132.652C271.763 133.024 272.023 133.322 272.247 133.657C272.359 133.843 272.47 133.992 272.508 134.104C272.545 134.29 272.545 134.402 272.359 134.514C272.172 134.663 272.284 134.923 272.657 134.812C273.103 134.7 273.327 134.588 273.662 134.29C274.109 133.918 274.109 133.657 274.444 133.359C274.742 133.062 275.785 133.062 276.306 133.136C276.977 133.285 277.126 133.136 276.455 132.727Z" fill="#413691"/>
<path d="M309.316 137.69C309.316 136.499 308.981 134.153 308.907 133.669C308.758 132.255 308.423 130.281 307.305 127.526C306.114 124.548 305.108 122.463 302.129 119.559C298.628 116.171 294.494 114.756 293.526 114.496C293.377 114.458 293.302 114.421 293.302 114.421C291.44 113.937 289.839 113.825 288.163 113.788C282.241 113.676 277.884 116.134 276.357 117.772C275.65 118.516 275.128 119.298 274.756 120.043C273.564 121.904 273.415 123.952 273.341 124.176C273.452 124.101 274.867 122.537 276.469 122.091C276.841 122.724 277.698 123.58 279.337 124.399C281.012 125.255 282.875 125.739 282.875 125.739C282.875 125.739 285.184 126.409 287.53 127.191C289.392 127.861 291.328 130.207 291.328 130.728C291.328 131.733 290.323 132.701 289.317 135.754C288.237 139.031 287.865 142.158 288.2 145.807C288.2 145.807 288.2 145.807 288.2 145.844V145.881C288.424 148.041 288.908 150.423 289.615 153.141C290.211 155.338 290.397 157.534 290.323 159.619C289.802 165.018 286.45 169.076 282.428 171.347C281.646 171.757 280.901 172.166 280.081 172.464C280.193 172.464 281.534 172.501 281.646 172.501C285.035 172.464 289.802 171.831 293.898 167.624C295.313 166.172 296.431 164.646 297.138 163.194C297.436 162.598 298.628 160.476 299.336 156.231C299.447 155.673 299.708 153.849 299.708 153.849C299.708 153.849 299.894 155.152 299.931 156.306C299.969 157.907 300.043 159.88 299.075 162.896C299.41 162.821 301.011 161.667 302.874 159.135C303.581 158.205 304.214 157.274 304.773 156.269C307.454 152.062 309.391 147.11 309.316 137.69Z" fill="#413691"/>
<path d="M294.649 128.432C294.612 128.618 294.686 128.655 294.872 128.544C295.617 127.948 296.809 127.092 298.485 126.757C300.496 126.384 301.576 125.454 302.135 124.374C302.432 123.741 302.693 122.55 303.661 121.879C303.959 121.656 303.661 121.582 303.401 121.619C303.177 121.656 301.837 122.028 300.98 122.922C300.384 122.326 300.459 121.507 300.533 121.023C300.57 120.874 300.459 120.8 300.272 120.911C299.639 121.433 299.192 122.103 299.043 122.587C299.043 122.587 298.522 122.214 298.82 121.321C298.857 121.172 298.746 121.209 298.708 121.284C297.777 121.954 297.852 122.959 297.852 123.071C297.852 123.071 296.921 122.55 295.468 122.363C295.245 121.433 293.681 121.172 293.42 122.14C293.196 122.996 294.686 123.667 295.319 122.959C295.319 122.959 297.368 123.182 299.155 124.932C299.341 125.119 299.379 125.267 299.267 125.342C299.192 125.416 298.932 125.267 298.597 125.044C298.224 124.821 295.766 123.257 293.643 124.299C293.532 124.337 293.532 124.448 293.606 124.448C294.016 124.56 294.91 124.858 295.133 125.454C294.537 125.603 293.643 125.938 292.973 127.278C292.787 127.65 293.01 127.687 293.196 127.539C293.42 127.39 294.761 126.682 295.245 126.719C295.282 126.831 294.835 127.464 294.649 128.432ZM311.669 118.491C311.594 119.162 311.78 121.06 312.302 122.773C312.86 124.597 311.855 126.273 310.179 127.203C309.657 126.384 308.577 126.012 307.609 125.938C307.051 125.9 307.199 126.161 307.497 126.235C311.445 127.874 310.067 132.379 309.546 133.347C309.024 134.315 309.173 135.618 309.173 135.618C307.944 135.245 306.827 135.506 305.822 135.655C303.885 135.953 302.544 135.618 301.539 135.171C300.719 134.799 299.453 133.979 299.267 132.416C299.23 132.118 299.043 131.932 298.932 132.453C298.746 133.384 298.894 134.501 299.528 135.208C298.82 138.745 291.744 138.484 291.744 138.484C291.297 136.958 288.057 136.511 287.349 134.277C287.014 133.235 287.275 132.118 287.275 132.118C289.137 132.527 290.18 131.708 290.776 130.964C291.111 130.554 290.85 130.517 290.59 130.666C288.243 132.118 286.083 130.666 285.636 128.618C285.04 126.384 282.806 125.64 282.806 125.64C284.407 124.635 283.96 122.922 284.817 121.47C287.014 117.635 290.18 118.789 290.18 118.789C290.478 119.72 291.409 120.39 292.34 120.614C292.861 120.762 292.787 120.502 292.563 120.316C290.329 118.715 290.887 116.22 292.638 115.066C295.729 113.018 296.25 112.125 296.25 112.125C296.809 112.534 298.336 112.907 299.9 113.056C303.438 113.354 304.257 115.141 304.332 115.848C303.922 116.071 303.215 116.704 302.879 117.747C302.693 118.268 302.991 118.194 303.177 117.97C304.555 116.146 306.231 116.481 307.833 117.188C308.764 117.635 310.216 118.789 311.669 118.491Z" fill="#EF3138"/>
</g>
<defs>
<linearGradient id="paint0_linear_150_3638" x1="274.952" y1="118.269" x2="270.758" y2="153.977" gradientUnits="userSpaceOnUse">
<stop stop-color="#D2068A"/>
<stop offset="0.737" stop-color="#413691"/>
<stop offset="1" stop-color="#413691"/>
</linearGradient>
<clipPath id="clip0_150_3638">
<rect width="223" height="64" fill="white" transform="translate(89 112)"/>
</clipPath>
</defs>
</svg>
