<svg width="400" height="300" viewBox="0 0 400 300" fill="none" xmlns="http://www.w3.org/2000/svg">
<rect width="400" height="300" fill="#FAFAFA"/>
<path fill-rule="evenodd" clip-rule="evenodd" d="M170.06 149.535H165.793V158.82C165.793 160.504 166.768 160.873 168.272 160.873C168.843 160.873 169.451 160.792 170.06 160.792V165.928C168.801 165.97 167.541 166.133 166.283 166.133C160.392 166.133 158.888 164.408 158.888 158.614V149.535H155.394V144.845H158.888V138.147H165.793V144.845H170.06V149.535Z" fill="black"/>
<path fill-rule="evenodd" clip-rule="evenodd" d="M204.832 149.535H200.564V158.82C200.564 160.504 201.541 160.873 203.045 160.873C203.613 160.873 204.223 160.792 204.832 160.792V165.928C203.571 165.97 202.312 166.133 201.053 166.133C195.162 166.133 193.659 164.408 193.659 158.614V149.535H190.164V144.845H193.659V138.147H200.564V144.845H204.832V149.535Z" fill="black"/>
<path fill-rule="evenodd" clip-rule="evenodd" d="M133.266 157.057C133.266 163.292 130.105 166.448 123.634 166.448C116.351 166.448 114 162.201 114 156.003V154.795H120.742V157.368C120.742 159.2 121.745 160.214 123.517 160.214C125.175 160.214 126.099 159.278 126.099 156.587V138.038H133.266V157.057Z" fill="black"/>
<path fill-rule="evenodd" clip-rule="evenodd" d="M149.362 153.087C149.241 150.723 147.59 148.766 145.293 148.766C142.877 148.766 141.266 150.52 140.863 153.087H149.362ZM140.863 156.956C140.984 159.848 142.636 161.761 145.536 161.761C147.187 161.761 148.799 160.989 149.444 159.441H155.846C154.599 164.331 150.128 166.448 145.454 166.448C138.65 166.448 134.016 162.294 134.016 155.203C134.016 148.726 139.132 144.08 145.293 144.08C152.786 144.08 156.533 149.786 156.21 156.956H140.863Z" fill="black"/>
<path fill-rule="evenodd" clip-rule="evenodd" d="M176.792 158.891C176.792 159.946 177.233 160.72 177.917 161.247C178.559 161.736 179.486 161.979 180.449 161.979C181.774 161.979 183.663 161.41 183.663 159.744C183.663 158.118 181.533 157.794 180.327 157.509C176.027 156.411 170.645 156.291 170.645 150.6C170.645 145.522 176.071 144.138 180.169 144.138C184.747 144.138 189.529 145.481 189.769 150.967H183.463C183.463 150.072 183.139 149.504 182.578 149.135C182.018 148.772 181.253 148.608 180.409 148.608C179.283 148.608 177.475 148.731 177.475 150.194C177.475 152.184 182.054 152.551 185.189 153.243C189.409 154.095 190.492 157.182 190.492 158.93C190.492 164.58 185.189 166.447 180.489 166.447C175.546 166.447 170.485 164.782 170.284 158.891H176.792Z" fill="black"/>
<path fill-rule="evenodd" clip-rule="evenodd" d="M214.898 162.192C218.146 162.192 219.225 160.33 219.065 155.991C218.102 156.598 216.339 156.719 214.857 157.125C213.334 157.491 212.051 158.14 212.051 159.802C212.051 161.505 213.376 162.192 214.898 162.192ZM206.082 151.289C206.203 148.533 207.484 146.748 209.325 145.655C211.17 144.6 213.573 144.194 215.939 144.194C220.867 144.194 225.635 145.29 225.635 151.249V160.451C225.635 162.233 225.635 164.179 226.438 165.842H219.585C219.346 165.192 219.264 164.544 219.184 163.855C217.421 165.72 214.815 166.447 212.333 166.447C208.366 166.447 205.24 164.422 205.24 160.085C205.24 153.233 212.613 153.762 217.343 152.79C218.502 152.546 219.146 152.141 219.146 150.843C219.146 149.261 217.262 148.654 215.856 148.654C213.975 148.654 212.773 149.506 212.451 151.289H206.082Z" fill="black"/>
<path fill-rule="evenodd" clip-rule="evenodd" d="M236.13 145.461C235.087 146.151 234.277 147.159 233.786 148.473H233.707V144.773H227.076V165.864H233.907V155.42C233.907 152.781 235.671 150.422 239.047 150.422C239.83 150.422 240.532 150.543 241.262 150.729L236.13 145.461Z" fill="black"/>
<path fill-rule="evenodd" clip-rule="evenodd" d="M266.157 126L267.047 140.462H286.796L267.882 153.123L272.053 174L255.976 159.877L234.333 171.243L247.24 153.35L235.002 140.462H254.808L266.157 126Z" fill="#FF5114"/>
</svg>
