<svg width="400" height="300" viewBox="0 0 400 300" fill="none" xmlns="http://www.w3.org/2000/svg">
<rect width="400" height="300" fill="#FAFAFA"/>
<path fill-rule="evenodd" clip-rule="evenodd" d="M71.6395 159.82L71.4794 159.93C74.7387 165.94 80.9073 170 87.9453 170C98.4128 170 106.891 161.04 106.891 150C106.891 146.96 105.631 144.4 104.141 142.46C102.162 139.88 99.3427 138.64 96.5333 138.62C94.2139 138.6 91.8147 139.38 90.1248 140.91C88.1953 142.66 87.7654 144.91 87.2656 148.56C86.7158 152.56 83.4965 155.32 79.3576 155.32C73.9988 155.32 70.6798 152.02 70.8996 146.97C70.9197 146.62 70.9496 146.27 71.0096 145.93C72.0193 139.97 78.4279 133.82 88.0654 133.84C94.5338 133.84 99.3926 135.29 104.251 140.18L104.412 140.07C101.152 134.06 94.9938 130 87.9453 130C77.488 130 69 138.96 69 150C69 153.04 70.2597 155.6 71.7495 157.54C73.7189 160.12 76.5484 161.35 79.3576 161.38C81.677 161.41 84.0764 160.62 85.7659 159.09C87.6957 157.34 88.1255 155.09 88.6253 151.44C89.1752 147.44 92.4042 144.68 96.5333 144.68C101.902 144.68 105.221 147.98 105.001 153.03C104.981 153.38 104.951 153.73 104.891 154.07C103.862 160.03 97.4832 166.18 87.8256 166.16C81.357 166.16 76.4984 164.71 71.6395 159.82Z" fill="#051766"/>
<path fill-rule="evenodd" clip-rule="evenodd" d="M142.535 159.862C143.127 160.487 143.667 160.98 144.154 161.339H141.074C139.994 161.339 139.052 161.149 138.248 160.768C137.443 160.386 136.66 159.73 135.898 158.798L128.245 149.238L138.121 138.661H143.202L133.294 149.047L140.185 157.178C141.159 158.343 141.942 159.238 142.535 159.862ZM123.069 161.339H127.578V138.661H123.069V161.339Z" fill="#051766"/>
<path fill-rule="evenodd" clip-rule="evenodd" d="M159.969 157.21C161.09 156.575 161.969 155.643 162.604 154.415C163.24 153.187 163.557 151.715 163.557 150C163.557 148.285 163.24 146.813 162.604 145.585C161.969 144.357 161.09 143.425 159.969 142.79C158.846 142.155 157.565 141.837 156.126 141.837C154.665 141.837 153.374 142.155 152.252 142.79C151.13 143.425 150.251 144.357 149.616 145.585C148.981 146.813 148.664 148.285 148.664 150C148.664 151.715 148.981 153.187 149.616 154.415C150.251 155.643 151.13 156.575 152.252 157.21C153.374 157.845 154.665 158.163 156.126 158.163C157.565 158.163 158.846 157.845 159.969 157.21ZM149.934 160.243C148.092 159.259 146.647 157.877 145.599 156.098C144.552 154.32 144.027 152.287 144.027 150C144.027 147.713 144.552 145.68 145.599 143.902C146.647 142.123 148.092 140.741 149.934 139.756C151.776 138.772 153.84 138.28 156.126 138.28C158.391 138.28 160.445 138.772 162.287 139.756C164.129 140.741 165.573 142.128 166.621 143.917C167.669 145.707 168.193 147.734 168.193 150C168.193 152.266 167.669 154.294 166.621 156.082C165.573 157.872 164.129 159.259 162.287 160.243C160.445 161.228 158.391 161.72 156.126 161.72C153.84 161.72 151.776 161.228 149.934 160.243Z" fill="#051766"/>
<path fill-rule="evenodd" clip-rule="evenodd" d="M193.248 161.339H190.39C189.225 161.339 188.241 161.138 187.437 160.736C186.632 160.334 185.891 159.688 185.214 158.798L178.355 149.587H180.419C182.112 149.587 183.393 149.265 184.261 148.618C185.129 147.973 185.563 147.025 185.563 145.776C185.563 144.548 185.134 143.637 184.277 143.044C183.42 142.451 182.102 142.155 180.324 142.155H177.498V161.339H172.988V138.661H181.244C183.044 138.661 184.615 138.936 185.96 139.487C187.304 140.038 188.336 140.826 189.056 141.853C189.776 142.88 190.136 144.082 190.136 145.458C190.136 146.983 189.696 148.312 188.818 149.444C187.939 150.577 186.706 151.419 185.119 151.969L189.278 157.178C190.697 158.957 192.02 160.344 193.248 161.339Z" fill="#051766"/>
<path fill-rule="evenodd" clip-rule="evenodd" d="M210.967 157.782V161.339H196.042V138.661H210.65V142.218H200.551V147.872H209.031V151.366H200.551V157.782H210.967Z" fill="#051766"/>
<path fill-rule="evenodd" clip-rule="evenodd" d="M228.495 153.303L224.876 144.95L221.255 153.303H228.495ZM237.26 161.339H234.562C233.672 161.339 232.931 161.133 232.338 160.72C231.745 160.307 231.215 159.572 230.75 158.512L229.988 156.734H219.763L217.762 161.339H213.507L223.923 138.661H226.399L234.497 156.257C235.641 158.735 236.562 160.429 237.26 161.339Z" fill="#051766"/>
<path fill-rule="evenodd" clip-rule="evenodd" d="M260.505 138.661V161.339H258.029L244.183 146.411V161.339H240.308V138.661H242.786L256.63 153.589V138.661H260.505Z" fill="#051766"/>
<path fill-rule="evenodd" clip-rule="evenodd" d="M287.624 153.303L284.003 144.95L280.384 153.303H287.624ZM296.389 161.339H293.689C292.8 161.339 292.058 161.133 291.465 160.72C290.873 160.307 290.344 159.572 289.878 158.512L289.116 156.734H278.891L276.891 161.339H272.635L283.051 138.661H285.528L293.626 156.257C294.768 158.735 295.689 160.429 296.389 161.339Z" fill="#051766"/>
<path fill-rule="evenodd" clip-rule="evenodd" d="M299.437 161.339H303.946V138.661H299.437V161.339Z" fill="#051766"/>
<path fill-rule="evenodd" clip-rule="evenodd" d="M331 161.339H328.143C326.979 161.339 325.993 161.138 325.189 160.736C324.384 160.334 323.643 159.688 322.967 158.798L316.107 149.587H318.171C319.865 149.587 321.145 149.265 322.013 148.618C322.882 147.973 323.316 147.025 323.316 145.776C323.316 144.548 322.887 143.637 322.029 143.044C321.172 142.451 319.854 142.155 318.075 142.155H315.249V161.339H310.741V138.661H318.996C320.797 138.661 322.368 138.936 323.713 139.487C325.057 140.038 326.089 140.826 326.809 141.853C327.529 142.88 327.889 144.082 327.889 145.458C327.889 146.983 327.449 148.312 326.57 149.444C325.692 150.577 324.459 151.419 322.871 151.969L327.031 157.178C328.449 158.957 329.772 160.344 331 161.339Z" fill="#051766"/>
</svg>
