<svg width="400" height="300" viewBox="0 0 400 300" fill="none" xmlns="http://www.w3.org/2000/svg">
<rect width="400" height="300" fill="#FAFAFA"/>
<path d="M241.583 163.393H234.609V136.515H241.583V163.393ZM225.065 136.515L220.562 154.528L215.302 136.515H208.555L203.299 154.528L198.795 136.515H191.956L199.378 163.393H206.602L211.921 144.962L217.247 163.393H224.452L231.896 136.515H225.065ZM191.387 155.787C191.387 150.649 188.653 148.907 182.673 146.958C179.854 146.041 177.222 145.333 177.222 143.142C177.222 141.223 179.179 140.573 180.64 140.573C181.877 140.573 184.204 140.834 184.391 143.685H190.998C190.884 138.243 186.458 135.873 180.757 135.873C177.226 135.873 174.308 136.875 172.469 138.684C171.143 140.026 170.401 141.838 170.406 143.725C170.406 148.73 173.75 150.734 177.527 151.882C181.774 153.178 184.582 153.952 184.582 156.286C184.582 157.845 183.341 159.401 180.911 159.401C177.806 159.401 176.679 157.566 176.606 155.732H169.925C169.925 161.926 175.148 164.193 180.911 164.193C188.253 164.193 191.402 160.003 191.402 155.776M266.283 155.776C266.283 149.85 261.97 148.283 256.739 146.723C254.225 145.989 251.968 145.321 251.968 143.131C251.968 141.212 253.92 140.562 255.385 140.562C256.629 140.562 258.945 140.823 259.133 143.674H265.74C265.626 138.232 261.203 135.862 255.495 135.862C251.968 135.862 249.038 136.864 247.21 138.673C245.886 140.016 245.144 141.828 245.147 143.714C245.147 148.719 248.484 150.723 252.272 151.871C256.515 153.167 259.331 153.941 259.331 156.275C259.331 157.834 258.094 159.39 255.66 159.39C252.547 159.39 251.417 157.555 251.351 155.721H244.67C244.67 161.915 249.89 164.182 255.66 164.182C263.001 164.182 266.279 159.992 266.279 155.765M290.3 155.765C290.3 149.839 285.965 148.272 280.756 146.712C278.235 145.978 275.984 145.31 275.984 143.12C275.984 141.201 277.926 140.551 279.391 140.551C280.624 140.551 282.955 140.812 283.142 143.663H289.749C289.636 138.221 285.187 135.851 279.497 135.851C276.014 135.891 273.077 136.893 271.242 138.702C269.92 140.047 269.18 141.858 269.183 143.744C269.183 148.749 272.519 150.752 276.304 151.901C280.551 153.196 283.359 153.97 283.359 156.304C283.359 157.864 282.125 159.419 279.688 159.419C276.575 159.419 275.449 157.585 275.375 155.75H268.673C268.673 161.944 273.885 164.226 279.684 164.226C287.051 164.226 290.329 160.036 290.329 155.809" fill="#CC0000"/>
<path d="M154.978 171H109L142.7 129H165.33L154.978 171Z" fill="#CC0000"/>
<path d="M147.942 146.125V137.084H140.189V146.125H131.145V153.875H140.182V162.92H147.938V153.875H147.942H156.99V146.125H147.942Z" fill="#CC0000"/>
</svg>
