<svg width="400" height="300" viewBox="0 0 400 300" fill="none" xmlns="http://www.w3.org/2000/svg">
<rect width="400" height="300" fill="#FAFAFA"/>
<path fill-rule="evenodd" clip-rule="evenodd" d="M193.151 165.26H202.661V162.925L201.039 162.739C200.119 162.644 199.902 162.521 199.902 159.775V143.638L193.291 144.422V146.594L194.25 146.763C195.45 146.976 195.951 147.354 195.951 149.126V159.775C195.951 162.406 195.783 162.601 194.611 162.739L193.151 162.928V165.26Z" fill="#D81E05"/>
<path fill-rule="evenodd" clip-rule="evenodd" d="M197.482 134.854C195.947 134.854 195.029 135.745 195.029 137.235C195.029 138.765 195.947 139.678 197.482 139.678C199.061 139.678 199.964 138.788 199.964 137.235C199.964 135.744 199.035 134.854 197.482 134.854ZM101.226 152.23L105.329 140.974L109.349 152.23H101.226ZM119.006 162.394C117.924 162.161 117.637 161.901 116.789 159.446L107.464 134H105.145L95.3985 159.834C94.8305 161.477 94.5495 162.152 93.321 162.358L92 162.538V164.825H100.662V162.532L97.5945 162.201L100.207 155.029H110.35L112.9 162.166L109.88 162.534V164.825H120.191V162.534L119.007 162.395L119.006 162.394ZM176.813 164.825H186.989V162.613L184.504 162.31C183.629 162.219 183.398 162.085 183.398 159.437V149.115L183.423 149.075C184.126 148.161 185.382 147.523 186.471 147.523C187.857 147.523 189.162 147.828 190.261 148.409V143.718C189.633 143.496 188.972 143.381 188.306 143.379C186.482 143.379 184.826 144.288 183.235 146.159L183.069 146.355L182.656 143.818H176.656V146.419L177.725 146.602C178.88 146.803 179.431 147.213 179.431 149.005V159.437C179.431 162.147 179.218 162.259 178.088 162.388L176.814 162.534L176.813 164.825ZM173.429 161.268C172.376 161.803 171.323 162.072 170.298 162.072C169.018 162.072 168.165 161.537 168.165 158.924V146.644H173.174V143.814H168.165V138.875H165.736L164.438 143.818H161.248V146.644H164.196V159.477C164.196 163.367 165.757 165.26 168.972 165.26C171.533 165.26 173.531 164.168 174.495 163.517L174.671 163.4L173.658 161.154L173.429 161.268ZM141.668 162.547L140.465 162.352C139.284 162.153 138.759 161.758 138.759 159.951V143.818H132.02V146.419L133.083 146.602C134.241 146.803 134.79 147.213 134.79 149.005V160.01L134.735 160.046C133.008 161.109 131.182 161.718 129.728 161.718C127.425 161.718 126.304 160.326 126.304 157.464V143.818H119.593V146.422L120.628 146.602C121.785 146.803 122.338 147.213 122.338 149.005V157.858C122.338 161.234 123.388 165.26 128.4 165.26C130.744 165.26 132.788 164.389 135.03 162.433L135.188 162.294L135.639 164.815H141.668V162.547ZM216.105 158.332C216.105 160.615 214.509 162.15 212.135 162.15C210.715 162.15 209.025 161.632 209.025 159.162C209.025 156.43 210.78 155.469 215.98 155.347L216.105 155.345V158.332ZM222.615 162.507L221.374 162.35C220.22 162.216 220.034 162.079 220.034 160.502V150.586C220.034 145.604 218.198 143.379 213.57 143.379C210.512 143.379 207.764 144.484 206.213 145.517L206.049 145.625L206.906 147.989L207.143 147.891C209.415 146.948 210.805 146.645 212.867 146.645C215.392 146.645 216.105 147.745 216.105 150.703V152.638L215.99 152.642C209.072 152.955 204.783 154.208 204.783 159.477C204.783 162.114 205.855 165.26 210.964 165.26C214.094 165.26 215.808 163.597 216.402 162.881L216.541 162.714L216.607 162.923C217.112 164.474 218.272 165.26 220.061 165.26C221.023 165.26 221.799 165.101 222.615 164.736V162.507ZM152.011 152.125C149.874 151.53 148.131 150.899 148.131 149.003C148.131 147.202 149.477 146.25 152.023 146.25C154.34 146.25 154.691 146.871 154.87 147.564L155.497 150.016H158.31V144.771C156.938 143.914 154.63 143.379 152.259 143.379C147.508 143.379 144.439 145.882 144.439 149.754C144.439 153.74 147.329 154.752 150.09 155.491C150.28 155.541 151.099 155.756 151.315 155.814C153.491 156.4 155.252 157.056 155.252 159.2C155.252 161.834 153.009 162.389 151.129 162.389C148.224 162.389 147.822 161.695 147.623 160.858L147.075 158.002H144.246V163.725C145.547 164.434 147.746 165.259 150.931 165.259C154.865 165.259 159.063 163.448 159.063 158.369C159.063 154.356 155.974 153.227 153.225 152.459C153.012 152.398 152.202 152.178 152.011 152.125ZM237.846 164.825H247.122V162.53L245.537 162.302C244.397 162.166 244.195 161.939 244.195 159.387V150.784C244.195 145.871 242.102 143.379 237.975 143.379C234.886 143.379 232.785 144.877 231.299 146.178L231.129 146.327L230.824 143.819H224.948V146.449L225.831 146.602C226.988 146.803 227.538 147.213 227.538 149.005V159.388C227.538 161.974 227.37 162.163 226.192 162.302L224.726 162.485V164.825H233.966V162.53L232.664 162.34C231.583 162.178 231.505 161.986 231.505 159.388V148.628L231.566 148.594C233.314 147.516 235.118 146.92 236.649 146.92C239.09 146.92 240.227 148.25 240.227 151.099V159.623C240.227 161.985 240.139 162.215 239.189 162.339L237.846 162.529V164.824M260.635 160.028C267.78 154.236 272.882 149.274 274.402 146.583C275.048 145.545 275.254 144.553 274.896 143.744C274.23 142.24 271.877 141.783 268.974 142.348C281.955 139.415 295.169 137.637 308.462 137.033C308.52 137.031 308.576 137.05 308.621 137.087C308.665 137.123 308.695 137.174 308.705 137.231C308.715 137.288 308.705 137.346 308.675 137.396C308.645 137.445 308.599 137.482 308.544 137.5C291.72 142.97 276.405 151.834 263.393 163.298C263.377 163.312 263.358 163.322 263.337 163.327L254.868 164.813C254.75 164.834 254.687 164.679 254.782 164.605C256.758 163.112 258.709 161.586 260.635 160.028Z" fill="#D81E05"/>
<path fill-rule="evenodd" clip-rule="evenodd" d="M259.501 144.604C259.313 144.656 259.125 144.706 258.935 144.762C258.824 144.791 258.833 144.955 258.95 144.972L262.158 145.431L267.762 146.232C267.784 146.234 267.806 146.23 267.826 146.221C271.771 144.339 274.401 143.612 274.979 144.434C275.158 144.688 275.127 145.078 274.918 145.584C274.846 145.754 274.754 145.936 274.644 146.133C275.26 145.152 275.457 144.214 275.117 143.45C274.48 142.026 272.233 141.594 269.452 142.131C266.116 142.877 262.798 143.701 259.501 144.604" fill="#93282C"/>
</svg>
