<svg width="400" height="300" viewBox="0 0 400 300" fill="none" xmlns="http://www.w3.org/2000/svg">
<rect width="400" height="300" fill="#FAFAFA"/>
<path fill-rule="evenodd" clip-rule="evenodd" d="M92 170.534V174H246.659L249.103 170.534H92Z" fill="#FF9F00"/>
<path fill-rule="evenodd" clip-rule="evenodd" d="M269.889 167.14C269.889 167.14 280.615 151.159 281.583 149.583C282.762 147.649 282.817 144.575 281.753 142.927C281.212 142.064 265.22 116.833 265.22 116.833C263.783 114.106 264.14 112.246 265.1 110.914C266.677 108.593 269.457 104.479 269.457 104.479C269.457 104.479 288.873 134.866 289.681 136.217C291.766 139.683 291.185 143.083 289.471 145.986C288.031 148.444 275.453 167.14 275.453 167.14H269.889Z" fill="#FF9F00"/>
<path fill-rule="evenodd" clip-rule="evenodd" d="M266.435 168.867C266.435 168.867 278.846 150.739 279.77 149.239C280.854 147.406 280.736 144.822 279.77 143.261C279.254 142.437 262.018 115.374 262.018 115.374C262.018 115.374 258.959 119.978 257.996 121.399C257.028 122.815 256.46 124.577 258.113 127.412C258.113 127.412 270.455 146.848 270.975 147.672C271.984 149.255 271.937 152.169 270.813 154.002C269.891 155.484 257.162 174 257.162 174C257.162 174 290.213 174 293.896 174C297.631 174 299.678 172.555 301.478 169.965C303.043 167.765 309.085 159.004 310.013 157.63C310.926 156.256 312.768 155.337 313.59 155.337C314.418 155.337 316.461 155.337 316.461 155.337L310.86 146.839C310.86 146.839 303.669 146.839 301.925 146.839C300.219 146.839 298.155 148.35 297.069 149.953C296.224 151.215 290.111 160.347 289.011 161.817C288.384 162.645 287.852 162.829 287.352 162.831C287.08 162.834 286.293 162.829 286.191 162.829C286.555 162.097 296.821 147.2 298.842 143.919C301.276 139.884 301.832 134.55 298.931 129.434C297.866 127.576 276.535 94 276.535 94C276.535 94 273.695 98.0805 272.511 99.8281C271.552 101.254 271.256 103.118 272.638 105.845C272.638 105.845 290.546 134.257 291.401 135.561C293.48 138.801 293.222 143.126 291.401 146.08C289.914 148.506 277.542 167.14 277.542 167.14C277.542 167.14 286.545 167.14 287.344 167.14C290.891 167.14 291.765 165.826 292.745 164.737C293.725 163.645 299.056 155.579 299.662 154.729C300.275 153.89 301.832 151.509 303.877 151.509C305.038 151.509 310.313 151.509 310.313 151.509V151.694C308.941 151.97 307.591 152.794 306.609 154.139C305.631 155.461 299.158 165.019 298.382 166.132C297.402 167.537 296.28 168.867 293.465 168.867C291.794 168.867 266.435 168.867 266.435 168.867Z" fill="#FF9F00"/>
<path fill-rule="evenodd" clip-rule="evenodd" d="M184.039 162.267H187.511V146.482H184.039V162.267Z" fill="#00266B"/>
<path fill-rule="evenodd" clip-rule="evenodd" d="M181.588 162.267V159.38H173.494V146.482H170.005V162.267H181.588Z" fill="#00266B"/>
<path fill-rule="evenodd" clip-rule="evenodd" d="M128.143 157.686L135.519 157.69L137.567 162.267H141.36L133.613 146.482H130.028L122.282 162.267H126.1L128.143 157.686ZM131.822 149.206L134.331 154.909L129.327 154.919L131.822 149.206Z" fill="#00266B"/>
<path fill-rule="evenodd" clip-rule="evenodd" d="M155.419 149.367H160.872C162.148 149.367 162.957 150.594 162.957 151.694C162.957 152.794 162.148 153.983 160.872 153.983H156.605L163.517 162.267H167.632L162.73 156.381H162.737C164.846 155.7 166.199 153.774 166.199 151.597C166.199 148.875 164.093 146.482 161.022 146.482H152V162.267H155.419V149.367Z" fill="#00266B"/>
<path fill-rule="evenodd" clip-rule="evenodd" d="M143.692 162.267H147.165V146.482H143.692V162.267Z" fill="#00266B"/>
<path fill-rule="evenodd" clip-rule="evenodd" d="M231.954 155.868C233.498 155.868 236.401 155.868 236.401 155.868C237.424 155.868 238.111 156.455 238.111 157.587C238.111 158.718 237.424 159.307 236.401 159.307C236.401 159.307 228.346 159.307 226.834 159.307V162.271C226.834 162.271 234.528 162.271 236.068 162.271C239.651 162.271 241.415 159.911 241.415 157.518C241.415 155.123 239.651 152.786 236.068 152.786C234.528 152.786 231.592 152.794 231.592 152.794C230.602 152.794 229.932 152.221 229.932 151.125C229.932 150.021 230.602 149.45 231.592 149.45C231.592 149.45 239.717 149.45 241.18 149.45V146.487C241.18 146.487 233.498 146.487 231.954 146.487C228.407 146.487 226.661 148.575 226.661 151.188C226.661 153.801 228.407 155.868 231.954 155.868Z" fill="#00266B"/>
<path fill-rule="evenodd" clip-rule="evenodd" d="M223.32 162.267V159.38H214.055V155.339H222.128V152.47H214.055V149.367L223.32 149.372V146.482H210.567V162.267H223.32Z" fill="#00266B"/>
<path fill-rule="evenodd" clip-rule="evenodd" d="M195.241 149.367C195.241 149.367 200.326 149.367 200.994 149.367C202.405 149.367 203.306 150.65 203.306 151.841V162.267H206.772V151.399C206.772 148.712 204.854 146.482 201.776 146.482C199.625 146.482 197.224 146.482 197.224 146.482L195.241 149.112V146.482H191.77V162.267H195.241V149.367Z" fill="#00266B"/>
<path fill-rule="evenodd" clip-rule="evenodd" d="M97.2953 136.119C98.8392 136.119 101.742 136.119 101.742 136.119C102.763 136.119 103.452 136.707 103.452 137.838C103.452 138.969 102.763 139.556 101.742 139.556C101.742 139.556 93.6853 139.556 92.1748 139.556V142.522C92.1748 142.522 99.8691 142.522 101.409 142.522C104.992 142.522 106.756 140.162 106.756 137.767C106.756 135.372 104.992 133.037 101.409 133.037C99.8691 133.037 96.9354 133.043 96.9354 133.043C95.9408 133.043 95.2729 132.472 95.2729 131.374C95.2729 130.272 95.9408 129.702 96.9354 129.702C96.9354 129.702 105.058 129.702 106.521 129.702V126.736C106.521 126.736 98.8392 126.736 97.2953 126.736C93.7478 126.736 92 128.822 92 131.437C92 134.05 93.7478 136.119 97.2953 136.119Z" fill="#00266B"/>
<path fill-rule="evenodd" clip-rule="evenodd" d="M144.828 142.516C147.425 142.516 151.892 142.516 151.892 142.516V132.217H148.42V139.469C144.77 139.469 144.385 139.469 144.354 139.469C141.416 139.469 139.448 137.778 139.448 134.542C139.448 131.289 141.416 129.616 144.354 129.616C144.354 129.616 151.499 129.616 151.892 129.616V126.734C151.892 126.734 147.425 126.734 144.828 126.734C138.872 126.734 135.934 130.997 135.934 134.641C135.934 138.286 138.872 142.516 144.828 142.516Z" fill="#00266B"/>
<path fill-rule="evenodd" clip-rule="evenodd" d="M110.308 142.518H113.778V126.734H110.308V142.518Z" fill="#00266B"/>
<path fill-rule="evenodd" clip-rule="evenodd" d="M121.546 129.616C121.546 129.616 126.633 129.616 127.301 129.616C128.711 129.616 129.61 130.897 129.61 132.091V142.516H133.077V131.651C133.077 128.963 131.158 126.734 128.083 126.734C125.93 126.734 123.529 126.734 123.529 126.734L121.546 129.363V126.734H118.075V142.516H121.546V129.616Z" fill="#00266B"/>
<path fill-rule="evenodd" clip-rule="evenodd" d="M213.782 129.619H219.233C220.509 129.619 221.318 130.843 221.318 131.945C221.318 133.045 220.509 134.232 219.233 134.232H214.968L221.878 142.516H225.993L221.093 136.632H221.098C223.207 135.949 224.56 134.023 224.56 131.846C224.56 129.125 222.456 126.734 219.383 126.734H210.363V142.516H213.782V129.619Z" fill="#00266B"/>
<path fill-rule="evenodd" clip-rule="evenodd" d="M241.176 142.516V139.629L231.911 139.631V135.588H239.984V132.719H231.911V129.616L241.176 129.621V126.734H228.421V142.516H241.176Z" fill="#00266B"/>
<path fill-rule="evenodd" clip-rule="evenodd" d="M159.589 137.937L166.962 137.939L169.012 142.516H172.803L165.057 126.734H161.474L153.727 142.516H157.545L159.589 137.937ZM163.267 129.455L165.776 135.16L160.772 135.171L163.267 129.455Z" fill="#00266B"/>
<path fill-rule="evenodd" clip-rule="evenodd" d="M178.061 134.847L180.044 137.474C180.044 137.474 181.642 137.474 183.591 137.474C186.575 137.474 188.679 134.994 188.679 132.136C188.679 129.262 186.575 126.734 183.591 126.734H174.572V142.516H178.061V134.847ZM178.061 129.616H183.444C184.717 129.616 185.53 130.943 185.53 132.136C185.53 133.323 184.717 134.61 183.444 134.61C182.83 134.61 178.061 134.61 178.061 134.61V129.616Z" fill="#00266B"/>
<path fill-rule="evenodd" clip-rule="evenodd" d="M199.167 143.176C203.905 143.176 207.758 139.33 207.758 134.604C207.758 129.859 203.905 126.015 199.167 126.015C194.413 126.015 190.58 129.859 190.58 134.604C190.58 139.33 194.413 143.176 199.167 143.176ZM199.167 129.201C202.141 129.201 204.565 131.619 204.565 134.604C204.565 137.57 202.141 139.984 199.167 139.984C196.175 139.984 193.753 137.57 193.753 134.604C193.753 131.619 196.175 129.201 199.167 129.201Z" fill="#00266B"/>
</svg>
