<svg width="400" height="300" viewBox="0 0 400 300" fill="none" xmlns="http://www.w3.org/2000/svg">
<rect width="400" height="300" fill="#FAFAFA"/>
<path d="M73.524 126.128C85.594 127.384 95.026 137.584 95.026 149.988C95.026 163.236 84.288 174 71.038 174C57.788 174 47 163.262 47 150.013C47 136.763 57.738 126 70.987 126C71.833 126 72.679 126.051 73.499 126.128H73.524ZM74.754 172.334C87.081 170.258 95.41 158.598 93.334 146.246C91.617 135.995 83.237 128.51 73.37 127.46C71.3289 127.247 69.2683 127.316 67.246 127.665C64.852 128.06 62.5398 128.848 60.403 129.997C71.269 133.687 77.113 139.3 77.523 145.04C77.727 148.577 76.061 151.14 73.909 153.24L89.285 152.165C89.721 152.139 89.849 152.651 89.336 152.78L52.664 163.288C56.405 168.438 62.197 171.848 68.63 172.514C70.6711 172.727 72.7317 172.658 74.754 172.309V172.334ZM64.657 150.525C66.657 142.965 64.375 135.046 58.891 130.869C55.1262 133.256 52.1484 136.7 50.3298 140.771C48.5113 144.841 47.9325 149.357 48.666 153.754C49.1585 156.723 50.239 159.563 51.844 162.109C57.687 160.494 62.812 157.393 64.657 150.525Z" fill="white"/>
<path d="M93.334 146.245C95.41 158.572 87.081 170.258 74.754 172.334C72.679 172.693 70.628 172.744 68.63 172.539C62.197 171.873 56.405 168.439 52.664 163.313L89.336 152.806C89.875 152.652 89.721 152.14 89.286 152.191L73.909 153.267C76.087 151.166 77.727 148.603 77.522 145.067C77.112 139.326 71.269 133.714 60.403 130.023C62.5501 128.897 64.8584 128.111 67.246 127.691C69.2687 127.342 71.3296 127.273 73.371 127.486C83.237 128.511 91.591 135.994 93.334 146.271V146.245ZM48.666 153.755C49.1586 156.723 50.2391 159.564 51.844 162.109C57.687 160.494 62.812 157.393 64.657 150.525C66.657 142.965 64.375 135.046 58.891 130.869C55.1262 133.256 52.1484 136.7 50.3298 140.771C48.5113 144.841 47.9326 149.358 48.666 153.755Z" fill="#C90019"/>
<path fill-rule="evenodd" clip-rule="evenodd" d="M190.923 155.01V158.623C192.384 159.238 194.28 159.674 196.689 159.674C200.584 159.674 203.506 157.675 203.506 154.01C203.506 150.4 201.395 149.461 199.231 148.499C198.86 148.334 198.488 148.168 198.124 147.988L198.048 147.959C196.174 147.26 195.126 146.869 195.126 145.605C195.126 144.4 196.023 143.708 197.919 143.708C199.662 143.708 201.43 144.246 202.404 144.708V141.197C200.866 140.645 199.246 140.359 197.612 140.351C193.742 140.351 190.948 142.068 190.948 145.733C190.948 148.885 192.819 150.243 194.792 151.115C195.343 151.349 195.842 151.545 196.287 151.72C198.183 152.466 199.124 152.836 199.124 154.164C199.124 155.574 198.047 156.291 195.92 156.291C194.075 156.291 192.307 155.651 190.923 155.01ZM125.727 140.607V152.37C125.727 153.677 125.907 154.805 126.291 155.702C126.675 156.599 127.213 157.368 127.905 157.957C128.648 158.564 129.513 159.001 130.442 159.239C131.416 159.52 132.544 159.649 133.748 159.649C134.952 159.649 136.055 159.52 137.028 159.239C137.977 158.982 138.797 158.547 139.438 157.957C140.078 157.367 140.591 156.625 140.95 155.702C141.308 154.779 141.488 153.652 141.488 152.345V140.582H137.413V152.217C137.413 153.395 137.131 154.369 136.542 155.061C135.952 155.779 135.004 156.138 133.748 156.138C132.493 156.138 131.57 155.778 130.955 155.061C130.365 154.369 130.058 153.395 130.058 152.217V140.582H125.701L125.727 140.607ZM219.344 159.417V151.524H211.425V159.418H207.094V140.608H211.425V148.116H219.344V140.607H223.726V159.417H219.344ZM113.195 144.119V159.419H117.552V144.119H120.858C121.858 144.119 122.678 143.299 122.678 142.299V140.609H108.095V144.119H113.195ZM187.361 140.609H183.004V159.419H187.361V140.609ZM168.576 150.684L168.704 150.834L174.265 157.984C174.608 158.433 175.05 158.796 175.557 159.045C176.064 159.294 176.622 159.422 177.187 159.419H180.646L172.702 149.296L172.574 149.142L172.702 148.989L179.237 140.583H174.726L168.73 148.681L168.576 148.886V140.583H164.219V159.393H168.576V150.684ZM158.53 159.419C157.892 159.415 157.264 159.249 156.708 158.935C156.152 158.621 155.685 158.17 155.352 157.625L151.969 152.038H149.817V159.393H145.486V140.607H153.225C155.224 140.607 156.762 141.12 157.864 142.145C158.94 143.17 159.478 144.554 159.478 146.296C159.478 147.168 159.248 148.065 158.786 148.962C158.325 149.832 157.53 150.525 156.377 151.063L156.121 151.191L161.4 159.418L158.53 159.419ZM149.868 149.219H152.379C153.302 149.219 153.994 148.963 154.455 148.476C154.916 147.989 155.147 147.348 155.147 146.605C155.147 145.862 154.916 145.195 154.481 144.683C154.045 144.196 153.328 143.94 152.405 143.94H149.868V149.219ZM325.108 159.419V140.609H336.871V142.325C336.871 143.325 336.051 144.119 335.077 144.119H329.464V148.169H335.769V151.295H329.464V155.882H336.896V159.392H325.133L325.108 159.419ZM282.156 140.609V159.393H293.432V156.01H286.487V142.837C286.487 141.607 285.488 140.607 284.257 140.607L282.156 140.609ZM259.63 140.634H255.273V159.419H259.63V140.634ZM273.443 157.624C273.776 158.169 274.243 158.62 274.799 158.934C275.355 159.248 275.983 159.415 276.621 159.419H279.491L274.212 151.192L274.468 151.064C275.621 150.526 276.416 149.834 276.877 148.963C277.339 148.066 277.569 147.169 277.569 146.297C277.569 144.555 277.031 143.171 275.955 142.146C274.853 141.121 273.315 140.608 271.316 140.608H263.577V159.393H267.908V152.038H270.06L273.443 157.624ZM270.47 149.219H267.959V143.939H270.496C271.419 143.939 272.136 144.196 272.572 144.683C273.007 145.195 273.238 145.862 273.238 146.605C273.238 147.348 273.007 147.989 272.546 148.475C272.085 148.963 271.393 149.219 270.47 149.219ZM245.714 140.609H240.717L233.618 159.419H236.745C237.13 159.417 237.505 159.295 237.818 159.07C238.13 158.845 238.365 158.528 238.488 158.163L239.205 155.959H246.842L247.97 159.419H252.685L245.714 140.609ZM240.358 152.55L242.075 147.81C242.46 146.733 242.844 145.605 243.075 144.785H243.126C243.357 145.657 243.716 146.707 244.1 147.809L245.74 152.55H240.358ZM340.382 155.01V158.624C341.842 159.239 343.739 159.675 346.148 159.675C350.043 159.675 352.965 157.676 352.965 154.011C352.965 150.401 350.854 149.462 348.69 148.5C348.319 148.335 347.947 148.169 347.583 147.989L347.507 147.96C345.632 147.261 344.585 146.87 344.585 145.606C344.585 144.401 345.482 143.709 347.378 143.709C349.121 143.709 350.889 144.247 351.863 144.709V141.198C350.325 140.646 348.704 140.36 347.07 140.352C343.201 140.352 340.407 142.069 340.407 145.734C340.407 148.886 342.278 150.244 344.251 151.116C344.802 151.35 345.3 151.546 345.745 151.721H345.746C347.641 152.467 348.582 152.837 348.582 154.165C348.582 155.575 347.506 156.292 345.379 156.292C343.534 156.292 341.766 155.651 340.382 155.01ZM304.58 140.608H307.246C308.527 140.608 309.706 141.274 310.398 142.351L315.651 150.782C316.241 151.73 316.933 152.96 317.343 153.832H317.445C317.386 152.876 317.352 151.919 317.343 150.962V140.607H321.161V159.417H316.395L310.013 149.244C309.424 148.321 308.809 147.194 308.348 146.349V146.348H308.296C308.306 146.652 308.322 146.975 308.34 147.307C308.368 147.869 308.399 148.459 308.399 149.039V159.418H304.58V140.608ZM296.251 140.634H300.608V159.419H296.251V140.634Z" fill="#010101"/>
</svg>
