<svg width="400" height="300" viewBox="0 0 400 300" fill="none" xmlns="http://www.w3.org/2000/svg">
<rect width="400" height="300" fill="#FAFAFA"/>
<path d="M270.416 150C270.416 188.88 238.88 220.416 200 220.416C161.12 220.416 129.584 188.88 129.584 150C129.584 111.12 161.12 79.584 200 79.584C238.88 79.584 270.416 111.12 270.416 150Z" fill="white"/>
<path d="M200.144 195.36C225.2 195.36 245.648 175.056 245.648 149.856C245.648 124.8 225.344 104.352 200.144 104.352C175.088 104.352 154.64 124.656 154.64 149.856C154.64 175.056 174.944 195.36 200.144 195.36Z" fill="#FFE900"/>
<path d="M243.344 147.552L247.664 146.4L251.12 160.512L257.744 158.928L257.6 155.04L255.728 155.472L253.136 145.104L257.744 143.952L256.592 138.768L251.984 139.92L250.544 134.16L245.504 137.616L246.368 141.216L242.048 142.368L243.2 147.552" fill="#1D1D1B"/>
<path d="M242.624 142.8C240.896 141.072 238.448 139.92 235.28 139.92C228.368 139.92 225.056 145.392 225.056 150C225.056 154.608 228.368 160.08 235.28 160.08C242.192 160.08 245.504 154.608 245.504 150C245.504 147.984 244.928 145.968 243.776 144.24L242.624 142.8ZM239.744 150C239.744 152.736 237.728 154.752 235.136 154.752C232.688 154.752 230.528 152.736 230.528 150C230.528 147.264 232.544 145.248 235.136 145.248C237.728 145.248 239.744 147.264 239.744 150ZM224.912 150C224.912 145.392 221.6 139.92 214.688 139.92C207.776 139.92 204.464 145.392 204.464 150C204.464 154.608 207.776 160.08 214.688 160.08C221.6 160.08 224.912 154.608 224.912 150ZM219.296 150C219.296 152.736 217.28 154.752 214.688 154.752C212.24 154.752 210.08 152.736 210.08 150C210.08 147.264 212.096 145.248 214.688 145.248C217.136 145.248 219.296 147.264 219.296 150ZM198.848 147.84H204.608C203.6 143.232 199.568 139.92 194.528 139.92C188.912 139.92 184.592 144.384 184.592 150C184.592 155.616 189.056 160.08 194.672 160.08C199.856 160.08 203.6 156.624 204.608 152.304H198.848C198.272 153.456 197.12 154.896 194.816 154.896C192.08 154.896 190.352 152.88 190.352 150.144C190.352 148.848 190.784 147.552 191.648 146.688C192.512 145.824 193.664 145.248 194.96 145.392C196.976 145.104 198.128 146.544 198.848 147.84ZM178.544 145.824H184.16C183.728 140.784 179.408 139.92 176.816 139.92C172.928 139.92 169.472 142.368 169.472 146.4C169.472 148.992 171.488 150.576 173.936 151.296C177.536 152.736 178.976 152.88 178.976 154.176C178.976 155.04 177.968 155.616 176.96 155.616C176.672 155.616 175.088 155.616 174.8 153.888H169.184C169.76 158.928 174.08 160.224 176.96 160.224C181.136 160.224 184.736 157.776 184.736 153.6C184.736 149.568 181.28 148.56 178.112 147.696C176.672 147.264 175.232 146.688 175.232 145.824C175.232 145.248 175.664 144.528 176.816 144.528C178.4 144.384 178.544 145.392 178.544 145.824Z" fill="#1D1D1B"/>
</svg>
