<svg width="158" height="32" viewBox="0 0 158 32" fill="none" xmlns="http://www.w3.org/2000/svg">
<path d="M45.133 4.60541V13.0811H36.405V4.60541H32.2883V25.8854H36.405V16.7135H45.133V25.8854H49.2497V4.60541H45.133Z" fill="black"/>
<path d="M63.285 11.2649V12.6598C62.884 12.2335 62.4097 11.8778 61.8623 11.5978C61.035 11.1741 60.0966 10.9622 59.0472 10.9622C57.7153 10.9622 56.5146 11.2951 55.445 11.9611C54.3755 12.627 53.538 13.5351 52.9326 14.6854C52.3272 15.8357 52.0245 17.1373 52.0245 18.5903C52.0245 20.0432 52.3272 21.3146 52.9326 22.4649C53.538 23.6151 54.3755 24.5232 55.445 25.1892C56.5146 25.8551 57.7153 26.1881 59.0472 26.1881C60.0966 26.1881 61.035 25.9712 61.8623 25.5373C62.4097 25.2497 62.884 24.8915 63.285 24.4677V25.8854H67.2202V11.2649H63.285ZM62.4677 21.4205C61.7816 22.1571 60.8836 22.5254 59.7737 22.5254C59.0472 22.5254 58.4065 22.3589 57.8515 22.0259C57.2966 21.693 56.8627 21.2288 56.5499 20.6335C56.2371 20.0382 56.0807 19.347 56.0807 18.56C56.0807 17.773 56.2371 17.1121 56.5499 16.5168C56.8627 15.9214 57.2966 15.4573 57.8515 15.1243C58.4065 14.7914 59.0472 14.6249 59.7737 14.6249C60.5002 14.6249 61.1712 14.7914 61.7261 15.1243C62.2811 15.4573 62.715 15.9214 63.0277 16.5168C63.3405 17.1121 63.4969 17.7932 63.4969 18.56C63.4969 19.7305 63.1539 20.684 62.4677 21.4205Z" fill="black"/>
<path d="M70.7315 25.8854V4H74.6969V25.8854H70.7315Z" fill="black"/>
<path d="M121.858 11.2649L118.39 20.5452L115.047 11.2649H110.749L116.291 24.6292L112.807 32H117.015L119.679 26.0065L126.187 11.2649H121.858Z" fill="black"/>
<path d="M140.898 13.853C140.414 12.9953 139.748 12.2991 138.9 11.7643C138.053 11.2295 137.094 10.9622 136.024 10.9622C134.955 10.9622 133.921 11.2043 133.043 11.6886C132.566 11.951 132.15 12.2713 131.787 12.6422V11.2649H127.821V25.8854H131.787V17.5005C131.787 16.9153 131.913 16.4007 132.165 15.9568C132.417 15.5128 132.765 15.1697 133.209 14.9276C133.653 14.6854 134.158 14.5643 134.723 14.5643C135.591 14.5643 136.297 14.8368 136.842 15.3816C137.387 15.9265 137.659 16.6328 137.659 17.5005V25.8854H141.624V16.6227C141.624 15.6339 141.382 14.7106 140.898 13.853Z" fill="black"/>
<path d="M151.735 26.1881C150.241 26.1881 148.899 25.8551 147.709 25.1892C146.518 24.5232 145.58 23.6151 144.894 22.4649C144.208 21.3146 143.865 20.0231 143.865 18.5903C143.865 17.1575 144.208 15.8357 144.894 14.6854C145.58 13.5351 146.523 12.622 147.724 11.9459C148.925 11.2699 150.262 10.9319 151.735 10.9319C152.885 10.9319 153.945 11.1438 154.913 11.5676C155.882 11.9914 156.719 12.5968 157.426 13.3838L154.883 15.9568C154.499 15.533 154.04 15.2101 153.506 14.9881C152.971 14.7661 152.381 14.6551 151.735 14.6551C151.008 14.6551 150.357 14.8216 149.782 15.1546C149.207 15.4876 148.753 15.9416 148.42 16.5168C148.087 17.0919 147.921 17.773 147.921 18.56C147.921 19.347 148.087 20.0079 148.42 20.6032C148.753 21.1986 149.207 21.6627 149.782 21.9957C150.357 22.3286 151.008 22.4951 151.735 22.4951C152.401 22.4951 153.001 22.3791 153.536 22.147C154.071 21.915 154.53 21.5769 154.913 21.133L157.486 23.7059C156.739 24.5132 155.882 25.1286 154.913 25.5524C153.945 25.9762 152.885 26.1881 151.735 26.1881Z" fill="black"/>
<path d="M84.8677 10.9319C80.6551 10.9319 77.2396 14.3474 77.2396 18.56C77.2396 22.7726 80.6551 26.1881 84.8677 26.1881C89.0803 26.1881 92.4958 22.7726 92.4958 18.56C92.4958 14.3474 89.0803 10.9319 84.8677 10.9319ZM84.8677 22.3286C82.7867 22.3286 81.0991 20.6411 81.0991 18.56C81.0991 16.4789 82.7867 14.7914 84.8677 14.7914C86.9488 14.7914 88.6364 16.4789 88.6364 18.56C88.6364 20.6411 86.9488 22.3286 84.8677 22.3286Z" fill="black"/>
<path d="M102.662 26.1881C101.764 26.1881 100.903 26.062 100.084 25.8072C99.2638 25.5524 98.5121 25.1715 97.8285 24.6645C97.1449 24.1575 96.5495 23.5369 96.04 22.8029C95.533 22.0714 95.1319 21.2162 94.8393 20.24L98.56 18.7744C98.8324 19.8288 99.3117 20.7041 99.9953 21.3978C100.679 22.0915 101.577 22.4371 102.692 22.4371C103.103 22.4371 103.497 22.3841 103.877 22.2757C104.258 22.1672 104.599 22.0108 104.904 21.8065C105.207 21.6022 105.446 21.3423 105.623 21.0295C105.8 20.7168 105.888 20.356 105.888 19.9449C105.888 19.5337 105.82 19.2032 105.684 18.8905C105.547 18.5777 105.318 18.285 104.995 18.0126C104.672 17.7402 104.253 17.4753 103.736 17.2205C103.219 16.9658 102.578 16.7034 101.817 16.4285L100.528 15.9593C99.96 15.765 99.3899 15.5002 98.8122 15.1672C98.2371 14.8342 97.7124 14.4357 97.2458 13.9665C96.7791 13.4973 96.3906 12.9449 96.0879 12.3117C95.7852 11.676 95.6339 10.9596 95.6339 10.1575C95.6339 9.35532 95.7953 8.57081 96.1182 7.85694C96.4411 7.14306 96.9002 6.52 97.4955 5.9827C98.0908 5.44541 98.8047 5.02667 99.6346 4.72396C100.464 4.42126 101.388 4.26991 102.404 4.26991C103.421 4.26991 104.372 4.41117 105.144 4.69369C105.916 4.97622 106.569 5.33946 107.106 5.77838C107.644 6.2173 108.077 6.70162 108.41 7.22883C108.743 7.75604 108.986 8.2555 109.142 8.72216L105.656 10.1877C105.459 9.60252 105.103 9.07532 104.586 8.60613C104.069 8.13694 103.36 7.90234 102.462 7.90234C101.564 7.90234 100.891 8.10162 100.323 8.5027C99.7557 8.90378 99.4731 9.42595 99.4731 10.0692C99.4731 10.7124 99.7456 11.227 100.293 11.6659C100.84 12.1049 101.708 12.5312 102.901 12.9398L104.221 13.3787C105.061 13.6714 105.827 14.0094 106.521 14.3903C107.215 14.7712 107.81 15.2252 108.307 15.7524C108.804 16.2796 109.187 16.88 109.45 17.5535C109.712 18.227 109.846 19.004 109.846 19.8818C109.846 20.9766 109.626 21.9175 109.187 22.7095C108.748 23.5016 108.186 24.1499 107.502 24.6569C106.819 25.1665 106.047 25.5449 105.187 25.7996C104.326 26.0519 103.486 26.1805 102.667 26.1805L102.662 26.1881Z" fill="black"/>
<path d="M1.73047 9.86719C9.95627 11.7717 16.444 18.2596 18.3486 26.4854C16.5249 27.5826 14.3912 28.2158 12.1084 28.2158C5.42129 28.2158 0.000156482 22.7955 0 16.1084C0 13.8255 0.633171 11.691 1.73047 9.86719ZM12.1084 4C18.7954 4.00016 24.2157 9.42085 24.2158 16.1104C24.2158 19.7327 22.6216 22.9794 20.1016 25.1992C19.5062 22.982 18.6033 20.8907 17.4404 18.9736C18.6714 16.6807 18.326 13.7619 16.3887 11.8271C14.4516 9.89281 11.5359 9.54155 9.24316 10.7744C7.32657 9.61209 5.23356 8.7119 3.01953 8.11426C5.23683 5.59175 8.48607 4 12.1084 4Z" fill="url(#paint0_linear_138_10)"/>
<defs>
<linearGradient id="paint0_linear_138_10" x1="24.2158" y1="4" x2="0" y2="28.2158" gradientUnits="userSpaceOnUse">
<stop stop-color="#BB18EC"/>
<stop offset="1" stop-color="#083C8F"/>
</linearGradient>
</defs>
</svg>
