<svg width="78" height="16" viewBox="0 0 78 16" fill="none" xmlns="http://www.w3.org/2000/svg">
<path fill-rule="evenodd" clip-rule="evenodd" d="M47.3199 0.850921C47.9432 0.850922 48.5025 0.947528 48.9929 1.14085C49.4832 1.33416 49.9095 1.58271 50.2761 1.89106C50.6381 2.19943 50.9359 2.52624 51.1604 2.87142L49.3684 4.55166C49.0888 4.16501 48.7864 3.86101 48.4701 3.64007C48.1539 3.41917 47.7828 3.3088 47.3566 3.30879C46.9029 3.30879 46.5269 3.44233 46.2198 3.70929C45.9129 3.97623 45.7615 4.30771 45.7615 4.70808C45.7615 5.08085 45.8397 5.39835 46 5.65608L46.0045 5.66057C46.1603 5.91833 46.3802 6.21784 46.6598 6.54924L54.2862 15.1288H51.2016L50.2027 14.0289C50.0331 14.167 49.8498 14.3006 49.6481 14.4294C49.222 14.6964 48.7452 14.9124 48.2137 15.0781C47.6821 15.2438 47.1182 15.3266 46.5224 15.3266C45.5691 15.3266 44.7349 15.138 44.0245 14.7652C43.3142 14.3924 42.7598 13.8859 42.3703 13.2369C41.9808 12.5925 41.7836 11.8837 41.7836 11.0276C41.7836 10.1715 42.0127 9.40736 42.471 8.72616C42.8651 8.14626 43.4242 7.66291 44.1391 7.26709C43.9054 6.95419 43.7176 6.65045 43.5756 6.35595C43.3373 5.85887 43.218 5.30641 43.218 4.70808C43.218 4.00387 43.3924 3.35484 43.7452 2.77029C44.0981 2.18572 44.5793 1.71621 45.198 1.37099C45.8167 1.02578 46.5225 0.850921 47.3199 0.850921ZM45.4956 8.84573C45.1336 9.04365 44.8495 9.29263 44.6524 9.5964C44.4188 9.95079 44.3042 10.388 44.3042 10.908C44.3042 11.3085 44.3961 11.6584 44.584 11.9576C44.7718 12.2567 45.0375 12.4914 45.3811 12.657C45.7294 12.8227 46.1237 12.9056 46.5774 12.9056C47.1503 12.9056 47.6269 12.7858 48.0118 12.5465H48.0074C48.1907 12.436 48.3557 12.3026 48.5024 12.1599L45.4956 8.84573Z" fill="black"/>
<path fill-rule="evenodd" clip-rule="evenodd" d="M18.103 5.26951C18.7905 5.26951 19.4092 5.40767 19.9546 5.68844C20.3166 5.87256 20.6237 6.11194 20.8895 6.3973V5.46729H23.4791V15.1244H20.8895V14.1809C20.6237 14.4616 20.3166 14.7055 19.9546 14.8942C19.4092 15.1796 18.795 15.3221 18.103 15.3221C17.2277 15.3221 16.4394 15.1059 15.7336 14.6641C15.0278 14.2222 14.4777 13.6237 14.079 12.8643C13.6803 12.1049 13.4833 11.2626 13.4833 10.3053C13.4833 9.34786 13.6803 8.48685 14.079 7.72738C14.4777 6.9679 15.0278 6.36945 15.7336 5.92758C16.4348 5.49034 17.2277 5.26951 18.103 5.26951ZM18.5797 7.68602C18.1031 7.68602 17.6815 7.79642 17.3149 8.0173C16.9483 8.23822 16.664 8.54669 16.4578 8.93788C16.2515 9.32912 16.1507 9.7667 16.1507 10.2868C16.1508 10.8069 16.2516 11.2671 16.4578 11.6583C16.664 12.0541 16.9482 12.3579 17.3149 12.5788C17.6815 12.7997 18.1031 12.9101 18.5797 12.9101C19.313 12.9101 19.8996 12.6662 20.3534 12.1783H20.3489C20.8025 11.6905 21.0269 11.06 21.0269 10.2868C21.0269 9.78051 20.9262 9.32912 20.7199 8.93788C20.5137 8.54208 20.2294 8.23822 19.8628 8.0173C19.5008 7.79641 19.0563 7.68602 18.5797 7.68602Z" fill="black"/>
<path fill-rule="evenodd" clip-rule="evenodd" d="M35.216 5.24209C37.9887 5.24209 40.2345 7.49722 40.2345 10.2819C40.2345 13.0666 37.9888 15.3221 35.216 15.3221C32.4433 15.3221 30.1975 13.0666 30.1975 10.2819C30.1976 7.49724 32.4434 5.24213 35.216 5.24209ZM35.216 7.7966C33.8457 7.79664 32.7365 8.91059 32.7365 10.2868C32.7366 11.663 33.8458 12.7766 35.216 12.7766C36.5863 12.7766 37.6954 11.663 37.6955 10.2868C37.6955 8.91057 36.5864 7.7966 35.216 7.7966Z" fill="black"/>
<path d="M60.8766 0.836987C61.9902 0.836991 62.9755 1.0163 63.8233 1.38448C64.6712 1.7527 65.4229 2.25457 66.0737 2.89435L64.2405 4.7355C63.8555 4.31206 63.388 3.97605 62.8289 3.73671C62.2697 3.49739 61.619 3.37757 60.8766 3.37756C60.2258 3.37756 59.6301 3.48839 59.0939 3.70929C58.5577 3.93023 58.09 4.25236 57.6913 4.67122C57.2926 5.09007 56.9855 5.59173 56.7747 6.17166C56.5593 6.75162 56.4538 7.37779 56.4538 8.08203C56.4538 8.78621 56.5639 9.42608 56.7747 10.0014C56.9855 10.5767 57.2926 11.0736 57.6913 11.4924C58.09 11.9159 58.5577 12.2382 59.0939 12.4638C59.6301 12.6893 60.2259 12.8045 60.8766 12.8045C61.6603 12.8045 62.3341 12.6847 62.8978 12.4453H62.8933C63.4569 12.2014 63.9334 11.8654 64.3183 11.4236L66.1516 13.2648C65.5008 13.9183 64.7445 14.4246 63.8829 14.7836C63.0213 15.1426 62.0177 15.3221 60.8766 15.3221C59.8546 15.3221 58.9059 15.1428 58.0305 14.7746C57.1552 14.4064 56.385 13.8906 55.7296 13.2324C55.0743 12.5696 54.5702 11.801 54.2173 10.922C53.8644 10.0429 53.6905 9.0946 53.6905 8.08203C53.6905 7.06947 53.8645 6.12118 54.2173 5.24209C54.5702 4.35842 55.0743 3.59422 55.7296 2.94065C56.3895 2.28707 57.1504 1.77124 58.0211 1.39841C58.8873 1.02558 59.8408 0.836987 60.8766 0.836987Z" fill="black"/>
<path fill-rule="evenodd" clip-rule="evenodd" d="M72.0361 5.24209C74.8088 5.24209 77.0545 7.49722 77.0546 10.2819C77.0546 13.0666 74.8089 15.3221 72.0361 15.3221C69.2634 15.3221 67.018 13.0666 67.018 10.2819C67.0181 7.49726 69.2635 5.24216 72.0361 5.24209ZM72.0361 7.7966C70.6658 7.79667 69.5566 8.91061 69.5566 10.2868C69.5567 11.663 70.6659 12.7765 72.0361 12.7766C73.4064 12.7766 74.5155 11.663 74.5156 10.2868C74.5156 8.91057 73.4064 7.7966 72.0361 7.7966Z" fill="black"/>
<path d="M2.70865 6.6688H8.78118V1.06713H11.4898V15.1244H8.78118V9.06689H2.70865V15.1244H0V1.06713H2.70865V6.6688Z" fill="black"/>
<path d="M28.3965 15.1244H25.7886V0.666626H28.3965V15.1244Z" fill="black"/>
</svg>
