<svg width="400" height="300" viewBox="0 0 400 300" fill="none" xmlns="http://www.w3.org/2000/svg">
<rect width="400" height="300" fill="#FAFAFA"/>
<path d="M216.842 152.715L208.985 133.866H204.774L214.819 158.139L214.337 159.381C213.619 161.24 211.938 164.307 208.815 163.94L208.233 163.873V167.934L208.717 167.974C208.922 167.992 209.126 168 209.33 168C213.06 168 216.404 165.131 218.157 160.362L227.808 133.866H223.613L216.842 152.715Z" fill="#272727"/>
<path d="M205.434 124.884H199.981L186.879 139.171V124.884H182.814V159.018H186.879V143.86L200.414 159.016H205.848L190.319 141.483L205.434 124.884Z" fill="#272727"/>
<path d="M246.375 137.771L247.996 133.585H240.271V126.68L235.933 127.974V133.585H231.899L230.277 137.771H235.933V151.821C235.933 154.401 236.613 156.239 238.01 157.44C239.236 158.495 241.014 159.017 243.401 159.017C244.387 159.017 245.475 158.928 246.672 158.751L247.146 158.681V154.827L245.76 154.887C243.411 154.992 241.715 155.069 240.949 154.338C240.486 153.897 240.271 153.097 240.271 151.821V137.771H246.375Z" fill="#272727"/>
<path d="M253.071 144.44C253.867 140.428 257.076 137.87 261.401 137.87C265.398 137.87 268.376 140.428 269.129 144.44H253.071ZM261.399 133.866C254.037 133.866 248.694 139.155 248.694 146.442C248.694 153.729 254.135 159.017 261.632 159.017C266.241 159.017 270.148 156.996 272.353 153.47L272.634 153.02L268.961 150.893L268.682 151.385C267.368 153.694 264.816 155.017 261.68 155.017C257.213 155.017 253.898 152.458 253.075 148.445H272.849L273.356 148.44L273.405 147.961C273.452 147.498 273.5 147.019 273.5 146.536C273.5 138.308 267.265 133.867 261.399 133.866Z" fill="#272727"/>
<path d="M127 142.325C127 154.655 136.995 164.651 149.325 164.651C161.656 164.651 171.651 154.655 171.651 142.325C171.651 129.995 161.656 120 149.325 120C136.995 120 127 129.995 127 142.325Z" fill="url(#paint0_linear_304_37)"/>
<path fill-rule="evenodd" clip-rule="evenodd" d="M151.421 155.895L160.197 133.372L136.302 137.024C140.13 138.515 143.63 141.002 146.383 144.439C149.137 147.876 150.801 151.834 151.421 155.895Z" fill="#FEC447"/>
<defs>
<linearGradient id="paint0_linear_304_37" x1="127" y1="164.651" x2="171.651" y2="120" gradientUnits="userSpaceOnUse">
<stop stop-color="#2696DA"/>
<stop offset="1" stop-color="#3DB8D4"/>
</linearGradient>
</defs>
</svg>
