<svg width="400" height="300" viewBox="0 0 400 300" fill="none" xmlns="http://www.w3.org/2000/svg">
<rect width="400" height="300" fill="#FAFAFA"/>
<path fill-rule="evenodd" clip-rule="evenodd" d="M108.245 128C110.529 128 114.121 129.737 114.121 133.993V140.997C114.121 143.75 113.003 145.78 110.574 147.134L105.038 150.37C103.971 151 102.804 151.193 101.591 151.193H93.6263C93.0429 151.193 92.8023 151.58 92.8022 152.111V163.177C92.8021 163.806 92.3637 164 91.7844 164H86.7281C86.1944 164 86 163.806 86 163.226V129.354C86 128.774 86.1945 128.482 86.7281 128.482H91.7809C92.364 128.482 92.7985 128.77 92.7987 129.35V130.124C92.7987 130.799 93.0883 131.043 93.7213 130.849L106.544 128.193C107.177 128.095 107.806 128 108.245 128ZM93.6263 133.652C93.0429 133.652 92.8023 133.99 92.8022 134.619V145.203C92.8022 145.784 93.047 146.027 93.6263 146.027H106.35C106.933 146.027 107.273 145.784 107.273 145.203V134.619C107.273 133.994 106.933 133.653 106.35 133.652H93.6263Z" fill="#E6196C"/>
<path fill-rule="evenodd" clip-rule="evenodd" d="M140.984 128C143.313 128 147.008 129.787 147.008 133.944V139.839C147.008 142.593 145.792 144.574 143.318 145.978L140.793 147.476C140.26 147.813 140.111 148.2 140.499 148.731L149.098 163.374C149.342 163.905 149.292 164 148.613 164H142.589C142.055 164 141.571 163.806 141.327 163.275L134.139 150.905C133.849 150.374 133.361 150.082 132.732 150.082H126.368C125.785 150.082 125.545 150.419 125.545 150.999V163.177C125.545 163.806 125.156 164 124.572 164H119.521C118.937 164 118.742 163.806 118.742 163.226V129.354C118.742 128.774 118.937 128.486 119.521 128.486H124.572C125.156 128.486 125.545 128.774 125.545 129.354V130.128C125.545 130.803 125.835 131.046 126.468 130.853L139.333 128.193C139.966 128.095 140.549 128 140.984 128ZM126.364 133.652C125.781 133.653 125.541 133.99 125.541 134.619V143.944C125.541 144.573 125.785 144.861 126.364 144.862H139.138C139.685 144.861 140.017 144.565 140.056 144.009L140.061 143.898V134.619C140.061 133.994 139.721 133.653 139.138 133.652H126.364Z" fill="#E6196C"/>
<path d="M168.777 128.482C169.41 128.482 169.745 128.77 169.894 129.305L178.492 159.019C178.493 159.406 178.737 159.55 179.076 159.55C179.515 159.55 179.759 159.406 179.854 159.019L188.299 129.305C188.494 128.774 188.833 128.482 189.466 128.482H194.663C195.296 128.482 195.441 128.77 195.342 129.256L184.948 163.177C184.753 163.806 184.364 164 183.686 164H174.458C173.875 164 173.536 163.806 173.391 163.177L162.997 129.256C162.802 128.774 162.997 128.482 163.53 128.482H168.777Z" fill="#E6196C"/>
<path d="M159.107 128.482C159.691 128.482 160.03 128.77 160.03 129.305V163.221C160.03 163.802 159.691 163.996 159.107 163.996H153.959C153.475 163.996 153.281 163.802 153.281 163.221V129.305C153.281 128.774 153.475 128.482 153.959 128.482H159.107Z" fill="#E6196C"/>
<path d="M204.433 128.482C205.016 128.482 205.356 128.77 205.356 129.305V163.221C205.356 163.802 205.016 163.996 204.433 163.996H199.285C198.801 163.996 198.607 163.802 198.607 163.221V129.305C198.607 128.774 198.801 128.482 199.285 128.482H204.433Z" fill="#E6196C"/>
<path fill-rule="evenodd" clip-rule="evenodd" d="M229.396 128.482C230.075 128.482 230.464 128.77 230.659 129.305L241.003 163.221C241.197 163.802 241.003 163.996 240.37 163.996H235.173C234.589 163.996 234.2 163.802 234.055 163.172L231.966 155.878C231.722 155.396 231.337 155.009 230.749 155.009H218.853C218.27 155.009 217.835 155.397 217.736 155.878L215.601 163.172C215.456 163.802 215.162 163.996 214.483 163.996H209.191C208.658 163.996 208.513 163.802 208.658 163.221L219.052 129.305C219.197 128.774 219.586 128.482 220.169 128.482H229.396ZM224.783 132.927C224.443 132.927 224.249 133.121 224.104 133.409L219.685 148.921C219.49 149.596 219.735 149.789 220.318 149.789H229.206C229.934 149.789 230.179 149.596 229.984 148.921H229.98L225.511 133.409C225.411 133.121 225.171 132.927 224.783 132.927Z" fill="#E6196C"/>
<path fill-rule="evenodd" clip-rule="evenodd" d="M302.045 150.646C310.109 150.646 314.996 153.424 314.996 157.318C314.996 161.213 310.225 163.996 302.081 163.996C294.095 163.996 289.13 161.18 289.13 157.318C289.13 153.457 293.98 150.646 302.045 150.646ZM302.045 154.235C297.195 154.235 293.859 155.47 293.859 157.36C293.859 159.249 297.195 160.369 302.045 160.369C306.894 160.369 310.266 159.249 310.266 157.36C310.266 155.47 306.894 154.235 302.045 154.235Z" fill="#E6196C"/>
<path fill-rule="evenodd" clip-rule="evenodd" d="M278.695 129.156C279.084 129.157 279.315 129.387 279.315 129.774V162.761C279.315 163.148 279.083 163.378 278.695 163.378H275.438C275.049 163.378 274.817 163.148 274.817 162.761V151.304C274.817 150.917 274.586 150.806 274.197 150.806H267.874C267.489 150.806 267.29 150.921 267.137 151.304C265.586 154.507 262.909 156.202 259.379 156.202C253.719 156.202 249.916 151.498 249.916 143.433C249.916 135.369 253.677 130.664 259.379 130.664C262.83 130.664 265.47 132.286 267.022 135.332C267.138 135.682 267.49 135.912 267.874 135.912H274.234C274.618 135.912 274.817 135.719 274.817 135.332V129.774C274.817 129.387 275.049 129.156 275.438 129.156H278.695ZM259.379 134.714C256.276 134.714 254.418 137.765 254.418 143.433C254.418 149.102 256.317 152.152 259.379 152.152C262.482 152.152 264.345 149.106 264.345 143.433C264.345 137.761 262.482 134.714 259.379 134.714ZM268.921 139.765C268.532 139.765 268.379 139.959 268.457 140.345C268.573 141.309 268.652 142.351 268.652 143.433C268.652 144.438 268.615 145.401 268.495 146.29C268.417 146.677 268.611 146.866 268.999 146.866H274.234C274.618 146.866 274.817 146.673 274.817 146.29V140.345C274.817 139.959 274.622 139.765 274.234 139.765H268.921Z" fill="#E6196C"/>
<path d="M314.379 129.156C314.768 129.157 315 129.387 315 129.774V149.723C315 150.11 314.768 150.341 314.379 150.341H311.276C310.891 150.341 310.655 150.11 310.655 149.723V142.622C310.655 142.235 310.46 142.046 310.071 142.046H307.862C307.473 142.046 307.279 142.239 307.279 142.622V148.562C307.279 148.949 307.047 149.18 306.658 149.18H303.591C303.207 149.18 302.971 148.949 302.971 148.562V130.161C302.971 129.774 303.207 129.544 303.591 129.544H306.658C307.047 129.544 307.279 129.774 307.279 130.161V137.723C307.279 138.11 307.473 138.304 307.862 138.304H310.071C310.46 138.304 310.655 138.11 310.655 137.723V129.774C310.655 129.387 310.891 129.156 311.276 129.156H314.379Z" fill="#E6196C"/>
<path fill-rule="evenodd" clip-rule="evenodd" d="M293.082 136.102C297.505 136.102 300.373 139.304 300.373 142.659C300.373 146.014 297.464 149.217 293.082 149.217C288.7 149.217 285.791 146.055 285.791 142.659C285.791 139.304 288.658 136.102 293.082 136.102ZM293.082 139.728C291.025 139.728 289.941 141.041 289.941 142.659C289.941 144.318 290.988 145.553 293.082 145.553C295.175 145.553 296.222 144.318 296.222 142.659C296.222 141 295.138 139.728 293.082 139.728Z" fill="#E6196C"/>
<path d="M294.754 128C295.142 128 295.374 128.231 295.374 128.618V131.124H295.37C295.37 131.511 295.565 131.705 295.954 131.705H300.803C301.192 131.705 301.424 131.936 301.424 132.323V134.714C301.424 135.101 301.154 135.332 300.765 135.332H285.137C284.752 135.332 284.516 135.101 284.516 134.714V132.323C284.516 131.936 284.752 131.705 285.137 131.705H290.372C290.76 131.705 290.955 131.511 290.955 131.124V128.618C290.955 128.231 291.186 128 291.575 128H294.754Z" fill="#E6196C"/>
</svg>
