<svg width="400" height="300" viewBox="0 0 400 300" fill="none" xmlns="http://www.w3.org/2000/svg">
<rect width="400" height="300" fill="#FAFAFA"/>
<path d="M62 138.803H70.8412V162.403H81.8543V138.803H90.6954V129.447H62V138.803Z" fill="#444444"/>
<path d="M155.048 147.736C155.048 150.769 153.575 152.626 150.979 152.626C148.383 152.626 146.911 150.769 146.911 147.736V129.447H136.608V148.912C136.608 156.516 141.238 162.403 150.804 162.403C160.371 162.403 165.304 156.519 165.304 148.912V129.447H155.045V147.736H155.048Z" fill="#444444"/>
<path d="M202.824 140.153C202.824 131.775 195.919 129.447 189.296 129.447H174.869V162.403H185.75V150.628H186.081L192.516 162.403H205.477L196.962 149.044C200.7 147.369 202.827 144.156 202.827 140.153H202.824ZM185.651 143.366V138.06H188.348C189.767 138.06 191.803 138.291 191.803 140.619C191.803 142.947 189.436 143.366 187.878 143.366H185.651Z" fill="#444444"/>
<path d="M223.865 149.838H223.675L218.159 129.447H205.477L217.31 162.403H229.758L241.825 129.447H229.143L223.865 149.838Z" fill="#444444"/>
<path d="M279.813 140.148C277.588 139.402 276.636 139.077 276.636 138.096C276.636 137.026 277.68 136.603 279.27 136.603C280.949 136.603 283.357 137.583 284.81 139.449L291.527 132.406C288.213 129.281 283.494 127.508 279.27 127.508C272.961 127.508 265.789 130.633 265.789 138.845C265.789 144.63 270.638 147.01 274.997 148.5C279.535 150.038 280.67 150.508 280.67 151.72C280.67 152.932 279.489 153.257 278.265 153.257C275.631 153.257 272.863 151.72 271.365 150.038L264.781 157.41C268.05 160.395 273.135 162.402 278.308 162.402C284.8 162.402 291.563 158.579 291.563 150.602C291.563 143.79 284.443 141.692 279.813 140.151V140.148Z" fill="#444444"/>
<path d="M259.042 129.447H247.564V162.403H259.042V129.447Z" fill="#444444"/>
<path d="M252.347 112C248.648 112 245.651 115.036 245.651 118.785C245.651 122.534 248.648 125.57 252.347 125.57C256.045 125.57 259.042 122.534 259.042 118.785C259.042 115.036 256.045 112 252.347 112Z" fill="#444444"/>
<path d="M328.024 161.609V159.265L334.163 151.749V151.652H328.218V148.486H339.021V151.048L333.317 158.347V158.419H339.238V161.609H328.024Z" fill="#444444"/>
<path d="M320.068 161.609V148.486H324.153V161.609H320.068ZM322.122 146.915C320.962 146.915 320.02 146.045 320.02 144.958C320.02 143.87 320.962 143 322.122 143C323.282 143 324.249 143.87 324.249 144.958C324.249 146.045 323.282 146.915 322.122 146.915Z" fill="#444444"/>
<path d="M302.977 161.609V144.112H310.203C314.118 144.112 316.148 145.9 316.148 148.559C316.148 150.565 314.795 151.942 312.885 152.329V152.498C314.988 152.595 316.825 154.19 316.825 156.727C316.825 159.555 314.626 161.609 310.759 161.609H302.977ZM309.792 158.274C311.677 158.274 312.523 157.525 312.523 156.268C312.523 154.891 311.508 154.021 309.864 154.021H307.085V158.274H309.792ZM309.526 151.338C310.928 151.338 311.943 150.589 311.943 149.332C311.943 148.148 311.049 147.399 309.574 147.399H307.085V151.338H309.526Z" fill="#444444"/>
<mask id="mask0_304_16" style="mask-type:alpha" maskUnits="userSpaceOnUse" x="93" y="127" width="37" height="45">
<path d="M111.697 127.598C101.435 127.598 93.6962 134.246 93.6962 144.799C93.6962 145.987 93.7985 147.124 93.9867 148.215C95.5451 161.029 111.803 172 111.803 172C111.803 172 127.901 161.033 129.447 148.218C129.635 147.124 129.741 145.987 129.741 144.799C129.741 134.246 121.955 127.598 111.697 127.598ZM111.71 152.825C107.444 152.825 103.984 149.316 103.984 144.986C103.984 140.657 107.441 137.144 111.71 137.144C115.979 137.144 119.436 140.654 119.436 144.986C119.436 149.319 115.979 152.825 111.71 152.825Z" fill="#D9D9D9"/>
</mask>
<g mask="url(#mask0_304_16)">
<path d="M130.044 126.685H93.395V172.188H130.044V126.685Z" fill="#67E9FE"/>
<path d="M95.9078 173.41V136.566V122.219H133.015V174.34L95.9078 173.41Z" fill="url(#paint0_linear_304_16)"/>
<path d="M105.612 149.801C105.612 149.801 111.135 158.152 119.432 165.506L120.136 168.507L111.706 176.136L94.0558 161.816L90.0938 139.065L96.0368 125.347L110.894 118.655L125.091 123.005L134.267 145.903L115.49 151.829L105.615 149.801H105.612Z" fill="url(#paint1_linear_304_16)"/>
<path d="M94.0539 161.816L111.708 176.136L120.137 168.507L119.434 165.506C111.137 158.156 105.613 149.801 105.613 149.801L114.491 138.429L105.702 123.45L89.8905 132.353L94.0539 161.816Z" fill="url(#paint2_linear_304_16)"/>
</g>
<defs>
<linearGradient id="paint0_linear_304_16" x1="108.781" y1="152.141" x2="134.059" y2="135.411" gradientUnits="userSpaceOnUse">
<stop stop-color="#893AEF"/>
<stop offset="0.13" stop-color="#795FF4"/>
<stop offset="0.29" stop-color="#537FF9"/>
<stop offset="1" stop-color="white" stop-opacity="0"/>
</linearGradient>
<linearGradient id="paint1_linear_304_16" x1="91.2757" y1="139.697" x2="118.02" y2="149.177" gradientUnits="userSpaceOnUse">
<stop stop-color="#FF0AE9"/>
<stop offset="0.25" stop-color="#FA16EA"/>
<stop offset="0.7" stop-color="#F491F0" stop-opacity="0.5"/>
<stop offset="1" stop-color="white" stop-opacity="0"/>
</linearGradient>
<linearGradient id="paint2_linear_304_16" x1="105.871" y1="148.028" x2="110.366" y2="135.76" gradientUnits="userSpaceOnUse">
<stop stop-color="#FD02E7"/>
<stop offset="0.96" stop-color="#FD02E7" stop-opacity="0"/>
</linearGradient>
</defs>
</svg>
