<svg width="400" height="300" viewBox="0 0 400 300" fill="none" xmlns="http://www.w3.org/2000/svg">
<rect width="400" height="300" fill="#FAFAFA"/>
<path d="M85 138.803H93.8412V162.403H104.854V138.803H113.695V129.447H85V138.803Z" fill="#444444"/>
<path d="M178.048 147.736C178.048 150.769 176.575 152.626 173.979 152.626C171.383 152.626 169.911 150.769 169.911 147.736V129.447H159.608V148.912C159.608 156.516 164.238 162.403 173.804 162.403C183.371 162.403 188.304 156.519 188.304 148.912V129.447H178.045V147.736H178.048Z" fill="#444444"/>
<path d="M225.824 140.153C225.824 131.775 218.919 129.447 212.296 129.447H197.869V162.403H208.75V150.628H209.081L215.516 162.403H228.477L219.962 149.044C223.7 147.369 225.827 144.156 225.827 140.153H225.824ZM208.651 143.366V138.06H211.348C212.767 138.06 214.803 138.291 214.803 140.619C214.803 142.947 212.436 143.366 210.878 143.366H208.651Z" fill="#444444"/>
<path d="M246.865 149.838H246.675L241.159 129.447H228.477L240.31 162.403H252.758L264.825 129.447H252.143L246.865 149.838Z" fill="#444444"/>
<path d="M302.813 140.148C300.588 139.402 299.636 139.077 299.636 138.096C299.636 137.026 300.68 136.603 302.27 136.603C303.949 136.603 306.357 137.583 307.81 139.449L314.527 132.406C311.213 129.281 306.494 127.508 302.27 127.508C295.961 127.508 288.789 130.633 288.789 138.845C288.789 144.63 293.638 147.01 297.997 148.5C302.535 150.038 303.67 150.508 303.67 151.72C303.67 152.932 302.489 153.257 301.265 153.257C298.631 153.257 295.863 151.72 294.365 150.038L287.781 157.41C291.05 160.395 296.135 162.402 301.308 162.402C307.8 162.402 314.563 158.579 314.563 150.602C314.563 143.79 307.443 141.692 302.813 140.151V140.148Z" fill="#444444"/>
<path d="M282.042 129.447H270.564V162.403H282.042V129.447Z" fill="#444444"/>
<path d="M275.347 112C271.648 112 268.651 115.036 268.651 118.785C268.651 122.534 271.648 125.57 275.347 125.57C279.045 125.57 282.042 122.534 282.042 118.785C282.042 115.036 279.045 112 275.347 112Z" fill="#444444"/>
<mask id="mask0_304_3" style="mask-type:alpha" maskUnits="userSpaceOnUse" x="116" y="127" width="37" height="45">
<path d="M134.697 127.598C124.435 127.598 116.696 134.246 116.696 144.799C116.696 145.987 116.799 147.124 116.987 148.215C118.545 161.029 134.803 172 134.803 172C134.803 172 150.901 161.033 152.447 148.218C152.635 147.124 152.741 145.987 152.741 144.799C152.741 134.246 144.955 127.598 134.697 127.598ZM134.71 152.825C130.444 152.825 126.984 149.316 126.984 144.986C126.984 140.657 130.441 137.144 134.71 137.144C138.979 137.144 142.436 140.654 142.436 144.986C142.436 149.319 138.979 152.825 134.71 152.825Z" fill="#D9D9D9"/>
</mask>
<g mask="url(#mask0_304_3)">
<path d="M153.044 126.685H116.395V172.188H153.044V126.685Z" fill="#67E9FE"/>
<path d="M118.908 173.41V136.566V122.219H156.015V174.34L118.908 173.41Z" fill="url(#paint0_linear_304_3)"/>
<path d="M128.612 149.801C128.612 149.801 134.135 158.152 142.432 165.506L143.136 168.507L134.706 176.136L117.056 161.816L113.094 139.065L119.037 125.347L133.894 118.655L148.091 123.005L157.267 145.903L138.49 151.829L128.615 149.801H128.612Z" fill="url(#paint1_linear_304_3)"/>
<path d="M117.054 161.816L134.708 176.136L143.137 168.507L142.434 165.506C134.137 158.156 128.613 149.801 128.613 149.801L137.491 138.429L128.702 123.45L112.891 132.353L117.054 161.816Z" fill="url(#paint2_linear_304_3)"/>
</g>
<defs>
<linearGradient id="paint0_linear_304_3" x1="131.781" y1="152.141" x2="157.059" y2="135.411" gradientUnits="userSpaceOnUse">
<stop stop-color="#893AEF"/>
<stop offset="0.13" stop-color="#795FF4"/>
<stop offset="0.29" stop-color="#537FF9"/>
<stop offset="1" stop-color="white" stop-opacity="0"/>
</linearGradient>
<linearGradient id="paint1_linear_304_3" x1="114.276" y1="139.697" x2="141.02" y2="149.177" gradientUnits="userSpaceOnUse">
<stop stop-color="#FF0AE9"/>
<stop offset="0.25" stop-color="#FA16EA"/>
<stop offset="0.7" stop-color="#F491F0" stop-opacity="0.5"/>
<stop offset="1" stop-color="white" stop-opacity="0"/>
</linearGradient>
<linearGradient id="paint2_linear_304_3" x1="128.871" y1="148.028" x2="133.366" y2="135.76" gradientUnits="userSpaceOnUse">
<stop stop-color="#FD02E7"/>
<stop offset="0.96" stop-color="#FD02E7" stop-opacity="0"/>
</linearGradient>
</defs>
</svg>
